<?xml version="1.0" standalone="no"?>
<!DOCTYPE svg PUBLIC "-//W3C//DTD SVG 1.1//EN" "http://www.w3.org/Graphics/SVG/1.1/DTD/svg11.dtd" >
<svg xmlns="http://www.w3.org/2000/svg">
<metadata>
Copyright (c) 2015 by Fontsmith Ltd. All rights reserved.
</metadata>
<defs>
<font id="CoopBankWeb-ThinItalic" horiz-adv-x="545" >
  <font-face 
    font-family="Coop Bank Web Thin"
    font-weight="275"
    font-style="italic"
    font-stretch="normal"
    units-per-em="1000"
    panose-1="2 0 5 6 3 0 0 9 0 4"
    ascent="770"
    descent="-230"
    x-height="482"
    cap-height="687"
    bbox="-233.579 -225.222 1010.11 1009"
    underline-thickness="34"
    underline-position="-66"
    slope="-11"
    unicode-range="U+000D-FB02"
  />
<missing-glyph horiz-adv-x="550" 
d="M28 693h495v-693h-495v693zM444 644h-337l169 -253zM474 94v505l-169 -252zM444 50l-168 252l-169 -252h337zM78 94l168 253l-168 252v-505z" />
    <glyph glyph-name="fi" unicode="fi" horiz-adv-x="463" 
d="M54 -203q-2 -9 -9 -9h-21q-8 0 -6 9l113 658h-61q-8 0 -7 7l2 12q2 8 11 8h60l3 20q10 57 16 80q18 65 59 100t100 35q18 0 38 -3t32 -8q5 -2 3 -9l-3 -12q-2 -5 -5 -5t-6 1q-11 4 -28 6.5t-32 2.5q-32 0 -54 -10.5t-37.5 -30.5t-25.5 -48.5t-16 -64.5l-9 -54h236
q6 0 5 -9l-82 -464q-2 -9 -8 -9h-23q-7 0 -5 9l79 446h-207zM445 612q0 -13 -9.5 -22t-22.5 -9q-9 0 -16 5.5t-7 15.5q0 13 10 22t22 9q10 0 16.5 -5.5t6.5 -15.5z" />
    <glyph glyph-name="fl" unicode="fl" horiz-adv-x="472" 
d="M54 -203q-2 -9 -9 -9h-21q-8 0 -6 9l113 658h-59q-5 0 -7.5 1t-1.5 6l2 12q1 8 11 8h60l3 20q10 57 16 80q18 65 59 100t100 35q18 0 38 -3t32 -8q5 -2 3 -9l-3 -12q-2 -5 -5 -5t-6 1q-11 4 -26 6.5t-30 2.5q-63 0 -93.5 -41t-43.5 -113l-9 -54h131q5 0 6 -1.5t0 -6.5
l-2 -12q-1 -7 -8 -7h-132zM351 10q-3 -10 -10 -10h-19q-10 0 -7 10l120 684q2 10 9 11l23 3q7 1 5 -7z" />
    <glyph glyph-name="f_f" unicode="ff" horiz-adv-x="574" 
d="M70 455q-7 0 -6 8l2 11q1 8 10 8h60l2 10q6 29 9 48.5t7 31.5q19 65 59 100t100 35q13 0 26.5 -1.5t26.5 -5.5q11 -4 7 -13l-3 -9q-2 -6 -13 -3q-10 2 -20 3.5t-25 1.5q-32 0 -54 -10.5t-37 -30.5t-25 -48.5t-16 -64.5l-8 -44h230l4 20q5 29 8.5 48.5t7.5 31.5
q17 65 58 100t101 35q17 0 35 -2.5t29 -6.5q7 -2 7.5 -5.5t-0.5 -7.5l-2 -9q-1 -7 -13 -4q-11 3 -26.5 5.5t-30.5 2.5q-32 0 -54 -10.5t-37 -30.5t-25 -48.5t-16 -64.5l-10 -54h130q8 0 7 -8l-2 -12q-1 -7 -9 -7h-131l-113 -658q-2 -9 -9 -9h-21q-8 0 -6 9l113 658h-230
l-113 -658q-2 -9 -9 -9h-21q-8 0 -6 9l113 658h-61z" />
    <glyph glyph-name="f_f_i" unicode="ffi" horiz-adv-x="738" 
d="M402 482l4 20q5 29 8.5 48.5t7.5 31.5q17 65 60 100t109 35q20 0 39.5 -2.5t36 -5.5t29 -6.5t18.5 -6.5q5 -2 3 -9l-2 -11q-1 -5 -4.5 -5t-6.5 1q-12 4 -43.5 11t-69.5 7q-66 0 -98 -41t-45 -113l-10 -54h244q6 0 5 -9l-82 -464q-2 -9 -7 -9h-23q-8 0 -6 9l79 446h-215
l-113 -658q-2 -9 -9 -9h-21q-8 0 -6 9l113 658h-230l-113 -658q-2 -9 -9 -9h-21q-8 0 -6 9l113 658h-61q-7 0 -6 8l2 11q1 8 10 8h60l2 10q6 29 9 48.5t7 31.5q19 65 59 100t100 35q13 0 26.5 -1.5t26.5 -5.5q11 -4 7 -13l-3 -9q-2 -6 -13 -3q-10 2 -20 3.5t-25 1.5
q-32 0 -54 -10.5t-37 -30.5t-25 -48.5t-16 -64.5l-8 -44h230z" />
    <glyph glyph-name="f_f_l" unicode="ff&#xfb02;" horiz-adv-x="746" 
d="M705 673q-15 5 -47 11t-67 6q-66 0 -98 -41t-45 -113l-10 -54h130q8 0 7 -8l-2 -12q-1 -7 -9 -7h-131l-113 -658q-2 -9 -9 -9h-21q-8 0 -6 9l113 658h-230l-113 -658q-2 -9 -9 -9h-21q-8 0 -6 9l113 658h-61q-5 0 -6 1t0 6l2 12q1 8 10 8h60l2 10q6 29 9 48.5t7 31.5
q19 65 59 100t100 35q13 0 26.5 -1.5t26.5 -5.5q11 -4 7 -13l-3 -9q-2 -6 -13 -3q-10 2 -20 3.5t-25 1.5q-32 0 -54 -10.5t-37 -30.5t-25 -48.5t-16 -64.5l-8 -44h230l4 20q5 29 8.5 48.5t7.5 31.5q17 65 60 100t109 35q17 0 34.5 -2t33.5 -4.5t29 -5.5t22 -6l30 8q7 1 6 -6
l-121 -691q-1 -10 -10 -10h-19q-8 0 -7 10l116 663v0z" />
    <glyph glyph-name=".notdef" horiz-adv-x="550" 
d="M28 693h495v-693h-495v693zM444 644h-337l169 -253zM474 94v505l-169 -252zM444 50l-168 252l-169 -252h337zM78 94l168 253l-168 252v-505z" />
    <glyph glyph-name=".null" horiz-adv-x="0" 
 />
    <glyph glyph-name=".null" horiz-adv-x="0" 
 />
    <glyph glyph-name="nonmarkingreturn" unicode="&#xd;" horiz-adv-x="246" 
 />
    <glyph glyph-name="space" unicode=" " horiz-adv-x="225" 
 />
    <glyph glyph-name="nonbreakingspace" unicode="&#xa0;" horiz-adv-x="225" 
 />
    <glyph glyph-name="A" unicode="A" horiz-adv-x="571" 
d="M499 12q1 -3 0 -7.5t-5 -4.5h-33q-5 0 -6 0.5t-2 5.5l-37 225h-277l-119 -226q-2 -4 -3.5 -4.5t-4.5 -0.5h-26q-11 0 -6 8l360 670q4 9 12 9h21q5 0 6 -2t2 -6zM412 263l-62 365l-194 -365h256z" />
    <glyph glyph-name="B" unicode="B" horiz-adv-x="538" 
d="M469 559q0 -35 -11 -67t-31.5 -58t-49 -44t-62.5 -25v-1q30 -2 56.5 -11.5t46 -27.5t31 -43.5t11.5 -58.5q0 -45 -18.5 -90t-50.5 -73q-36 -33 -87.5 -46.5t-112.5 -13.5h-141q-15 0 -12 12l117 661q1 14 16 14h125q31 0 62 -5.5t56 -20t40 -39t15 -63.5zM427 557
q0 34 -14 53t-36.5 29t-50.5 12.5t-55 2.5h-80l-48 -276h86q42 0 78 12t62.5 34.5t42 56t15.5 76.5zM416 224q0 38 -15.5 61.5t-40.5 37t-55.5 18t-61.5 4.5h-106l-55 -311h105q54 0 98.5 10.5t75.5 39.5q28 26 41.5 64t13.5 76z" />
    <glyph glyph-name="C" unicode="C" horiz-adv-x="541" 
d="M557 626q-4 -7 -11 -2q-28 20 -64.5 30t-75.5 10q-75 0 -133.5 -38.5t-98 -97.5t-60 -130t-20.5 -137q0 -48 10.5 -90.5t33.5 -75t61 -51.5t93 -19q38 0 80.5 10.5t80.5 28.5q4 2 6.5 2t4.5 -5l5 -17q1 -5 -2 -8t-8 -5q-45 -21 -89.5 -30.5t-90.5 -9.5q-60 0 -104 19.5
t-72 54.5t-41.5 82.5t-13.5 103.5q0 76 24 155t70 144t112.5 106.5t152.5 41.5q45 0 87 -10.5t73 -32.5q6 -5 2 -10z" />
    <glyph glyph-name="D" unicode="D" horiz-adv-x="638" 
d="M591 439q0 -50 -9 -101t-27 -99.5t-46 -91.5t-67 -76q-45 -38 -97 -54.5t-145 -16.5h-149q-8 0 -11 4.5t-2 10.5l116 658q2 9 4.5 11.5t11.5 2.5h109q47 0 82 -2t62 -7.5t48 -15t40 -24.5q38 -29 59 -80.5t21 -118.5zM545 425q0 55 -13 100.5t-42 75.5q-17 18 -39 28.5
t-46.5 16t-51.5 7t-53 1.5h-109l-110 -620h108q33 0 59.5 1t50.5 5.5t46 12.5t45 24q40 26 68.5 67.5t48 88.5t29 96t9.5 96z" />
    <glyph glyph-name="E" unicode="E" horiz-adv-x="487" 
d="M478 661q-2 -7 -11 -7h-278l-48 -276h240q10 0 8 -8l-3 -17q-2 -8 -10 -8h-241l-55 -311h283q6 0 7.5 -2t1.5 -5l-4 -19q-1 -8 -11 -8h-310q-14 0 -11 12l117 661q1 14 17 14h308q7 0 6 -7z" />
    <glyph glyph-name="F" unicode="F" horiz-adv-x="455" 
d="M478 661q-2 -7 -11 -7h-278l-48 -276h240q10 0 8 -8l-3 -17q-2 -8 -10 -8h-241l-59 -331q-3 -14 -13 -14h-16q-14 0 -11 12l117 661q1 14 17 14h308q7 0 6 -7z" />
    <glyph glyph-name="G" unicode="G" horiz-adv-x="623" 
d="M564 628q-2 -2 -5 -3.5t-6 0.5q-28 20 -65 29.5t-76 9.5q-75 0 -133.5 -38t-99 -96.5t-62 -129.5t-21.5 -138q0 -48 10 -91.5t33.5 -75.5t61 -51t92.5 -19q36 0 77.5 9.5t78.5 26.5l50 284h-121q-8 0 -7 7l3 18q2 8 9 8h152q9 0 8 -10l-54 -305q-2 -12 -7 -18t-22 -14
q-45 -21 -89 -30.5t-90 -9.5q-62 0 -105.5 19.5t-71.5 55t-41 85t-13 108.5q0 50 11.5 102t33 101t53 92t71.5 75t88.5 50.5t104.5 18.5q44 0 86 -9.5t74 -32.5q5 -4 2 -9z" />
    <glyph glyph-name="H" unicode="H" horiz-adv-x="636" 
d="M483 9q-1 -9 -9 -9h-24q-5 0 -6.5 1.5t-0.5 8.5l59 335h-367l-59 -336q-1 -9 -10 -9h-25q-6 0 -5 9l118 669q1 9 10 9h24q5 0 6 -2.5t0 -7.5l-53 -299h367l53 301q1 8 10 8h24q7 0 6 -9z" />
    <glyph glyph-name="I" unicode="I" horiz-adv-x="350" 
d="M326 666q-1 -7 -7 -7h-71l-111 -630h71q6 0 5 -6l-3 -17q-2 -6 -7 -6h-177q-6 0 -5 6l3 17q1 6 7 6h66l111 630h-68q-7 0 -6 7l3 16q1 5 7 5h179q7 0 6 -6z" />
    <glyph glyph-name="J" unicode="J" horiz-adv-x="363" 
d="M246 228q-12 -69 -29 -120.5t-52 -80.5q-20 -16 -49 -26t-70 -10q-9 0 -20 1t-19 3q-9 2 -6 11l5 14q3 7 11 5q10 -2 20.5 -3t18.5 -1q28 0 56.5 10.5t45.5 34.5q16 23 26 58.5t18 78.5l80 456h-118q-6 0 -5 7l2 16q1 5 7 5h152q7 0 6 -6z" />
    <glyph glyph-name="K" unicode="K" horiz-adv-x="481" 
d="M177 355l232 -346q2 -3 1.5 -6t-5.5 -3h-33q-7 0 -10 1.5t-8 9.5l-218 332h-1l-59 -332q-2 -11 -11 -11h-23q-8 0 -6 11l117 666q2 10 11 10h23q8 0 6 -11l-55 -314h1l328 320q5 5 12 5h25q5 0 6.5 -2.5t-1.5 -5.5z" />
    <glyph glyph-name="L" unicode="L" horiz-adv-x="417" 
d="M336 6q-1 -6 -8 -6h-286q-7 0 -6 10l118 668q1 9 7 9h28q6 0 5 -9l-114 -644h253q9 0 7 -7z" />
    <glyph glyph-name="M" unicode="M" horiz-adv-x="810" 
d="M656 10q-2 -10 -9 -10h-26q-4 0 -5.5 1.5t0.5 9.5l78 567h-2l-325 -571q-4 -7 -11 -7h-14q-7 0 -8 7l-136 571h-2l-116 -570q-1 -8 -7 -8h-27q-5 0 -5.5 1.5t0.5 5.5l139 668q3 12 12 12h15q8 0 11 -10l143 -609h2l350 612q3 7 11 7h21q7 0 6 -7z" />
    <glyph glyph-name="N" unicode="N" horiz-adv-x="663" 
d="M509 9q-1 -6 -4 -7.5t-6 -1.5h-18q-6 0 -12 13l-287 601h-1l-107 -604q-1 -7 -3.5 -8.5t-7.5 -1.5h-19q-8 0 -7 9l118 670q2 8 10 8h19q6 0 9 -7l290 -600h1l105 599q2 8 9 8h25q6 0 4 -8z" />
    <glyph glyph-name="O" unicode="O" horiz-adv-x="636" 
d="M589 454q0 -49 -9 -102t-27.5 -104.5t-46.5 -98t-65.5 -81.5t-85 -56t-104.5 -21q-55 0 -93.5 19t-63 51.5t-35.5 76.5t-11 94q0 49 9 102.5t27.5 105t46.5 98.5t65.5 82.5t84.5 56.5t104 21q55 0 94 -19.5t63.5 -52.5t35.5 -77.5t11 -94.5zM543 452q0 41 -8 79t-27 67.5
t-50.5 47t-78.5 17.5q-48 0 -88 -20t-72 -53.5t-55.5 -77.5t-39 -91t-23 -94t-7.5 -88t8 -79.5t27 -68.5t50.5 -48t78.5 -18q49 0 89 20t71.5 54t55 78t39 91t23 95t7.5 89z" />
    <glyph glyph-name="P" unicode="P" horiz-adv-x="493" 
d="M475 534q0 -36 -9 -70.5t-26 -62.5q-34 -59 -95 -91t-139 -32h-83l-47 -268q-1 -10 -14 -10h-20q-8 0 -6 9l118 669q1 9 11 9h111q38 0 74 -7t63.5 -24t44.5 -46.5t17 -75.5zM432 540q0 37 -14.5 59.5t-38.5 34.5t-55 16t-63 4h-71l-61 -343h77q61 0 108 22t76 62
q20 28 31 66t11 79z" />
    <glyph glyph-name="Q" unicode="Q" horiz-adv-x="646" 
d="M598 454q0 -61 -14 -128.5t-43 -129t-73 -110.5t-104 -74q27 -10 47 -23.5t38.5 -28t38.5 -27.5t47 -21q7 -3 4 -10l-8 -14q-5 -8 -11 -7q-26 6 -48.5 18.5t-49.5 35.5q-19 16 -34 26.5t-29 17t-28 10t-32 5.5q-18 -3 -39 -3q-55 0 -93.5 19t-63 51.5t-35.5 76.5t-11 94
q0 49 9 102.5t27.5 105t46.5 98.5t65.5 82.5t84.5 56.5t104 21q55 0 94 -19.5t63.5 -52.5t35.5 -77.5t11 -94.5zM552 452q0 41 -8 79t-27 67.5t-50.5 47t-78.5 17.5q-48 0 -88 -20t-72 -53.5t-55.5 -77.5t-39 -91t-23 -94t-7.5 -88t8 -79.5t27 -68.5t50.5 -48t78.5 -18
q49 0 89 20t71.5 54t55 78t39 91t23 95t7.5 89z" />
    <glyph glyph-name="R" unicode="R" horiz-adv-x="508" 
d="M483 543q0 -47 -19.5 -96.5t-57.5 -84.5q-24 -22 -53.5 -35t-61.5 -19l113 -297q4 -11 -6 -11h-27q-8 0 -12 9l-108 295h-123l-52 -296q-2 -8 -7 -8h-28q-7 0 -5 8l118 670q1 9 11 9h129q91 0 140 -34.5t49 -109.5zM438 540q0 33 -11 55t-32 35t-50.5 18.5t-66.5 5.5h-88
l-56 -317h105q45 0 83.5 14.5t65.5 45.5q25 27 37.5 66t12.5 77z" />
    <glyph glyph-name="S" unicode="S" horiz-adv-x="475" 
d="M437 644q-2 -5 -5 -5t-7 2q-56 25 -116 25q-32 0 -62 -9.5t-54 -28t-38.5 -45.5t-14.5 -61q0 -38 19 -63.5t48 -44.5l91 -62q21 -14 39 -29t31.5 -32.5t21 -39.5t7.5 -49q0 -42 -18.5 -83.5t-50.5 -69.5q-34 -30 -78.5 -44t-93.5 -14q-32 0 -69.5 6.5t-64.5 16.5
q-11 4 -6 16l7 16q2 5 4.5 6.5t7.5 -0.5q29 -12 64 -19t64 -7q33 0 68 9.5t63 32.5q29 22 45.5 55t16.5 68q0 47 -23.5 74.5t-55.5 48.5l-108 72q-35 23 -54 55.5t-19 70.5q0 42 19 76.5t49 58.5t68.5 37.5t77.5 13.5q75 0 131 -26q7 -3 3 -12z" />
    <glyph glyph-name="T" unicode="T" horiz-adv-x="513" 
d="M539 661q-2 -7 -14 -7h-198l-114 -646q-2 -8 -10 -8h-23q-6 0 -7 1.5t0 6.5l114 646h-198q-7 0 -6 7l4 20q1 6 8 6h443q8 0 6 -7z" />
    <glyph glyph-name="U" unicode="U" horiz-adv-x="681" 
d="M579 295q-12 -67 -35 -126t-64 -101q-35 -36 -85 -56.5t-113 -20.5q-57 0 -96 14.5t-63 38.5t-34 56.5t-10 68.5q0 29 3.5 64t10.5 72l65 371q1 11 11 11h22q10 0 7 -13l-64 -361q-6 -32 -10 -67.5t-4 -64.5q0 -35 7.5 -64t26.5 -49t51 -31t82 -11q67 0 112 24.5t73.5 65
t44.5 92.5t25 106l65 365q2 8 7 8h28q6 0 4 -9z" />
    <glyph glyph-name="V" unicode="V" horiz-adv-x="578" 
d="M262 8q-3 -6 -5 -7t-7 -1h-35q-6 0 -7 10l-102 664q-1 5 0.5 9t7.5 4h27q7 0 9.5 -1.5t3.5 -7.5l91 -622h1l306 621q3 7 6 8.5t8 1.5h24q6 0 6.5 -3.5t-1.5 -7.5z" />
    <glyph glyph-name="W" unicode="W" horiz-adv-x="840" 
d="M564 7q-2 -7 -9 -7h-36q-6 0 -7 9l-39 613h-2l-261 -615q-2 -7 -10 -7h-34q-6 0 -7 9l-56 667q-2 11 9 11h20q7 0 9 -1t3 -7l50 -633h1l268 632q3 6 6.5 7.5t8.5 1.5h15q3 0 6.5 -1t4.5 -7l45 -633h1l276 632q3 6 6.5 7.5t8.5 1.5h16q4 0 5.5 -3t-0.5 -6z" />
    <glyph glyph-name="X" unicode="X" horiz-adv-x="528" 
d="M293 363l136 -351q2 -5 0 -8.5t-7 -3.5h-23q-9 0 -13 2t-6 9l-117 312l-227 -309q-6 -9 -10 -11.5t-11 -2.5h-19q-9 0 -7.5 4.5t4.5 8.5l256 346l-119 315q-2 5 -2 9t8 4h25q7 0 11 -7l107 -281l204 278q5 6 7.5 8t10.5 2h21q11 0 4 -9z" />
    <glyph glyph-name="Y" unicode="Y" horiz-adv-x="518" 
d="M271 266l-45 -254q-2 -12 -12 -12h-18q-8 0 -9.5 2.5t-0.5 8.5l45 253l-127 411q-3 12 10 12h17q10 0 12 -2t4 -7l112 -374h1l233 371q5 8 7 10t10 2h21q8 0 4 -8z" />
    <glyph glyph-name="Z" unicode="Z" horiz-adv-x="512" 
d="M528 671q-1 -6 -10 -18l-485 -619h370q6 0 7.5 -2.5t0.5 -7.5l-3 -15q-2 -9 -10 -9h-409q-10 0 -9 8l2 10l2 6t5 9l486 621h-333q-9 0 -8 8l3 18q1 7 10 7h375q9 0 7 -7z" />
    <glyph glyph-name="a" unicode="a" horiz-adv-x="518" 
d="M403 73q-2 -6 -2.5 -13.5t-0.5 -12.5q0 -22 16 -22q9 0 17.5 4.5t16.5 9.5q5 4 7 -1l4 -12q1 -2 0.5 -4t-5.5 -5q-4 -2 -18 -10t-35 -8q-16 0 -27.5 9.5t-11.5 32.5q0 5 1 14t2 14l5 24q-9 -17 -25.5 -35t-39 -33t-51.5 -24.5t-64 -9.5q-39 0 -66 14t-44.5 38.5
t-25.5 58.5t-8 74q0 51 17.5 106.5t50.5 102t80 77t107 30.5q58 0 94 -15.5t67 -35.5q3 -2 4 -3.5t0 -6.5zM430 419q-21 19 -52 31.5t-76 12.5q-52 0 -92 -29t-67.5 -73t-41.5 -95.5t-14 -96.5q0 -71 30 -109.5t82 -38.5q35 0 63 10.5t50 28.5t39 41.5t30 50.5z" />
    <glyph glyph-name="b" unicode="b" horiz-adv-x="520" 
d="M474 311q0 -54 -15.5 -111t-47 -103.5t-79 -76t-111.5 -29.5q-45 0 -88.5 12t-74.5 29q-8 5 -5 22l112 639q1 11 10 12l21 3q4 1 5.5 -2.5t0.5 -6.5l-50 -284q37 37 82 57t91 20q39 0 67 -14t46.5 -38t27 -57t8.5 -72zM435 313q0 67 -29 107.5t-94 40.5q-45 0 -90.5 -24
t-76.5 -60l-56 -324q20 -14 57 -23.5t72 -9.5q57 0 98 28t67.5 71.5t39 95t12.5 98.5z" />
    <glyph glyph-name="c" unicode="c" horiz-adv-x="417" 
d="M416 438q-3 -6 -9 -3q-21 11 -45 19t-53 8q-79 0 -138 -57q-46 -45 -65 -108.5t-19 -126.5q0 -29 7.5 -56t24.5 -47.5t43.5 -33t64.5 -12.5q29 0 58 6.5t54 16.5q8 4 9 -3l3 -14q0 -3 -1.5 -5t-8.5 -5q-29 -13 -60 -19.5t-60 -6.5q-92 0 -133 50t-41 138q0 32 6.5 65.5
t18.5 65t30 60t41 51.5q34 34 77.5 52.5t94.5 18.5q28 0 57 -8t49 -20q4 -3 5 -4t-1 -6z" />
    <glyph glyph-name="d" unicode="d" horiz-adv-x="517" 
d="M395 7q0 -7 -7 -7h-22q-7 0 -7 7l11 62q-34 -36 -78.5 -57t-92.5 -21q-41 0 -69.5 13.5t-47.5 37.5t-27.5 56.5t-8.5 70.5q0 17 2 35t5 37q10 57 33 103.5t56 79t73 50.5t83 18q40 0 78.5 -19t54.5 -58l50 280q1 9 8 10l22 3q9 2 7 -7zM423 368q-12 43 -45.5 69t-78.5 26
q-39 0 -73 -15.5t-60.5 -44t-45.5 -69.5t-28 -92q-6 -36 -6 -69q0 -70 30 -112t91 -42q22 0 46 7t47 19t43 29t35 37z" />
    <glyph glyph-name="e" unicode="e" horiz-adv-x="481" 
d="M433 258q-2 -9 -4 -11t-11 -2h-324q-6 -35 -6 -67q0 -33 7.5 -61.5t24 -50t44 -34t67.5 -12.5q29 0 62 6t59 16q3 1 6.5 1t3.5 -4v-14q0 -7 -10 -11q-29 -12 -66 -17.5t-65 -5.5q-88 0 -130.5 48.5t-42.5 131.5q0 17 2 34.5t5 36.5q9 53 31.5 98.5t55.5 79.5t75 53t90 19
q67 0 102 -41.5t35 -109.5q0 -13 -1.5 -26t-3.5 -27zM406 299q2 11 3 21.5t1 20.5q0 51 -26 86.5t-84 35.5q-44 0 -79 -18t-61 -50q-21 -25 -35.5 -56.5t-24.5 -66.5h301z" />
    <glyph glyph-name="f" unicode="f" horiz-adv-x="308" 
d="M384 685q-2 -5 -5 -5t-6 1q-12 4 -28 6.5t-31 2.5q-32 0 -54 -10.5t-37 -30.5t-25 -48.5t-16 -64.5l-10 -54h130q8 0 7 -8l-2 -12q-1 -7 -9 -7h-131l-113 -658q-2 -9 -9 -9h-21q-8 0 -6 9l113 658h-61q-5 0 -6 1t0 6l2 12q1 8 10 8h60l4 20q5 29 8.5 48.5t7.5 31.5
q17 65 58 100t101 35q17 0 37.5 -3t32.5 -8q4 -2 2 -9z" />
    <glyph glyph-name="g" unicode="g" horiz-adv-x="523" 
d="M411 18q-9 -52 -26.5 -96t-46 -75.5t-70.5 -49t-100 -17.5q-27 0 -61 9t-57 22q-8 5 -3 13l7 12q4 6 11 3q26 -11 52 -20t55 -9q56 0 92.5 19.5t59 51t34.5 72t20 82.5l8 44q-14 -18 -33.5 -33t-43 -25t-48 -15.5t-46.5 -5.5q-41 0 -70 13.5t-47.5 37.5t-27.5 56t-9 69
q0 54 16.5 110t48.5 101.5t79 75t107 29.5q56 0 97.5 -19t67.5 -48q6 -8 4 -19zM443 404q-20 28 -54.5 43.5t-75.5 15.5q-54 0 -94 -26.5t-66 -68t-39 -91.5t-13 -96q0 -30 6.5 -57.5t20.5 -48.5t37.5 -33t58.5 -12q49 0 93.5 25.5t74.5 62.5z" />
    <glyph glyph-name="h" unicode="h" horiz-adv-x="524" 
d="M463 373q0 -14 -1.5 -28.5t-3.5 -29.5l-53 -305q-1 -10 -9 -10h-21q-7 0 -6 9l51 297q2 14 4 29.5t2 27.5q0 45 -20 71.5t-77 26.5q-46 0 -93.5 -21.5t-84.5 -54.5l-66 -376q-2 -9 -9 -9h-22q-7 0 -5 9l121 686q1 8 9 10l21 3q9 1 7 -8l-49 -279q30 29 78 50t100 21
q61 0 94 -29.5t33 -89.5z" />
    <glyph glyph-name="i" unicode="i" horiz-adv-x="220" 
d="M87 9q-2 -9 -8 -9h-23q-7 0 -5 9l82 464q2 9 8 9h22q7 0 6 -9zM202 612q0 -13 -9.5 -22t-22.5 -9q-10 0 -16.5 5.5t-6.5 15.5q0 13 9.5 22t22.5 9q10 0 16.5 -5.5t6.5 -15.5z" />
    <glyph glyph-name="j" unicode="j" horiz-adv-x="244" 
d="M111 12q-8 -44 -19.5 -86t-32.5 -74.5t-55 -52t-87 -19.5q-10 0 -18 1t-18 3q-7 1 -5 9l3 13q2 7 9 6q8 -2 17 -3t19 -1q25 0 48.5 9t40.5 27q23 25 36.5 65.5t24.5 98.5l82 465q1 9 8 9h23q7 0 5 -10zM226 612q0 -13 -9.5 -22t-22.5 -9q-22 0 -22 21q0 13 9 22t22 9
q10 0 16.5 -5.5t6.5 -15.5z" />
    <glyph glyph-name="k" unicode="k" horiz-adv-x="403" 
d="M203 290l135 -280q4 -10 -5 -10h-24q-10 0 -14 8l-122 255l-53 -49l-36 -205q-2 -9 -9 -9h-22q-7 0 -5 9l121 685q1 10 10 11l20 3q4 1 6 -2t1 -6l-78 -441l228 217q7 6 14 6h22q6 0 6 -3t-2 -5z" />
    <glyph glyph-name="l" unicode="l" horiz-adv-x="206" 
d="M85 10q-1 -10 -10 -10h-19q-8 0 -7 10l121 684q1 10 9 11l22 3q8 2 6 -7z" />
    <glyph glyph-name="m" unicode="m" horiz-adv-x="812" 
d="M749 374q0 -27 -6 -58l-54 -307q-2 -9 -8 -9h-22q-8 0 -6 9l53 297q3 17 5 33.5t2 30.5q0 42 -23.5 67.5t-80.5 25.5q-17 0 -37 -5.5t-41 -14.5t-41.5 -21.5t-37.5 -25.5q1 -5 1.5 -11.5t0.5 -12.5q0 -7 -1 -17.5t-3 -22.5t-4 -23.5t-3 -20.5l-49 -279q-2 -9 -7 -9h-23
q-8 0 -6 9l53 297q3 15 5 29.5t2 28.5q0 21 -5 39.5t-16.5 31.5t-30.5 20.5t-48 7.5q-41 0 -84.5 -23.5t-81.5 -57.5l-66 -373q-2 -9 -8 -9h-22q-8 0 -6 9l82 464q1 9 9 9h22q6 0 5 -9l-10 -55q49 44 95 59t81 15q36 0 67 -15t47 -54q48 38 94 53.5t83 15.5q64 0 94 -32
t30 -86z" />
    <glyph glyph-name="n" unicode="n" horiz-adv-x="528" 
d="M465 371q0 -25 -6 -55l-54 -308q-1 -8 -8 -8h-23q-7 0 -5 8l52 298q3 17 5 33.5t2 31.5q0 48 -25.5 69.5t-73.5 21.5q-42 0 -89.5 -22t-87.5 -57l-66 -373q-2 -10 -10 -10h-21q-7 0 -5 9l82 464q1 9 7 9h23q4 0 5.5 -3t0.5 -6l-10 -54q39 32 86 52.5t99 20.5
q61 0 91.5 -31.5t30.5 -89.5z" />
    <glyph glyph-name="o" unicode="o" horiz-adv-x="512" 
d="M466 312q0 -57 -16 -114t-48.5 -103t-80.5 -75t-112 -29q-42 0 -73 13t-50.5 36.5t-29 56.5t-9.5 73q0 56 16 113t48 103.5t79.5 76t111.5 29.5q85 0 124.5 -49.5t39.5 -130.5zM426 306q0 32 -6.5 60.5t-21.5 50t-39 34t-60 12.5q-56 0 -96 -27.5t-66 -70.5t-38.5 -94
t-12.5 -98q0 -32 6.5 -60t21.5 -49t39 -33t60 -12q55 0 95 27.5t66 69.5t39 92.5t13 97.5z" />
    <glyph glyph-name="p" unicode="p" horiz-adv-x="522" 
d="M477 309q0 -42 -9.5 -84.5t-27.5 -80.5q-15 -32 -37 -59.5t-49 -48.5t-59 -33t-69 -12q-43 0 -81 19.5t-53 57.5l-47 -264q-1 -10 -8 -10h-21q-8 0 -7 8l119 673q0 7 7 7h22q7 0 7 -7l-11 -61q34 38 79.5 58t93.5 20q39 0 67.5 -14.5t47 -39t27.5 -58t9 -71.5zM438 310
q0 72 -30.5 112t-91.5 40q-23 0 -46.5 -6.5t-46 -18.5t-42.5 -28.5t-35 -36.5l-45 -254q12 -43 44.5 -70.5t77.5 -27.5q55 0 96 27.5t67 70t39 94t13 98.5z" />
    <glyph glyph-name="q" unicode="q" horiz-adv-x="512" 
d="M357 -210q-1 -11 -10 -12l-20 -3q-5 -1 -6.5 2.5t-0.5 6.5l51 281q-33 -35 -78.5 -54.5t-91.5 -19.5q-39 0 -68 14.5t-48 39.5t-28 58.5t-9 72.5q0 54 16 110t48.5 102t80.5 75t112 29q45 0 86.5 -12t72.5 -29q6 -3 6.5 -8t-1.5 -14zM433 430q-20 14 -55 23.5t-70 9.5
q-57 0 -98.5 -27.5t-68.5 -70t-40.5 -93.5t-13.5 -98q0 -67 29.5 -109.5t92.5 -42.5q23 0 46.5 7t45.5 19t42 28t35 34z" />
    <glyph glyph-name="r" unicode="r" horiz-adv-x="289" 
d="M309 468q-2 -6 -8 -6q-5 1 -11 1h-11q-35 0 -68 -25t-61 -64l-64 -365q-2 -9 -9 -9h-22q-7 0 -5 9l82 464q2 9 8 9h21q9 0 7 -9l-11 -59q29 42 67 60t70 18h7t9 -1q6 -2 5 -7z" />
    <glyph glyph-name="s" unicode="s" horiz-adv-x="375" 
d="M347 446q-3 -7 -11 -4q-19 9 -44.5 15.5t-46.5 6.5q-24 0 -46.5 -6.5t-40 -19t-28.5 -32t-11 -45.5q0 -27 15 -43.5t37 -29.5t48.5 -24t48.5 -26t37 -36.5t15 -54.5q0 -38 -16 -67.5t-42.5 -49t-60 -29.5t-67.5 -10q-32 0 -62 9t-47 18q-6 3 -2 11l8 15q3 5 9 2
q23 -12 50 -19.5t50 -7.5q27 0 53 8t46.5 24t33 38t12.5 51t-15 47t-37.5 31.5t-49 24.5t-49 25.5t-37.5 34t-15 50.5q0 33 14.5 59t37.5 44t53 27t60 9q26 0 52 -5t51 -18q4 -2 4 -4t-2 -6z" />
    <glyph glyph-name="t" unicode="t" horiz-adv-x="301" 
d="M302 463q-1 -8 -8 -8h-122l-51 -289q-5 -29 -8 -48.5t-3 -33.5q0 -36 19 -51t55 -15q15 0 30.5 3t26.5 6q2 0 2.5 0.5t1.5 0.5q3 0 3.5 -1.5t1.5 -3.5v-13q0 -5 -6 -7q-14 -5 -34 -8.5t-39 -3.5q-31 0 -53 9.5t-31 23.5q-14 21 -14 54q0 17 3.5 41t7.5 46l52 290h-61
q-8 0 -7 7l2 14q1 6 9 6h62l22 127q1 8 9 9l21 3q9 1 7 -8l-23 -131h122q6 0 5 -6z" />
    <glyph glyph-name="u" unicode="u" horiz-adv-x="515" 
d="M386 9q-2 -9 -8 -9h-23q-4 0 -5 3t0 6l9 54q-31 -28 -76 -50.5t-98 -22.5q-61 0 -91.5 31.5t-30.5 89.5q0 25 6 55l54 308q1 8 7 8h23q8 0 6 -8l-53 -298q-6 -35 -6 -65q0 -48 25.5 -69.5t73.5 -21.5q44 0 88 23.5t79 55.5l66 373q2 10 9 10h21q8 0 6 -9z" />
    <glyph glyph-name="v" unicode="v" horiz-adv-x="419" 
d="M182 5q-2 -5 -6 -5h-21q-5 0 -6 1.5t-2 3.5l-74 468q-2 9 8 9h23q8 0 8 -7l65 -423l208 422q5 8 13 8h20q5 0 5 -3t-2 -6z" />
    <glyph glyph-name="w" unicode="w" horiz-adv-x="663" 
d="M446 4q-1 -4 -7 -4h-23q-6 0 -7 4l-46 427l-198 -427q-1 -4 -7 -4h-21q-5 0 -6 1t-2 3l-51 469q-2 9 7 9h18q10 0 10 -8l43 -431l198 432q2 4 4.5 5.5t8.5 1.5h15q7 0 7 -7l47 -431l197 431q4 7 14 7h17q5 0 4.5 -3t-2.5 -6z" />
    <glyph glyph-name="x" unicode="x" horiz-adv-x="434" 
d="M242 255l107 -244q2 -5 1.5 -8t-7.5 -3h-23q-8 0 -12 8l-92 216l-174 -217q-3 -4 -6 -5.5t-9 -1.5h-20q-6 0 -5 3t3 5l199 244l-95 221q-5 9 7 9h19q9 0 14 -10l80 -189l154 191q7 8 15 8h19q5 0 4 -4t-3 -6z" />
    <glyph glyph-name="y" unicode="y" horiz-adv-x="437" 
d="M174 -59q-23 -45 -45.5 -75.5t-46.5 -49.5t-51.5 -27.5t-61.5 -8.5q-12 0 -27 3q-8 1 -5 10l5 15q1 7 11 5q7 -1 14 -1.5t13 -0.5q42 0 76.5 21t60.5 69l47 84l-85 487q-2 10 7 10h20q7 0 8.5 -2t2.5 -7l73 -440l225 440q5 9 15 9h18q9 0 4 -9z" />
    <glyph glyph-name="z" unicode="z" horiz-adv-x="386" 
d="M389 466l-2.5 -5t-6.5 -10l-328 -424h257q6 0 5 -7l-2 -14q-1 -6 -9 -6h-286q-8 0 -7 7l2 9q1 6 3 9t7 11l324 419h-230q-8 0 -7 8l3 13q1 6 9 6h265q5 0 5 -5z" />
    <glyph glyph-name="ampersand" unicode="&#x26;" horiz-adv-x="665" 
d="M620 403q0 -4 -1 -6q-7 -27 -17 -55.5t-23 -57t-28 -55t-31 -49.5q-12 -17 -24.5 -32.5t-26.5 -30.5q27 -38 57 -61t62 -35q4 -1 4 -4q0 -1 -2 -5l-9 -16q-3 -5 -8 -5q-4 0 -6 1q-42 12 -74 39.5t-52 58.5q-50 -45 -110 -72t-129 -27q-35 0 -64 11t-50 31t-33 48t-12 61
q0 48 19.5 85t50 67t67 55.5t70.5 49.5l-29 50q-14 26 -23.5 49t-9.5 50q0 31 12.5 58t34 47.5t49.5 32.5t58 12q52 0 81.5 -27t29.5 -72q0 -35 -15 -64t-38 -54t-50.5 -46t-53.5 -38l155 -255q13 14 23.5 28t21.5 29q32 46 54.5 97t36.5 100q4 11 11 11h18q4 0 4 -4z
M263 375q-29 -18 -60.5 -41.5t-58.5 -52t-44.5 -62t-17.5 -70.5q0 -29 11 -52.5t29 -40t41.5 -25t48.5 -8.5q61 0 113.5 24.5t97.5 65.5zM419 594q0 35 -20.5 56t-58.5 21q-23 0 -44 -9.5t-36.5 -25t-24.5 -36t-9 -42.5q0 -25 9.5 -50.5t22.5 -47.5l24 -40q22 15 46 33
t44 39.5t33.5 47t13.5 54.5z" />
    <glyph glyph-name="at" unicode="@" horiz-adv-x="802" 
d="M756 459q0 -45 -16.5 -99.5t-46.5 -101.5t-71.5 -79t-92.5 -32q-26 0 -45.5 14t-19.5 46q0 5 0.5 9.5t1.5 9.5t2.5 11.5t3.5 12.5q-31 -47 -67.5 -67.5t-70.5 -20.5q-30 0 -52.5 20t-22.5 70q0 9 1 19.5t3 22.5q7 38 25 76.5t44.5 69t60 50t70.5 19.5q10 0 22 -3.5
t23 -11.5t18.5 -21.5t7.5 -34.5h1l17 46q3 9 9 9h17q4 0 4 -3v-6l-70 -178q-14 -37 -19 -65q-3 -15 -3 -27q0 -43 43 -43q45 0 80.5 29.5t60 73t37.5 92.5t13 88q0 50 -16 90t-45.5 67.5t-72 42.5t-94.5 15q-81 0 -152.5 -36t-124.5 -94.5t-83.5 -133.5t-30.5 -153
q0 -55 17.5 -98.5t50 -74t78.5 -46.5t103 -16q37 0 80.5 11t81.5 30q2 1 6 1t4 -3l2 -11q0 -1 0.5 -2.5t0.5 -2.5q0 -2 -2 -2t-4 -2q-90 -45 -179 -45q-65 0 -117 18.5t-89 52t-56.5 81.5t-19.5 107q0 85 35.5 166t95.5 143.5t139 100.5t166 38q58 0 105.5 -16.5t81.5 -47
t52.5 -75t18.5 -100.5zM520 417q0 65 -57 65q-35 0 -63.5 -20t-49.5 -49t-34 -60.5t-17 -54.5q-4 -19 -4 -38q0 -35 14.5 -52.5t39.5 -17.5q18 0 36 8.5t34.5 22t30.5 31.5t25 36l45 117v12z" />
    <glyph glyph-name="exclam" unicode="!" horiz-adv-x="243" 
d="M105 153q-1 -4 -2 -6t-6 -2h-15q-5 0 -5 4v4l86 527q2 7 8 7h29q7 0 6 -7zM101 32q0 -16 -11.5 -29t-28.5 -13q-12 0 -20.5 8t-8.5 21q0 17 12 28t29 11q12 0 20 -6.5t8 -19.5z" />
    <glyph glyph-name="exclamdown" unicode="&#xa1;" horiz-adv-x="243" 
d="M161 329l-86 -527q-2 -7 -7 -7h-30q-7 0 -6 7l101 527q1 4 2 6t6 2h15q5 0 5 -4v-4zM206 463q0 -17 -12 -28t-29 -11q-12 0 -20 6.5t-8 19.5q0 16 11.5 29t28.5 13q12 0 20.5 -8t8.5 -21z" />
    <glyph glyph-name="question" unicode="?" horiz-adv-x="408" 
d="M397 583q0 -34 -10.5 -62.5t-28 -53t-40 -46.5t-46.5 -42q-21 -18 -41.5 -35.5t-37.5 -38t-29.5 -45t-17.5 -54.5l-2 -11q-2 -5 -4 -6t-6 -1h-15q-5 0 -5 5v2l2 14q6 33 19 59t30 47.5t37 39.5t41 35q22 18 43.5 38t38.5 42.5t27.5 49t10.5 57.5q0 46 -31 68.5t-73 22.5
q-30 0 -61 -10t-54 -22q-4 -2 -5 -2q-4 0 -5 4q-2 5 -4 9.5t-2 6.5q0 5 8 9q28 15 63 25t70 10q54 0 91 -29.5t37 -85.5zM132 30q0 -16 -12.5 -28t-28.5 -12q-13 0 -21 7.5t-8 20.5q0 17 12 28.5t29 11.5q12 0 20.5 -7t8.5 -21z" />
    <glyph glyph-name="questiondown" unicode="&#xbf;" horiz-adv-x="408" 
d="M352 288l-3 -14q-6 -33 -18.5 -59t-29.5 -47.5t-37.5 -39.5t-41.5 -35q-22 -18 -43.5 -38t-38.5 -42.5t-27.5 -49t-10.5 -57.5q0 -23 8.5 -40t23 -28.5t33 -17t39.5 -5.5q30 0 61 10t54 22q4 2 6 2q4 0 5 -4l5 -12q1 -2 1 -4q0 -4 -9 -9q-27 -15 -62.5 -25t-70.5 -10
q-54 0 -90.5 29.5t-36.5 85.5q0 34 10.5 62.5t27.5 53t39.5 46.5t46.5 42q21 18 41.5 35.5t37.5 38t30 45t18 54.5l2 11q1 5 3 6t6 1h15q6 0 6 -5v-2zM404 465q0 -17 -12 -28.5t-29 -11.5q-12 0 -21 7t-9 21q0 16 13 28t29 12q12 0 20.5 -7.5t8.5 -20.5z" />
    <glyph glyph-name="asterisk" unicode="*" horiz-adv-x="313" 
d="M288 599q0 -8 -4 -8t-12 -2l-105 -19l60 -82q6 -8 6 -11q0 -5 -9 -9l-15 -9q-7 -4 -11 -4t-7 11l-34 100l-67 -101q-4 -5 -6 -8.5t-6 -3.5t-9 4l-11 9q-7 6 -7 9t3 5.5t7 6.5l83 82l-96 17q-13 3 -13 7q0 3 3 9l8 15q5 11 10 11q2 0 4.5 -1t6.5 -3l86 -43l6 108
q1 8 2 12.5t12 4.5h16q12 0 12 -6q0 -4 -3 -11l-33 -108l101 45q10 4 12 4q6 0 7 -9l2 -16q1 -2 1 -6z" />
    <glyph glyph-name="period" unicode="." horiz-adv-x="205" 
d="M143 32q0 -16 -11.5 -29t-28.5 -13q-12 0 -20.5 8t-8.5 21q0 17 12 28t29 11q12 0 20 -6.5t8 -19.5z" />
    <glyph glyph-name="comma" unicode="," horiz-adv-x="203" 
d="M159 39q0 -18 -7.5 -37.5t-15.5 -34.5q-25 -44 -65 -75q-4 -4 -7 -4q-2 0 -4 2l-3 6q-1 1 -1 2q0 2 5 7q15 13 28 30.5t17 39.5q1 3 1 9q0 20 -10 32t-10 26q0 16 12 26t27 10q14 0 23.5 -10.5t9.5 -28.5z" />
    <glyph glyph-name="colon" unicode=":" horiz-adv-x="208" 
d="M180 460q0 -17 -12 -29t-29 -12q-12 0 -20.5 7.5t-8.5 20.5q0 17 12.5 29.5t29.5 12.5q12 0 20 -8t8 -21zM105 36q0 -17 -12 -29.5t-29 -12.5q-12 0 -20.5 8t-8.5 21q0 17 12.5 28.5t29.5 11.5q12 0 20 -7t8 -20z" />
    <glyph glyph-name="semicolon" unicode=";" horiz-adv-x="214" 
d="M195 460q0 -17 -12 -29t-29 -12q-12 0 -20.5 7.5t-8.5 20.5q0 17 12.5 29.5t29.5 12.5q12 0 20 -8t8 -21zM125 39q0 -18 -7.5 -37.5t-15.5 -34.5q-25 -44 -65 -75q-4 -4 -7 -4q-1 0 -3 2l-4 6q-1 1 -1 2q0 2 2 3.5t3 3.5q15 13 28.5 30.5t17.5 39.5q0 2 0.5 4.5t0.5 4.5
q0 10 -3.5 17.5t-7 14.5t-7 13t-3.5 13q0 16 12 26t27 10q14 0 23.5 -10.5t9.5 -28.5z" />
    <glyph glyph-name="ellipsis" unicode="&#x2026;" horiz-adv-x="998" 
d="M822 33q0 -17 -13 -31.5t-31 -14.5q-13 0 -22 8.5t-9 22.5q0 19 13 31t32 12q13 0 21.5 -7t8.5 -21zM521 33q0 -17 -13 -31.5t-31 -14.5q-13 0 -22 8.5t-9 22.5q0 19 13 31t32 12q13 0 21.5 -7t8.5 -21zM222 33q0 -17 -13 -31.5t-31 -14.5q-13 0 -22 8.5t-9 22.5
q0 19 13 31t32 12q13 0 21.5 -7t8.5 -21z" />
    <glyph glyph-name="periodcentered" unicode="&#xb7;" horiz-adv-x="210" 
d="M146 302q0 -17 -13 -31.5t-31 -14.5q-13 0 -22 8.5t-9 22.5q0 19 13 31t32 12q13 0 21.5 -7t8.5 -21z" />
    <glyph glyph-name="uni22C5" unicode="&#x22c5;" horiz-adv-x="210" 
d="M146 302q0 -17 -13 -31.5t-31 -14.5q-13 0 -22 8.5t-9 22.5q0 19 13 31t32 12q13 0 21.5 -7t8.5 -21z" />
    <glyph glyph-name="bullet" unicode="&#x2022;" horiz-adv-x="464" 
d="M385 295q0 -36 -14.5 -69.5t-39.5 -59.5t-57.5 -41.5t-68.5 -15.5q-28 0 -51 10t-39.5 27t-26 41t-9.5 51q0 35 15 68.5t40 59.5t58 42t69 16q56 0 90 -37t34 -92z" />
    <glyph glyph-name="slash" unicode="/" horiz-adv-x="327" 
d="M34 1q-3 -7 -6 -8.5t-8 -1.5h-17q-6 0 -6 3t2 6l312 690q3 8 8 8h21q4 0 4.5 -3.5t-0.5 -5.5z" />
    <glyph glyph-name="parenleft" unicode="(" horiz-adv-x="325" 
d="M313 699q0 -2 -5 -7q-45 -54 -81.5 -115t-63 -126.5t-41 -135t-14.5 -140.5q0 -75 16.5 -145t46.5 -135q4 -8 -3 -11l-14 -7q-7 -4 -10 2q-35 70 -54 143t-19 154q0 75 15.5 145.5t44 136.5t68 127t87.5 118q6 7 10 7q1 0 5 -2.5t8 -4.5q4 -3 4 -4z" />
    <glyph glyph-name="brokenbar" unicode="&#xa6;" horiz-adv-x="194" 
d="M136 468q-2 -9 -8 -9h-19q-7 0 -5 9l41 231q1 9 7 9h20q6 0 5 -9zM51 -10q-2 -9 -7 -9h-19q-8 0 -6 9l41 231q1 9 8 9h20q5 0 4 -9z" />
    <glyph glyph-name="parenright" unicode=")" horiz-adv-x="325" 
d="M256 411q0 -76 -16 -147t-45 -137.5t-69.5 -128.5t-89.5 -119q-4 -4 -6 -4l-2 1l-12 8q-4 3 -4 5q0 3 3 6q94 113 149 244.5t55 279.5q0 75 -16 142.5t-45 130.5q-1 2 -1 6q0 3 3 5l14 6q2 1 4 1t6 -7q34 -69 53 -140.5t19 -151.5z" />
    <glyph glyph-name="bracketleft" unicode="[" horiz-adv-x="290" 
d="M330 679q-1 -8 -10 -8h-113l-138 -788h113q7 0 6 -6l-2 -13q-1 -8 -9 -8h-139q-6 0 -8 2t0 10l144 819q2 8 4.5 9.5t7.5 1.5h139q8 0 7 -7z" />
    <glyph glyph-name="backslash" unicode="\" horiz-adv-x="349" 
d="M267 -4q1 -3 0 -6t-5 -3h-19q-5 0 -6 2t-2 6l-145 696q-2 12 8 12h15q6 0 7.5 -2t2.5 -8z" />
    <glyph glyph-name="bracketright" unicode="]" horiz-adv-x="291" 
d="M118 -133q-2 -8 -4.5 -9.5t-7.5 -1.5h-140q-8 0 -7 7l2 12q1 8 10 8h114l138 788h-114q-7 0 -6 6l2 13q1 8 9 8h140q6 0 8 -2t0 -10z" />
    <glyph glyph-name="braceleft" unicode="{" horiz-adv-x="313" 
d="M340 676q-1 -5 -8 -5h-50q-24 0 -41.5 -11t-29 -26.5t-17.5 -32.5t-9 -30l-26 -138q-6 -31 -14 -57.5t-19 -46t-25 -31.5t-33 -13v-1q36 -3 43 -40.5t-5 -112.5l-22 -132q-2 -12 -1.5 -29.5t6.5 -33t19.5 -26.5t37.5 -11h47q10 0 8 -7l-1 -13q0 -7 -6 -7h-46
q-54 0 -81 30t-17 96l25 156q8 55 3 85t-34 35q-10 1 -8 6l1 7q2 7 9 8q32 6 48.5 37.5t25.5 76.5l31 163q13 65 52.5 95.5t90.5 30.5h46q6 0 5 -5z" />
    <glyph glyph-name="bar" unicode="|" horiz-adv-x="194" 
d="M114 -10q0 -9 -6 -9h-19q-7 0 -7 9v709q0 9 6 9h20q6 0 6 -9v-709z" />
    <glyph glyph-name="braceright" unicode="}" horiz-adv-x="313" 
d="M276 280q0 -5 -10 -6q-32 -5 -47 -35t-26 -85l-31 -156q-13 -66 -50.5 -96t-91.5 -30h-46q-5 0 -4 5l5 19q1 2 2.5 2.5t7.5 0.5h47q24 0 41 11t28.5 26.5t18 32.5t9.5 30l25 132q14 75 34 112.5t58 40.5v1q-18 1 -28 13t-14 31.5t-3 46t6 57.5l22 138q2 13 2 30t-6 32.5
t-19.5 26.5t-37.5 11h-50q-6 0 -6 5l1 17q0 5 7 5h46q50 0 79 -31t19 -95l-26 -163q-8 -45 -2 -76.5t36 -37.5q7 -1 5 -8z" />
    <glyph glyph-name="hyphen" unicode="-" horiz-adv-x="280" 
d="M217 268l-3 -17q-1 -8 -12 -8h-128q-10 0 -10 7q0 1 0.5 1.5t0.5 1.5l3 16q0 8 11 8h124q5 0 9.5 -1t4.5 -6v-2z" />
    <glyph glyph-name="uni00AD" unicode="&#xad;" horiz-adv-x="280" 
d="M217 268l-3 -17q-1 -8 -12 -8h-128q-10 0 -10 7q0 1 0.5 1.5t0.5 1.5l3 16q0 8 11 8h124q5 0 9.5 -1t4.5 -6v-2z" />
    <glyph glyph-name="endash" unicode="&#x2013;" horiz-adv-x="515" 
d="M506 253q0 -7 -9 -7h-485q-6 0 -6 7l4 18q0 7 8 7h485q8 0 7 -7z" />
    <glyph glyph-name="emdash" unicode="&#x2014;" horiz-adv-x="1015" 
d="M1006 253q0 -7 -9 -7h-985q-6 0 -6 7l4 18q0 7 8 7h985q8 0 7 -7z" />
    <glyph glyph-name="underscore" unicode="_" horiz-adv-x="502" 
d="M484 -108q-1 -6 -4.5 -7.5t-8.5 -1.5h-445q-10 0 -9 10l3 16q0 8 11 8h444q12 0 11 -9z" />
    <glyph glyph-name="dagger" unicode="&#x2020;" horiz-adv-x="511" 
d="M445 407q0 -3 -3 -4.5t-6 -1.5l-152 3l-74 -396q-1 -8 -9 -8h-13q-5 0 -4 8l66 396l-154 -3q-8 0 -6 6l3 18q1 7 10 7l151 -3l42 248q1 10 9 10h23q7 0 6 -10l-46 -248l154 3q7 0 7 -6z" />
    <glyph glyph-name="daggerdbl" unicode="&#x2021;" horiz-adv-x="511" 
d="M454 458q-2 -6 -9 -6l-152 3l-29 -156l154 3q3 0 5.5 -2t1.5 -4l-3 -19q-2 -6 -9 -6l-154 3l-49 -266q-1 -8 -8 -8h-13q-6 0 -5 8l44 266l-155 -3q-8 0 -6 6l3 18q1 7 9 7l154 -3l26 156l-154 -3q-8 0 -6 6l3 18q1 7 9 7l152 -3l33 197q2 10 9 10h23q7 0 6 -10l-37 -197
l153 3q3 0 5.5 -2t1.5 -4z" />
    <glyph glyph-name="section" unicode="&#xa7;" horiz-adv-x="463" 
d="M410 670q0 -3 -1 -5l-7 -13q-2 -5 -7 -5q-2 0 -3 1q-20 9 -45 15.5t-47 6.5q-24 0 -46 -6.5t-39.5 -19t-28 -32t-10.5 -45.5q0 -30 17.5 -47t43.5 -30l59 -29q32 -17 56.5 -43.5t24.5 -64.5t-21 -72t-53 -54q17 -15 27.5 -35t10.5 -45q0 -38 -16.5 -67t-43 -48.5
t-59.5 -30t-67 -10.5q-33 0 -62 9t-47 18q-4 3 -4 5q0 1 2 5l8 15q1 4 6 4q2 0 3 -1q23 -12 50 -19.5t51 -7.5q27 0 53 8t46 23t32.5 37.5t12.5 52.5q0 26 -14 46q-14 19 -27.5 27t-33.5 18l-54 26q-35 17 -54.5 40.5t-19.5 55.5q0 42 24.5 74t61.5 49q-50 33 -50 83
q0 33 14.5 59t38 44t53 27t59.5 9q26 0 51.5 -5t50.5 -18q4 -1 4 -5zM342 346q0 35 -22.5 56t-53.5 35l-45 21q-36 -10 -58.5 -34.5t-22.5 -62.5q0 -31 18 -48t46 -31l56 -27q11 -5 19 -10q29 16 46 42.5t17 58.5z" />
    <glyph glyph-name="paragraph" unicode="&#xb6;" horiz-adv-x="508" 
d="M335 -132q-2 -9 -8 -9h-23q-8 0 -6 9l140 798h-106l-140 -798q-2 -9 -8 -9h-22q-8 0 -6 9l92 526q-64 1 -99 34.5t-35 85.5q0 33 13.5 64t36 55t52.5 39t63 15h192q8 0 6 -9z" />
    <glyph glyph-name="registered" unicode="&#xae;" horiz-adv-x="815" 
d="M763 411q0 -81 -35 -155.5t-92.5 -131.5t-133 -90.5t-156.5 -33.5q-63 0 -116.5 21.5t-92.5 59.5t-61.5 91.5t-22.5 116.5q0 81 35 155.5t92.5 131.5t133 90.5t156.5 33.5q63 0 116.5 -21.5t92.5 -59.5t61.5 -91.5t22.5 -116.5zM734 406q0 58 -20.5 106.5t-56.5 84
t-85.5 55t-106.5 19.5q-74 0 -143.5 -31t-122.5 -83t-85 -120t-32 -143q0 -58 20.5 -106.5t56.5 -84t85.5 -55t106.5 -19.5q74 0 143 31t122.5 83t85.5 120t32 143zM550 466q0 -55 -30 -92t-84 -52l66 -178q1 -2 1 -4.5t-5 -2.5h-21q-4 0 -7 6l-61 176h-72l-32 -177
q0 -5 -5 -5h-20q-3 0 -3 5l71 402q1 6 7 6h81q54 0 84 -20.5t30 -63.5zM522 461q0 39 -26 54t-71 15h-51l-34 -191h59q27 0 50 9t39.5 25t25 38.5t8.5 49.5z" />
    <glyph glyph-name="copyright" unicode="&#xa9;" horiz-adv-x="815" 
d="M763 411q0 -81 -35 -155.5t-92.5 -131.5t-133 -90.5t-156.5 -33.5q-63 0 -116.5 21.5t-92.5 59.5t-61.5 91.5t-22.5 116.5q0 81 35 155.5t92.5 131.5t133 90.5t156.5 33.5q63 0 116.5 -21.5t92.5 -59.5t61.5 -91.5t22.5 -116.5zM734 406q0 58 -20.5 106.5t-56.5 84
t-85.5 55t-106.5 19.5q-74 0 -143.5 -31t-122.5 -83t-85 -120t-32 -143q0 -58 20.5 -106.5t56.5 -84t85.5 -55t106.5 -19.5q74 0 143 31t122.5 83t85.5 120t32 143zM552 511q-2 -5 -6 -2q-33 24 -80 24t-82.5 -23t-59 -58t-35 -78.5t-11.5 -83.5q0 -26 6.5 -50t20.5 -42.5
t36 -30t54 -11.5q23 0 48 6t48 17q2 1 4 1t2 -3l3 -13q1 -4 -5 -7q-26 -13 -53.5 -19t-54.5 -6q-37 0 -63.5 12.5t-43.5 34.5t-25 51t-8 62q0 45 15 92t42.5 85.5t67.5 63t91 24.5q26 0 51.5 -6t45.5 -20q3 -3 1 -6z" />
    <glyph glyph-name="trademark" unicode="&#x2122;" horiz-adv-x="625" 
d="M560 362q-1 -2 -1.5 -3.5t-3.5 -1.5h-18q-4 0 -3 6l36 265h-1l-152 -267q-4 -4 -7 -4h-14q-4 0 -4 4l-64 267h-1l-56 -267q-1 -4 -5 -4h-18q-3 0 -3 3l69 321q1 6 7 6h13q5 0 6 -5l70 -288h2l166 290q1 3 5 3h17q4 0 4 -3zM294 667q-1 -3 -8 -3h-110l-53 -303
q-2 -4 -6 -4h-18q-5 0 -4 4l53 303h-111q-5 0 -3 3l3 17q0 3 4 3h253q4 0 4 -3z" />
    <glyph glyph-name="quotedblleft" unicode="&#x201c;" horiz-adv-x="319" 
d="M306 690q0 -2 -2 -3.5t-3 -3.5q-15 -13 -28 -30.5t-18 -39.5q0 -2 -0.5 -4.5t-0.5 -4.5q0 -10 3.5 -17.5t7 -14l7 -13t3.5 -13.5q0 -16 -12 -26t-27 -10q-14 0 -23.5 10.5t-9.5 28.5t7.5 37.5t15.5 34.5q25 44 65 75q4 4 7 4q1 0 3 -2l4 -6q1 -1 1 -2zM168 690
q0 -2 -2 -3.5t-3 -3.5q-15 -13 -28 -30.5t-18 -39.5q0 -2 -0.5 -4.5t-0.5 -4.5q0 -10 3.5 -17.5t7 -14l7 -13t3.5 -13.5q0 -16 -12 -26t-27 -10q-14 0 -23.5 10.5t-9.5 28.5t7.5 37.5t15.5 34.5q25 44 65 75q4 4 7 4q1 0 3 -2l4 -6q1 -1 1 -2z" />
    <glyph glyph-name="quotedblright" unicode="&#x201d;" horiz-adv-x="319" 
d="M302 659q0 -18 -7.5 -37.5t-15.5 -34.5q-25 -44 -65 -75q-4 -4 -7 -4q-2 0 -4 2l-3 6q-1 1 -1 2q0 2 1.5 3.5l3.5 3.5q15 13 28 30.5t17 39.5q1 3 1 9q0 20 -10 32t-10 26q0 16 12 26t27 10q14 0 23.5 -10.5t9.5 -28.5zM164 659q0 -18 -7.5 -37.5t-15.5 -34.5
q-25 -44 -65 -75q-4 -4 -7 -4q-2 0 -4 2l-3 6q-1 1 -1 2q0 2 1.5 3.5l3.5 3.5q15 13 28 30.5t17 39.5q1 3 1 9q0 20 -10 32t-10 26q0 16 12 26t27 10q14 0 23.5 -10.5t9.5 -28.5z" />
    <glyph glyph-name="quoteleft" unicode="&#x2018;" horiz-adv-x="292" 
d="M271 690q0 -2 -2 -3.5t-3 -3.5q-15 -13 -28 -30.5t-18 -39.5q0 -2 -0.5 -4.5t-0.5 -4.5q0 -10 3.5 -17.5t7 -14l7 -13t3.5 -13.5q0 -16 -12 -26t-27 -10q-14 0 -23.5 10.5t-9.5 28.5t7.5 37.5t15.5 34.5q25 44 65 75q4 4 7 4q1 0 3 -2l4 -6q1 -1 1 -2z" />
    <glyph glyph-name="quoteright" unicode="&#x2019;" horiz-adv-x="292" 
d="M238 659q0 -18 -7.5 -37.5t-15.5 -34.5q-25 -44 -65 -75q-4 -4 -7 -4q-2 0 -4 2l-3 6q-1 1 -1 2q0 2 1.5 3.5l3.5 3.5q15 13 28 30.5t17 39.5q1 3 1 9q0 20 -10 32t-10 26q0 16 12 26t27 10q14 0 23.5 -10.5t9.5 -28.5z" />
    <glyph glyph-name="guillemotleft" unicode="&#xab;" horiz-adv-x="460" 
d="M140 229l54 -157q2 -6 -2 -9l-6 -4q-7 -4 -10 3l-78 157q-2 4 -0.5 9t4.5 8l132 153q5 5 9 2l6 -3q4 -3 0 -9zM296 229l54 -157q3 -7 -1 -9l-7 -4q-7 -4 -9 3l-79 157q-2 4 0 9t4 8l132 153q5 5 10 2l5 -3q4 -3 0 -9z" />
    <glyph glyph-name="guillemotright" unicode="&#xbb;" horiz-adv-x="460" 
d="M365 224q0 -5 -5 -10l-132 -153q-4 -6 -9 -2l-5 3q-5 3 -1 9l110 150l-55 157q-1 7 2 9l7 4q6 3 9 -3l78 -157q2 -3 1 -7zM204 214l-132 -153q-5 -5 -9 -2l-6 3q-5 3 0 9l109 150l-54 157q-2 6 2 9l6 4q7 4 10 -3l78 -157q1 -1 1 -7z" />
    <glyph glyph-name="guilsinglleft" unicode="&#x2039;" horiz-adv-x="304" 
d="M140 229l54 -157q2 -6 -2 -9l-6 -4q-7 -4 -10 3l-78 157q-2 4 -0.5 9t4.5 8l132 153q5 5 9 2l6 -3q4 -3 0 -9z" />
    <glyph glyph-name="guilsinglright" unicode="&#x203a;" horiz-adv-x="304" 
d="M208 224q-1 -2 -2 -5t-3 -5l-132 -153q-5 -5 -9 -2l-6 3q-4 4 0 9l109 150l-54 157q-2 6 2 9l6 4q7 3 10 -3l78 -157q2 -3 1 -7z" />
    <glyph glyph-name="quotesinglbase" unicode="&#x201a;" horiz-adv-x="203" 
d="M159 39q0 -18 -7.5 -37.5t-15.5 -34.5q-25 -44 -65 -75q-4 -4 -7 -4q-1 0 -3 2l-4 6q-1 1 -1 2q0 2 5 7q15 13 28 30.5t18 39.5v9q0 20 -10 32t-10 26q0 16 12 26t27 10q14 0 23.5 -10.5t9.5 -28.5z" />
    <glyph glyph-name="quotedblbase" unicode="&#x201e;" horiz-adv-x="319" 
d="M288 39q0 -18 -7.5 -37.5t-15.5 -34.5q-25 -44 -65 -75q-4 -4 -7 -4q-1 0 -3 2l-4 6q-1 1 -1 2q0 2 1.5 3.5l3.5 3.5q15 13 28 30.5t18 39.5v9q0 20 -10 32t-10 26q0 16 12 26t27 10q14 0 23.5 -10.5t9.5 -28.5zM150 39q0 -18 -7.5 -37.5t-15.5 -34.5q-25 -44 -65 -75
q-4 -4 -7 -4q-1 0 -3 2l-4 6q-1 1 -1 2q0 2 5 7q15 13 28 30.5t18 39.5v9q0 20 -10 32t-10 26q0 16 12 26t27 10q14 0 23.5 -10.5t9.5 -28.5z" />
    <glyph glyph-name="ordfeminine" unicode="&#xaa;" horiz-adv-x="310" 
d="M263 631q0 -9 -1.5 -19.5t-3.5 -22.5l-30 -174q-2 -8 -3.5 -10t-4.5 -2h-17q-6 0 -6 5v6l4 21q-7 -7 -18 -14t-23.5 -12t-25.5 -8.5t-25 -3.5q-34 0 -52.5 18t-18.5 46q0 10 1 15q6 31 25 51t46 30.5t57.5 14.5t58.5 4l5 27q1 5 1.5 9.5t0.5 9.5q0 21 -11 36.5t-37 15.5
q-17 0 -40 -5t-43 -15q-4 -2 -6.5 -3t-4.5 -1q-3 0 -3 3l-4 10v2q0 5 8 9q23 13 50.5 18.5t46.5 5.5q42 0 58 -17.5t16 -49.5zM221 555q-18 0 -42 -2t-46 -9.5t-39 -22.5t-21 -40q0 -3 -0.5 -6t-0.5 -6q0 -23 14.5 -34.5t34.5 -11.5q22 0 44 11t39 25z" />
    <glyph glyph-name="ordmasculine" unicode="&#xba;" horiz-adv-x="335" 
d="M292 585q0 -33 -9 -67t-27 -61.5t-46 -45.5t-66 -18q-53 0 -76 32.5t-23 77.5q0 32 9.5 66.5t28.5 63t47 47t65 18.5q26 0 44.5 -9.5t30 -25t17 -36t5.5 -42.5zM260 585q0 17 -3 33.5t-11 29t-21 20t-32 7.5q-30 0 -52 -17.5t-36 -43.5t-21 -55.5t-7 -54.5q0 -17 3 -33
t10.5 -28.5t21 -20t33.5 -7.5q31 0 52.5 17t35.5 42.5t20.5 55.5t6.5 55z" />
    <glyph glyph-name="zero" unicode="0" 
d="M542 346q-10 -56 -31 -118t-54 -115t-80 -87.5t-108 -34.5q-45 0 -75 19t-48 50.5t-25.5 73t-7.5 85.5q0 64 11 125q6 37 17.5 77.5t28.5 80t39 75t50 62.5t62.5 43t75.5 16q45 0 75 -19t48 -50.5t25.5 -73t7.5 -85.5q0 -63 -11 -124zM500 345q5 25 8 55.5t3 62.5
q0 37 -5.5 73.5t-19.5 65t-37 46t-59 17.5q-34 0 -62.5 -16t-52 -42.5t-42 -60.5t-32 -69.5t-22.5 -70t-14 -61.5q-5 -24 -7.5 -54t-2.5 -62q0 -38 5.5 -74.5t19 -65t37.5 -46.5t60 -18q51 0 89.5 34.5t66 84.5t44 105t23.5 96z" />
    <glyph glyph-name="one" unicode="1" 
d="M387 676l-118 -665q-1 -11 -11 -11h-18q-7 0 -7 6v4l113 638l-165 -103q-4 -2 -8 -2t-4 2l-8 15v2q0 6 6 10l174 109q5 4 9.5 5t15.5 1h15q6 0 6 -7v-4z" />
    <glyph glyph-name="two" unicode="2" 
d="M490 559q0 -17 -3 -35q-6 -34 -20.5 -68t-40.5 -72t-67 -83t-99 -100q-39 -37 -84 -78t-100 -89h318q9 0 9 -5v-3l-3 -16q-1 -10 -14 -10h-354q-6 0 -6 5v3l3 18q1 8 8 15q25 24 56.5 51.5t65 58t68.5 63t67 66.5q57 60 99 121t52 118q3 15 3 29q0 54 -35 85t-89 31
q-36 0 -71.5 -10.5t-70.5 -28.5l-4 -2t-4 -1q-3 0 -4 4l-5 17v2q0 5 7 9q38 23 82 33.5t86 10.5q32 0 59.5 -9.5t47.5 -27t31.5 -43.5t11.5 -59z" />
    <glyph glyph-name="three" unicode="3" 
d="M467 566q0 -17 -3 -35q-5 -25 -16 -50t-28.5 -46.5t-42.5 -38t-56 -23.5v-1q53 -11 81.5 -50.5t28.5 -93.5q0 -18 -3 -37q-8 -45 -30 -82t-53.5 -63t-71 -40.5t-81.5 -14.5q-37 0 -73.5 6t-65.5 22q-6 3 -6 7q0 1 2 5l9 19q2 5 7 5q2 0 8 -3q29 -13 57.5 -19.5t60.5 -6.5
q36 0 68 11t58 32t44 51.5t25 69.5q3 19 3 36q0 65 -42.5 97t-108.5 32h-24q-8 0 -7 7l3 18q1 7 8 7h17q35 0 66.5 8t56.5 25t42 44.5t24 65.5q2 8 2 15v14q0 54 -36 80t-89 26q-26 0 -58.5 -6.5t-61.5 -20.5q-4 -2 -7 -3t-5 4l-5 17q-2 5 1.5 7t8.5 5q34 17 68.5 23.5
t70.5 6.5q69 0 111.5 -34t42.5 -98z" />
    <glyph glyph-name="four" unicode="4" 
d="M385 174l-29 -167q-1 -7 -8 -7h-21q-5 0 -6 1.5t0 5.5l29 167h-296q-10 0 -9 8l2 12q2 11 5 17t10 17l268 451q5 8 13 8h24q6 0 6 -3q0 -2 -1 -3.5t-2 -3.5l-281 -471h267l29 164q1 9 9 9h19q4 0 6 -1.5t1 -7.5l-29 -164h92q8 0 7 -8l-3 -18q-1 -6 -9 -6h-93z" />
    <glyph glyph-name="five" unicode="5" 
d="M479 687q8 0 7 -7l-3 -20q-1 -6 -9 -6h-249l-43 -243h52q44 0 82 -9.5t66 -30t44 -52t16 -74.5q0 -11 -1.5 -22.5t-3.5 -23.5q-9 -49 -32 -87.5t-57 -65.5t-76.5 -41t-89.5 -14q-33 0 -66.5 8.5t-62.5 25.5q-5 2 -5 6q0 2 2 6l10 18q3 5 6 5q1 0 5 -2q31 -17 60 -24.5
t64 -7.5q32 0 64.5 10t60.5 31t48 53t28 76q2 12 3 23t1 21q0 43 -16.5 70t-44 42t-63 20.5t-74.5 5.5h-49q-10 0 -11 2.5t0 8.5l51 290q1 8 9 8h277v0z" />
    <glyph glyph-name="six" unicode="6" 
d="M395 665q-36 0 -66.5 -13t-56.5 -35t-47.5 -51t-38.5 -62q-11 -21 -20.5 -45t-17.5 -47t-13.5 -43t-8.5 -34q19 20 43.5 35t49 24.5t48.5 14.5t42 5q63 0 102 -39t39 -111q0 -20 -5 -48q-8 -48 -28.5 -89.5t-49.5 -71.5t-66.5 -47t-79.5 -17t-71.5 13.5t-48 38.5t-27 60
t-8.5 77q0 25 2.5 52t7.5 56q7 41 20 87t32 91.5t45 87.5t60 74t76.5 51t94.5 19q15 0 32.5 -2t29.5 -6q9 -3 7 -11l-5 -17q-2 -8 -10 -6q-16 4 -32.5 6.5t-30.5 2.5zM410 253q0 25 -6 48t-18.5 41t-33 29t-49.5 11q-95 0 -185 -84q-5 -27 -8.5 -57.5t-3.5 -60.5
q0 -31 5.5 -60t19 -51t37 -35t59.5 -13q41 0 72 19t53.5 47.5t35.5 61.5t18 60q4 19 4 44z" />
    <glyph glyph-name="seven" unicode="7" 
d="M520 687q10 0 8 -7l-2 -12q-2 -9 -4 -15.5t-10 -17.5l-377 -627q-5 -8 -12 -8h-28q-5 0 -5 3q0 2 1 3.5t2 3.5l391 644h-307q-9 0 -8 7l3 19q1 7 9 7h339v0z" />
    <glyph glyph-name="eight" unicode="8" 
d="M475 571q0 -39 -14.5 -68t-38.5 -52t-53.5 -41.5t-59.5 -34.5q38 -19 64 -40t41.5 -43t22 -45t6.5 -45q0 -49 -20 -88t-53 -66.5t-76 -42t-89 -14.5q-75 0 -120 36.5t-45 105.5q0 45 17.5 81t46 64.5t64.5 50t73 38.5q-60 30 -85.5 70t-25.5 84q0 42 17 74.5t45.5 55.5
t65 35t75.5 12q66 0 104 -34.5t38 -92.5zM434 568q0 46 -28.5 72t-80.5 26q-31 0 -59 -9.5t-49 -27.5t-33.5 -43.5t-12.5 -57.5q0 -27 10 -48t26 -38t34.5 -30t36.5 -22q27 15 55 31t50.5 37t36.5 47.5t14 62.5zM402 199q0 30 -11 53t-29.5 41t-42.5 32.5t-49 26.5
q-32 -17 -65.5 -36t-60.5 -44t-44.5 -56.5t-17.5 -73.5q0 -31 11.5 -53.5t30 -37t42 -21.5t47.5 -7q39 0 73 12.5t60 35.5t41 55.5t15 72.5z" />
    <glyph glyph-name="nine" unicode="9" 
d="M480 509q0 -25 -2.5 -52t-7.5 -56q-7 -41 -20 -87t-32 -91.5t-45 -87.5t-60 -74t-76.5 -51t-94.5 -19q-15 0 -32.5 2.5t-29.5 5.5q-3 1 -6.5 3.5t-1.5 7.5l6 17q3 7 10 6q16 -4 32.5 -6.5t30.5 -2.5q36 0 66.5 13t56.5 35t47.5 51t38.5 62q11 21 20.5 45t17.5 47t13.5 43
t8.5 34q-20 -20 -44 -35t-48.5 -25t-48.5 -14.5t-42 -4.5q-63 0 -102 39t-39 111q0 48 16 96.5t46 87.5t72 64t95 25q42 0 71.5 -13.5t48 -38.5t27 -60t8.5 -77zM440 509q0 31 -5.5 60t-19 51t-37 35t-59.5 13q-42 0 -76 -22t-58 -56t-36.5 -75t-12.5 -79q0 -25 5.5 -48
t18.5 -41t33.5 -29t49.5 -11q95 0 185 84q5 27 8.5 57.5t3.5 60.5z" />
    <glyph glyph-name="dollar" unicode="$" 
d="M488 665q0 -1 -2 -5l-7 -16q-3 -5 -6 -5t-7 2q-26 12 -54 18t-57 7l-51 -290l36 -24q43 -29 71 -62.5t28 -83.5q0 -44 -15.5 -81t-43 -64.5t-64.5 -45t-79 -22.5l-15 -84q-1 -10 -10 -10h-9q-8 0 -8 6q0 1 0.5 1.5t0.5 2.5l14 82h-12q-33 0 -68 5.5t-68 17.5q-7 3 -7 7
q0 5 2 9l8 16q3 7 7 7q3 0 5 -1q30 -12 65.5 -19t64.5 -7h10l56 319l-62 41q-35 23 -54 54.5t-19 69.5q0 40 16.5 73.5t44 57.5t63 38.5t73.5 17.5l15 85q1 6 3.5 7.5t6.5 1.5h10q8 0 6 -8l-15 -85q35 -1 64 -6.5t58 -19.5q5 -3 5 -7zM398 194q0 43 -23.5 71.5t-55.5 48.5
l-23 15l-53 -300q32 5 60.5 18.5t49.5 34.5t33 49.5t12 62.5zM329 665q-30 -3 -56.5 -14.5t-46.5 -30t-32 -44t-12 -56.5q0 -39 19.5 -63t47.5 -43l32 -22z" />
    <glyph glyph-name="cent" unicode="&#xa2;" 
d="M477 457q0 -2 -1 -3l-9 -16q-1 -4 -5 -4q-3 0 -4 1q-21 11 -45 19t-53 8h-8l-77 -441h6q29 0 57.5 7t52.5 16q1 1 4 1q5 0 5 -4l3 -14v-1q0 -5 -10 -9q-29 -13 -59.5 -19.5t-58.5 -6.5h-6l-14 -79q-1 -10 -9 -10h-9q-8 0 -8 6v4l15 81q-75 8 -109.5 55t-34.5 122
q0 53 14.5 107t43.5 98.5t72 75.5t101 39l15 86q3 11 10 11h10q7 0 7 -7v-3l-15 -85h8q28 0 57 -8t49 -20l3.5 -3.5t1.5 -3.5zM326 459q-48 -9 -83.5 -37t-59 -67.5t-34.5 -85.5t-11 -90q0 -29 6 -55.5t19 -47.5t34.5 -35t51.5 -18z" />
    <glyph glyph-name="Euro" unicode="&#x20ac;" 
d="M570 627q-2 -2 -5 -3.5t-6 0.5q-57 40 -133 40q-60 0 -105.5 -24t-79 -63.5t-56 -90t-34.5 -102.5h287q9 0 7 -7l-6 -14q-3 -7 -9 -7h-285q-4 -20 -6 -35t-3 -29h246q9 0 7 -7l-6 -14q-3 -7 -9 -7h-240q-1 -8 -1 -15v-14q0 -44 8.5 -82t29.5 -66.5t55.5 -45t86.5 -16.5
q38 0 77 10.5t77 28.5q2 2 5.5 1.5t4.5 -4.5l3 -18q1 -5 -1 -7.5t-7 -4.5q-45 -21 -85.5 -30.5t-86.5 -9.5q-58 0 -99 18t-66.5 50.5t-37 76.5t-11.5 97v15.5t1 15.5h-88q-7 0 -6 7l3 14q2 7 8 7h85q1 12 2.5 26t6.5 38h-70q-7 0 -6 7l3 14q2 7 8 7h71q15 63 43.5 120
t69 100t93 68.5t117.5 25.5q45 0 83 -10t70 -33q6 -4 2 -9z" />
    <glyph glyph-name="florin" unicode="&#x192;" 
d="M605 666q-2 -7 -11 -4q-11 3 -27.5 6t-31.5 3q-34 0 -59.5 -13.5t-44.5 -35.5t-32.5 -50t-23.5 -56l-51 -144h131l-8 -24h-132l-109 -310q-14 -39 -31 -77t-42 -69t-59 -50t-82 -19q-3 0 -11.5 0.5t-18 2l-19 3t-15.5 4.5q-7 3 -3 9l7 14q2 6 12 3q8 -2 24 -5.5t30 -3.5
q34 0 60 13.5t45.5 35t33.5 49t24 56.5l120 344h-62l10 24h61l38 109q8 20 14.5 41t15.5 41q14 30 31.5 54.5t39.5 42.5t49.5 28t62.5 10q3 0 11.5 -0.5t18 -1.5t19.5 -3t16 -4q7 -3 4 -10z" />
    <glyph glyph-name="sterling" unicode="&#xa3;" 
d="M175 340h-59q-8 0 -7 7l3 15q3 8 10 8h59l21 120q16 96 66.5 152t137.5 56q24 0 51 -4t50 -15q7 -3 4 -10l-5 -16q-3 -9 -12 -5q-23 9 -48 14t-46 5q-37 0 -63.5 -15t-45.5 -39t-30 -55t-17 -63l-22 -125h168q9 0 7 -8l-3 -15q-1 -7 -9 -7h-170l-21 -119
q-5 -28 -11.5 -55.5t-17.5 -52.5t-27.5 -46t-41.5 -34v-1h310q11 0 9 -8l-3 -16q-1 -8 -12 -8h-364q-8 0 -6 8l2 12q1 6 12 11q48 25 72.5 69t33.5 97z" />
    <glyph glyph-name="yen" unicode="&#xa5;" 
d="M297 289h101q8 0 7 -7l-2 -14q-1 -7 -10 -7h-112l-11 -64h112q8 0 7 -7l-3 -14q0 -7 -9 -7h-112l-27 -157q-3 -12 -13 -12h-18q-8 0 -9.5 2.5t-0.5 8.5l28 158h-113q-6 0 -6 7l3 14q2 7 8 7h113l11 64h-113q-6 0 -5 7l2 14q2 7 8 7h101l-119 386q-3 12 11 12h17
q8 0 10.5 -2t4.5 -7l112 -374h1l233 371q5 8 8.5 10t9.5 2h19q11 0 5 -8z" />
    <glyph glyph-name="numbersign" unicode="#" horiz-adv-x="558" 
d="M565 450l-4 -11q-2 -5 -3.5 -6.5t-5.5 -1.5h-116l-61 -192h115q5 0 5 -5q0 -2 -1 -3l-4 -12q-2 -6 -11 -6h-115l-65 -202q-2 -11 -14 -11h-15q-9 0 -7 7v2l68 204h-187l-69 -203q-2 -6 -4.5 -8t-10.5 -2h-15q-6 0 -6 6q1 1 1 4l66 203h-110q-6 0 -5 5v2l5 15q1 4 7 4h115
l60 192h-113q-6 0 -6 4v1l5 13q1 7 10 7h116l70 224q3 7 9 7h24q4 0 4 -4v-2l-72 -225h183l72 223q3 8 11 8h21q4 0 4 -5q0 -2 -1 -3l-69 -223h113q8 0 6 -5v-1zM400 431h-185l-61 -192h185z" />
    <glyph glyph-name="percent" unicode="%" horiz-adv-x="1015" 
d="M477 601q0 -30 -7.5 -63t-23 -61.5t-40.5 -47t-60 -18.5q-46 0 -65 27t-19 69q0 30 8 63.5t24.5 62t42 47t60.5 18.5q45 0 62.5 -28.5t17.5 -68.5zM798 687q4 -2 2.5 -6.5t-3.5 -6.5l-562 -676q-2 -2 -5.5 -3.5t-6.5 0.5l-13 9q-5 3 -3 6l4 6l562 675q4 4 6.5 5.5
t7.5 -1.5zM753 181q0 -30 -7.5 -63t-23 -61.5t-40.5 -47t-60 -18.5q-46 0 -65 27t-19 69q0 30 8 63.5t24.5 62t42 47t60.5 18.5q45 0 62.5 -28.5t17.5 -68.5zM449 595q0 14 -2.5 28t-9 25.5t-17.5 18.5t-28 7q-28 0 -47 -17.5t-31 -43t-17.5 -54t-5.5 -50.5q0 -30 12.5 -52
t47.5 -22q27 0 45.5 17t30 42t17 52.5t5.5 48.5zM725 175q0 14 -2.5 28t-9 25.5t-17.5 18.5t-28 7q-28 0 -47 -17.5t-31 -43t-17.5 -54t-5.5 -50.5q0 -30 12.5 -52t47.5 -22q27 0 45.5 17t30 42t17 52.5t5.5 48.5z" />
    <glyph glyph-name="perthousand" unicode="&#x2030;" horiz-adv-x="1015" 
d="M940 181q0 -30 -7.5 -63t-23 -61.5t-40.5 -47t-61 -18.5q-45 0 -64 27t-19 69q0 30 8 63.5t24.5 62t42 47t60.5 18.5q45 0 62.5 -28.5t17.5 -68.5zM357 601q0 -30 -7.5 -63t-23 -61.5t-40.5 -47t-60 -18.5q-46 0 -65 27t-19 69q0 30 8 63.5t24.5 62t42 47t60.5 18.5
q45 0 62.5 -28.5t17.5 -68.5zM678 687q4 -2 2.5 -6.5t-3.5 -6.5l-562 -676q-2 -2 -5.5 -3.5t-6.5 0.5l-13 9q-5 3 -3 6l4 6l562 675q4 4 6.5 5.5t7.5 -1.5zM633 181q0 -30 -7.5 -63t-23 -61.5t-40.5 -47t-60 -18.5q-46 0 -65 27t-19 69q0 30 8 63.5t24.5 62t42 47t60.5 18.5
q45 0 62.5 -28.5t17.5 -68.5zM912 175q0 14 -2.5 28t-9 25.5t-17.5 18.5t-28 7q-28 0 -47 -17.5t-31 -43t-17.5 -54t-5.5 -50.5q0 -30 12.5 -52t47.5 -22q27 0 45.5 17t30 42t17 52.5t5.5 48.5zM329 595q0 14 -2.5 28t-9 25.5t-17.5 18.5t-28 7q-28 0 -47 -17.5t-31 -43
t-17.5 -54t-5.5 -50.5q0 -30 12.5 -52t47.5 -22q27 0 45.5 17t30 42t17 52.5t5.5 48.5zM605 175q0 14 -2.5 28t-9 25.5t-17.5 18.5t-28 7q-28 0 -47 -17.5t-31 -43t-17.5 -54t-5.5 -50.5q0 -30 12.5 -52t47.5 -22q27 0 45.5 17t30 42t17 52.5t5.5 48.5z" />
    <glyph glyph-name="plus" unicode="+" horiz-adv-x="499" 
d="M441 255q-1 -9 -9 -9h-166l-33 -191q-3 -9 -9 -9h-14q-7 0 -5 9l33 191h-164q-6 0 -7.5 1.5t-0.5 5.5l2 15q1 8 11 8h165l33 191q2 10 10 10h11q10 0 7 -9l-33 -192h163q9 0 8 -7z" />
    <glyph glyph-name="minus" unicode="&#x2212;" horiz-adv-x="499" 
d="M377 256q-2 -8 -5 -10.5t-8 -2.5h-225q-12 0 -9 10l3 18q2 8 11 8h225q13 0 10 -12z" />
    <glyph glyph-name="multiply" unicode="&#xd7;" horiz-adv-x="499" 
d="M381 395q2 2 6 3.5t6 -1.5l8 -10q3 -5 3 -6.5t-3 -4.5l-125 -116l83 -114q5 -6 0 -11l-12 -10q-5 -5 -11 2l-84 113l-123 -113q-3 -3 -6 -4.5t-6 2.5l-9 11q-3 3 -1.5 6t4.5 6l123 114l-83 113q-3 5 -3.5 7t4.5 6l10 8q7 6 13 -2l83 -112l123 113v0z" />
    <glyph glyph-name="less" unicode="&#x3c;" horiz-adv-x="499" 
d="M407 509q0 -6 -6 -10l-252 -163l196 -162q4 -3 4 -6q0 -4 -3 -7l-14 -16q-5 -6 -8 -6t-6 3l-213 180q-4 3 -4 10l2 9q1 7 7 10l275 179q4 3 8 3q2 0 5 -4l8 -14q1 -2 1 -6z" />
    <glyph glyph-name="divide" unicode="&#xf7;" horiz-adv-x="499" 
d="M426 252q-1 -7 -9 -7h-344q-7 0 -6 7l3 18q2 7 8 7h344q8 0 7 -7zM318 458q0 -17 -13 -32t-31 -15q-14 0 -23 9t-9 23q0 19 13.5 32t31.5 13q14 0 22.5 -8t8.5 -22zM252 85q0 -18 -12.5 -31.5t-30.5 -13.5q-14 0 -23.5 8t-9.5 22q0 19 13.5 32.5t32.5 13.5q14 0 22 -8.5
t8 -22.5z" />
    <glyph glyph-name="equal" unicode="=" horiz-adv-x="499" 
d="M404 369q-1 -7 -9 -7h-262q-7 0 -6 7l4 20q0 7 8 7h262q8 0 7 -7zM368 167q0 -7 -9 -7h-262q-6 0 -6 7l4 20q2 7 8 7h262q8 0 7 -7z" />
    <glyph glyph-name="logicalnot" unicode="&#xac;" horiz-adv-x="508" 
d="M421 217q-1 -8 -8 -8h-13q-8 0 -6 8l26 147h-302q-7 0 -6 7l3 18q2 7 8 7h321q8 0 7 -7z" />
    <glyph glyph-name="greater" unicode="&#x3e;" horiz-adv-x="499" 
d="M397 332q0 -6 -6 -10l-277 -180q-7 -5 -14 5l-8 14q-4 8 5 13l254 162l-194 163q-8 7 1 16l11 14q6 7 14 1l213 -179q4 -4 3 -10z" />
    <glyph glyph-name="notequal" unicode="&#x2260;" horiz-adv-x="499" 
d="M189 160h-97q-7 0 -6 7l3 20q2 7 9 7h116l121 168h-208q-6 0 -5 7l3 20q2 7 8 7h227l66 90q7 10 14 5l9 -6q6 -5 1 -11l-57 -78h112q8 0 7 -7l-3 -20q-1 -7 -10 -7h-131l-122 -168h224q8 0 6 -7l-3 -20q-1 -7 -9 -7h-243l-68 -92q-7 -9 -12 -5l-10 6q-7 4 1 13z" />
    <glyph glyph-name="approxequal" unicode="&#x2248;" horiz-adv-x="499" 
d="M139 337q-3 -9 -9 -6l-18 8q-3 3 0 11q23 53 58 76.5t67 23.5q44 0 77 -37l27 -29q16 -17 29.5 -30t33.5 -13q24 0 41 20t33 63q3 10 10 7l15 -5q6 -4 3 -11q-16 -56 -45.5 -81.5t-61.5 -25.5q-23 0 -42 12.5t-36 31.5l-27 29q-15 17 -28.5 26.5t-35.5 9.5
q-27 0 -51.5 -20.5t-39.5 -59.5zM460 224q3 9 9 6l18 -8q3 -3 0 -11q-23 -53 -58 -76.5t-67 -23.5q-44 0 -77 37l-27 29q-16 17 -29.5 30t-33.5 13q-24 0 -41 -20t-33 -63q-3 -10 -11 -7l-14 5q-6 4 -3 11q16 56 45.5 81.5t61.5 25.5q23 0 42 -12.5t36 -31.5l27 -29
q15 -17 28.5 -26.5t35.5 -9.5q27 0 51.5 20.5t39.5 59.5z" />
    <glyph glyph-name="plusminus" unicode="&#xb1;" horiz-adv-x="499" 
d="M449 343q-1 -9 -8 -9h-166l-29 -164q-3 -9 -9 -9h-14q-7 0 -5 9l29 164h-164q-7 0 -8.5 1.5t-0.5 5.5l3 15q1 8 10 8h165l29 165q1 10 10 10h11q8 0 7 -9l-29 -166h163q10 0 9 -7zM363 26q0 -7 -9 -7h-302q-6 0 -6 7l4 18q0 7 8 7h302q8 0 7 -7z" />
    <glyph glyph-name="lessequal" unicode="&#x2264;" horiz-adv-x="499" 
d="M411 161l-14 -16q-6 -6 -9 -6q-4 0 -5 3l-214 180q-4 4 -3 10l2 9q1 7 6 10l276 179q3 3 7 3q3 0 6 -4l7 -14q2 -3 2 -8q-1 -4 -7 -8l-251 -163l196 -162q4 -3 4 -8zM396 7q-1 -7 -9 -7h-284q-7 0 -6 7l3 20q2 7 8 7h284q8 0 7 -7z" />
    <glyph glyph-name="greaterequal" unicode="&#x2265;" horiz-adv-x="499" 
d="M144 166q0 4 6 8l254 162l-195 163q-4 6 -3 8q0 2 4 8l13 14q3 4 6 4q4 0 7 -3l212 -179q5 -4 4 -10l-2 -9q-1 -3 -2 -5.5t-5 -4.5l-276 -180q-5 -3 -7 -3q-4 0 -7 6l-8 16q-2 3 -1 5zM109 27q1 7 9 7h284q8 0 6 -7l-3 -20q-1 -7 -8 -7h-284q-8 0 -7 7z" />
    <glyph glyph-name="asciicircum" unicode="^" horiz-adv-x="529" 
d="M417 402q3 -7 -4 -10l-12 -5q-5 -2 -7.5 -2t-4.5 6l-104 254l-195 -247q-7 -9 -14 -4l-10 9q-3 5 3 11l212 264q7 8 11 8h6q4 0 6 -6z" />
    <glyph glyph-name="asciitilde" unicode="~" horiz-adv-x="529" 
d="M449 311q3 -5 -3 -11q-29 -26 -57.5 -41t-59.5 -15q-20 0 -35.5 8.5t-30.5 18t-31.5 18t-37.5 8.5q-18 0 -44.5 -12t-49.5 -27q-7 -4 -12 3l-6 12q-2 4 2 8l6 6q26 19 57 31t54 12t41 -8t34.5 -18t32.5 -18t34 -8q20 0 43 15t42 29q7 6 14 -2z" />
    <glyph glyph-name="lozenge" unicode="&#x25ca;" horiz-adv-x="481" 
d="M145 339l102 -301l209 305l-102 301zM109 323q-1 3 -2 7t0 8l1 5q1 4 3.5 8t4.5 7l231 328q5 5 11 5h9q7 0 9 -5l116 -327q1 -3 2 -7t0 -8l-1 -5q-1 -4 -3 -8t-4 -7l-232 -328q-5 -5 -11 -5h-9q-7 0 -9 5z" />
    <glyph glyph-name="degree" unicode="&#xb0;" horiz-adv-x="290" 
d="M240 619q0 -22 -9.5 -42t-25.5 -35t-36 -24t-42 -9q-34 0 -57 21.5t-23 56.5q0 22 9.5 42t25.5 35.5t36.5 24.5t42.5 9q34 0 56.5 -22t22.5 -57zM215 615q0 26 -16.5 42t-42.5 16q-16 0 -31 -7t-26.5 -18t-18.5 -26t-7 -31q0 -26 17 -41.5t42 -15.5q16 0 31 6.5t26.5 18
t18.5 26t7 30.5z" />
    <glyph glyph-name="quotesingle" unicode="'" horiz-adv-x="308" 
d="M154 531q-2 -9 -7 -9h-23q-6 0 -4 9l28 159q1 8 8 8h22q5 0 4 -8z" />
    <glyph glyph-name="quotedbl" unicode="&#x22;" horiz-adv-x="308" 
d="M246 690l-28 -159q-2 -9 -7 -9h-23q-4 0 -4 5v4l28 159q1 8 8 8h22q4 0 4 -5v-3zM125 690l-28 -159q-2 -9 -7 -9h-23q-4 0 -4 5v4l28 159q1 8 8 8h22q4 0 4 -5v-3z" />
    <glyph glyph-name="radical" unicode="&#x221a;" horiz-adv-x="527" 
d="M101 475q1 7 9 7h78q8 0 9 -7l65 -423l328 648q5 8 12 8h16q5 0 5.5 -3t-1.5 -6l-355 -694q-2 -5 -6 -5h-21q-5 0 -6 1.5t-2 3.5l-71 443h-57q-7 0 -6 7z" />
    <glyph glyph-name="currency" unicode="&#xa4;" 
d="M304 225q29 0 52.5 11t41.5 29q21 21 32 51t11 61q0 39 -22.5 63.5t-67.5 24.5q-29 0 -52.5 -11t-41.5 -29q-21 -21 -32 -51t-11 -61q0 -39 22.5 -63.5t67.5 -24.5zM298 192q-26 0 -51.5 10t-41.5 30l-55 -46q-8 -6 -12 -6.5t-9 6.5l-4 5q-5 7 -5 11t8 10l58 49
q-9 18 -9 49q0 30 10 61t32 57l-40 50q-5 6 -3.5 10.5t8.5 10.5l6 5q8 6 12 6t9 -6l37 -47q25 21 54 31t55 10t51.5 -10t41.5 -30l55 46q8 6 12 6.5t9 -6.5l4 -5q5 -7 5 -11t-8 -10l-58 -49q9 -18 9 -49q0 -30 -10 -61t-32 -57l40 -50q5 -6 3.5 -10.5t-8.5 -10.5l-6 -5
q-13 -11 -21 0l-37 47q-25 -21 -54 -31t-55 -10z" />
    <glyph glyph-name="infinity" unicode="&#x221e;" horiz-adv-x="853" 
d="M854 326q-6 -37 -24.5 -64t-44.5 -44.5t-57 -26t-62 -8.5q-26 0 -48.5 6.5t-44.5 20.5t-45 36.5t-49 54.5q-26 -24 -54 -46t-58.5 -39t-62.5 -27t-65 -10q-58 0 -96.5 29.5t-38.5 86.5v13.5t2 14.5q6 33 22.5 60t41.5 46t56.5 29.5t67.5 10.5q61 0 108 -34t86 -88
q24 24 50 45.5t54.5 38t59 26t64.5 9.5q62 0 101.5 -26t39.5 -82q0 -15 -3 -30v-2zM251 213q28 0 56.5 9.5t56 25t53 35.5t47.5 41q-19 23 -38 43.5t-41 35.5t-47 24t-56 9q-54 0 -91.5 -29.5t-47.5 -83.5q-1 -5 -1.5 -10.5t-0.5 -10.5q0 -43 30.5 -66t78.5 -23h1zM706 434
q-29 0 -56 -9t-52.5 -24t-49 -35t-45.5 -42q27 -31 47.5 -52t39 -34t37.5 -18.5t43 -5.5q28 0 53.5 8.5t45 23t32 34.5t16.5 43q2 7 2 12.5v11.5q0 24 -9 40.5t-24.5 27t-35.5 15t-42 4.5h-2z" />
    <glyph glyph-name="mu" unicode="&#x3bc;" horiz-adv-x="514" 
d="M403 10q-2 -9 -7 -9h-24q-7 0 -5 9l10 53q-38 -32 -81 -52.5t-95 -20.5q-38 0 -63 11t-41 33l-32 -184q-1 -8 -7 -8h-22q-8 0 -6 8l110 624q1 8 7 8h22q8 0 6 -8l-53 -298q-6 -33 -6 -62q0 -47 23 -70.5t76 -23.5q42 0 86.5 22t81.5 57l66 374q1 9 8 9h23q7 0 5 -9z" />
    <glyph glyph-name="uni00B5" unicode="&#xb5;" horiz-adv-x="514" 
d="M403 10q-2 -9 -7 -9h-24q-7 0 -5 9l10 53q-38 -32 -81 -52.5t-95 -20.5q-38 0 -63 11t-41 33l-32 -184q-1 -8 -7 -8h-22q-8 0 -6 8l110 624q1 8 7 8h22q8 0 6 -8l-53 -298q-6 -33 -6 -62q0 -47 23 -70.5t76 -23.5q42 0 86.5 22t81.5 57l66 374q1 9 8 9h23q7 0 5 -9z" />
    <glyph glyph-name="partialdiff" unicode="&#x2202;" horiz-adv-x="538" 
d="M112 198q9 50 31.5 90t53.5 68t67 43t72 15q37 0 72 -14.5t69 -64.5q4 30 6.5 59.5t2.5 58.5q0 45 -7 83.5t-23 67.5t-42.5 45.5t-66.5 16.5q-26 0 -48.5 -4.5t-50.5 -16.5q-7 -3 -9 4l-3 19q-1 5 10 10q23 10 49 16.5t60 6.5q49 0 81.5 -19.5t51.5 -52t26.5 -75
t7.5 -88.5q0 -44 -5 -87.5t-12 -81.5q-26 -148 -85.5 -227t-158.5 -79q-73 0 -113.5 41t-40.5 115q0 12 1.5 24.5t3.5 26.5zM147 197q-2 -11 -3 -20.5t-1 -20.5q0 -26 7 -50.5t21.5 -43.5t37.5 -30t56 -11q54 0 90.5 28t60 70t36.5 90t20 89q-32 46 -62.5 65t-77.5 19
q-36 0 -67 -16t-55.5 -42.5t-40.5 -59.5t-22 -67z" />
    <glyph glyph-name="summation" unicode="&#x2211;" horiz-adv-x="618" 
d="M17 -158q-7 0 -6 7l2 14q1 9 8 14l415 396l-278 380q-3 4 -3.5 8t0.5 7l3 13q1 6 8 6h528q8 0 7 -5l-6 -21q-2 -7 -14 -7h-475l265 -361q4 -6 3 -12l-1 -6q-1 -3 -2 -5.5t-5 -5.5l-410 -389h494q8 0 8 -5l-6 -21q-2 -7 -14 -7h-521z" />
    <glyph glyph-name="product" unicode="&#x220f;" horiz-adv-x="618" 
d="M564 654h-287l-142 -803q-1 -9 -9 -9h-25q-7 0 -6 9l142 803h-77q-7 0 -6 7l4 20q1 6 8 6h528q8 0 7 -6l-6 -20q-2 -7 -14 -7h-77l-142 -803q-1 -9 -8 -9h-24q-5 0 -7.5 1.5t-0.5 8.5z" />
    <glyph glyph-name="pi" unicode="&#x3c0;" horiz-adv-x="559" 
d="M164 10q-2 -10 -9 -10h-21q-8 0 -6 9l79 446h-81q-8 0 -7 7l2 14q1 6 8 6h460q7 0 6 -6l-2 -13q-1 -8 -8 -8h-112l-61 -342l-4 -24t-2 -22q0 -15 7 -24.5t28 -9.5q14 0 28.5 5t25.5 12q5 3 7.5 3t4.5 -5l4 -12q2 -4 0 -6l-4 -4q-16 -11 -37.5 -18.5t-41.5 -7.5
q-34 0 -46 16t-12 43q0 11 2 25l4 28l61 343h-194l-79 -445v0z" />
    <glyph glyph-name="integral" unicode="&#x222b;" horiz-adv-x="331" 
d="M250 492q-4 -44 -7.5 -93t-6 -97.5t-5 -94t-5.5 -82.5q-3 -44 -12.5 -85.5t-29.5 -74t-54.5 -52.5t-87.5 -20q-17 0 -35 3q-7 1 -5 8l3 15q2 7 7 6q11 -2 20 -3t18 -1q42 0 67.5 19t40.5 48.5t21.5 64.5t9.5 68q3 37 5.5 83.5t5.5 95t6.5 97.5t7.5 91q4 44 13 86t29 74.5
t54 52t87 19.5q10 0 18 -0.5t18 -2.5q7 -1 5 -9l-3 -14q-2 -7 -11 -6q-9 2 -17 3t-17 1q-42 0 -67.5 -19t-40.5 -48.5t-22 -64.5t-10 -68z" />
    <glyph glyph-name="Omega" unicode="&#x3a9;" horiz-adv-x="658" 
d="M291 33q7 -1 6 -7l-3 -19q-1 -7 -8 -7h-219q-8 0 -7 7l3 19q1 7 9 7h129q-43 28 -66.5 80t-23.5 127q0 23 2.5 49t7.5 54q15 83 47.5 147.5t77.5 108t99 66t111 22.5q103 0 158.5 -63t55.5 -180q0 -45 -9 -97q-22 -121 -77 -199t-127 -115h138q8 0 6 -7l-3 -19
q-1 -7 -8 -7h-219q-7 0 -6 7l3 19q1 6 8 7q45 8 85 33t72 65.5t55.5 94t34.5 118.5q9 51 9 94q0 105 -48 161.5t-136 56.5q-50 0 -97 -22t-86 -62.5t-67 -98t-40 -127.5q-5 -27 -7.5 -52t-2.5 -48q0 -91 36.5 -145.5t106.5 -67.5z" />
    <glyph glyph-name="Ohm" unicode="&#x2126;" horiz-adv-x="658" 
d="M291 33q7 -1 6 -7l-3 -19q-1 -7 -8 -7h-219q-8 0 -7 7l3 19q1 7 9 7h129q-43 28 -66.5 80t-23.5 127q0 23 2.5 49t7.5 54q15 83 47.5 147.5t77.5 108t99 66t111 22.5q103 0 158.5 -63t55.5 -180q0 -45 -9 -97q-22 -121 -77 -199t-127 -115h138q8 0 6 -7l-3 -19
q-1 -7 -8 -7h-219q-7 0 -6 7l3 19q1 6 8 7q45 8 85 33t72 65.5t55.5 94t34.5 118.5q9 51 9 94q0 105 -48 161.5t-136 56.5q-50 0 -97 -22t-86 -62.5t-67 -98t-40 -127.5q-5 -27 -7.5 -52t-2.5 -48q0 -91 36.5 -145.5t106.5 -67.5z" />
    <glyph glyph-name="uni0394" unicode="&#x394;" horiz-adv-x="565" 
d="M61 0q-9 0 -12 7l-5 11q-4 6 1 16l342 669q2 4 3.5 4.5t3.5 0.5h21q7 0 7 -5l110 -671q1 -9 -5 -15l-9 -12q-2 -4 -5 -4.5t-6 -0.5h-446zM76 31h413l-96 625z" />
    <glyph glyph-name="Delta" unicode="&#x2206;" horiz-adv-x="565" 
d="M61 0q-9 0 -12 7l-5 11q-4 6 1 16l342 669q2 4 3.5 4.5t3.5 0.5h21q7 0 7 -5l110 -671q1 -9 -5 -15l-9 -12q-2 -4 -5 -4.5t-6 -0.5h-446zM76 31h413l-96 625z" />
    <glyph glyph-name="litre" unicode="&#x2113;" horiz-adv-x="423" 
d="M10 173q22 14 42 27.5t39 27.5l51 282q9 52 24 88t34.5 58.5t43 32t49.5 9.5q46 0 71.5 -30.5t25.5 -75.5q0 -87 -68.5 -184t-195.5 -191l-2 -14q-5 -25 -7 -45.5t-2 -40.5q0 -48 19.5 -71.5t63.5 -23.5q45 0 80 26t64 60q5 6 8 6.5t6 -1.5l10 -8q6 -5 0 -12
q-36 -45 -78.5 -73.5t-95.5 -28.5q-57 0 -85.5 33t-28.5 93q0 25 6 70l-62 -40q-7 -5 -12 3l-6 10q-4 7 6 13zM134 260q112 89 165.5 172.5t53.5 153.5q0 38 -15.5 59.5t-46.5 21.5q-39 0 -69 -37.5t-44 -120.5z" />
    <glyph glyph-name="estimated" unicode="&#x212e;" horiz-adv-x="887" 
d="M445 701q82 0 154 -28t125.5 -76t84.5 -113t31 -139v-9h-641q-5 0 -5 -5v-193q0 -7 2.5 -12.5t6.5 -10.5q45 -48 108 -76.5t135 -28.5q77 0 142.5 32t111.5 86h58q-54 -63 -135.5 -101t-177.5 -38q-82 0 -154 28t-126 76t-85.5 113t-31.5 139t31.5 139t85.5 113t126 76
t154 28zM446 680q-72 0 -134 -27.5t-108 -75.5q-10 -10 -10 -25v-191q0 -5 5 -5h491q5 0 5 5v196q0 13 -10 23q-46 46 -107.5 73t-131.5 27z" />
    <glyph glyph-name="numero" unicode="&#x2116;" horiz-adv-x="947" 
d="M569 9q-1 -6 -3.5 -7.5t-5.5 -1.5h-18q-7 0 -13 13l-287 601h-1l-107 -604q-1 -7 -3 -8.5t-7 -1.5h-19q-9 0 -8 9l118 670q2 8 10 8h19q5 0 9 -7l290 -600h1l105 599q2 8 9 8h25q6 0 4 -8zM899 224q-5 -29 -16 -56t-28.5 -48.5t-42.5 -34.5t-58 -13q-27 0 -45.5 9
t-30.5 24t-17.5 35t-5.5 43q0 22 4 41q5 27 16.5 54.5t30 49.5t43 35.5t56.5 13.5q26 0 44.5 -9.5t30 -25t17 -36.5t5.5 -44q0 -19 -3 -38zM867 225q3 18 3 36q0 17 -3.5 33.5t-11.5 29t-21.5 20.5t-33.5 8q-25 0 -44 -12.5t-32 -31t-21 -41t-12 -42.5q-2 -10 -3 -20t-1 -21
q0 -17 3.5 -33t11.5 -28t21.5 -19.5t34.5 -7.5q27 0 46 12t31.5 31t20 42t11.5 44zM855 9q-1 -7 -4 -8.5t-9 -1.5h-199q-7 0 -9.5 1t-0.5 9l2 10q1 6 3.5 7.5t9.5 1.5h201q5 0 7 -1.5t1 -7.5z" />
    <glyph glyph-name="fraction" unicode="&#x2044;" horiz-adv-x="159" 
d="M-194 -18q-7 -10 -15 -10h-17q-12 0 -5 9l541 722q8 10 11 12t12 2h15q9 0 3 -8z" />
    <glyph glyph-name="onesuperior" unicode="&#xb9;" horiz-adv-x="332" 
d="M161 370q-1 -7 -3.5 -8.5t-6.5 -1.5h-14q-8 0 -6 9l54 307l-74 -46l-8 -4t-6 3l-4 9q-2 5 0.5 8t5.5 5l87 53q5 4 15 4h12q8 0 6 -10z" />
    <glyph glyph-name="twosuperior" unicode="&#xb2;" horiz-adv-x="332" 
d="M291 615q-3 -19 -10.5 -37t-21 -38.5t-34 -43.5t-50.5 -53l-33.5 -33.5t-53.5 -50.5h150q11 0 9 -8l-1 -5q-1 -3 -3.5 -6t-7.5 -3h-172q-5 0 -7.5 1.5t-1.5 7.5l2 9q0 4 4 8q24 23 56 52.5t62.5 62t53.5 66.5t29 66q5 34 -10 53.5t-45 19.5q-17 0 -34 -5.5t-34 -13.5
q-3 -2 -6 -2.5t-5 3.5l-2 5q-4 9 5 13q20 12 42 17.5t43 5.5q37 0 60.5 -23t15.5 -68z" />
    <glyph glyph-name="threesuperior" unicode="&#xb3;" horiz-adv-x="332" 
d="M270 623q-4 -21 -21 -46.5t-49 -39.5q16 -5 26.5 -15.5t16.5 -23.5t7.5 -27.5t-0.5 -27.5q-4 -24 -16 -44t-29 -34t-37.5 -22t-42.5 -8q-15 0 -33 2.5t-33 9.5q-8 3 -6 9v2l4 8q2 4 6 4q3 0 5 -1q10 -5 26 -8t31 -3q35 0 61.5 21.5t34.5 61.5q8 42 -13.5 62.5t-58.5 20.5
h-11q-8 0 -7 8l1 6q1 8 9 8h8q34 0 59 18t33 57q6 35 -11.5 49.5t-46.5 14.5q-26 0 -55 -13q-6 -2 -8 -2q-4 0 -5 5l-1 6v2q2 6 9 10q17 9 35 12t36 3q36 0 59.5 -22.5t16.5 -62.5z" />
    <glyph glyph-name="onehalf" unicode="&#xbd;" horiz-adv-x="744" 
d="M637 713l-2 -4l-545 -727q-7 -10 -15 -10h-19q-7 0 -5 3q0 1 3 6l541 722q8 10 11 12t12 2h14q5 0 5 -4zM646 273q-6 -33 -28.5 -67.5t-53 -67.5t-64 -63t-59.5 -55h154q6 0 6 -5l-2 -9q0 -6 -7 -6h-177q-8 0 -7 6l2 9q0 3 3 6q24 24 57.5 53t64.5 61.5t55 66.5t30 68
q6 35 -9 53.5t-46 18.5q-36 0 -70 -18q-4 -2 -5 -2q-2 0 -3 2l-2 7q-2 4 -1 5q0 2 4 5q20 12 41 17t41 5q38 0 61 -23.5t15 -66.5zM181 370q-1 -5 -2.5 -6t-3.5 -1h-17q-4 0 -4 6l55 309l-80 -49q-3 -3 -6 -3t-3 2l-5 12v4q0 4 4 5l89 53q3 2 5 2.5t8 0.5h15q4 0 3 -7z" />
    <glyph glyph-name="onequarter" unicode="&#xbc;" horiz-adv-x="744" 
d="M650 713l-2 -4l-545 -727q-7 -10 -15 -10h-21q-7 0 -5 3q0 1 3 6l540 722q8 10 11 12t12 2h17q5 0 5 -4zM194 370q-1 -7 -3.5 -8.5t-5.5 -1.5h-14q-9 0 -7 9l54 307l-74 -46q-5 -3 -8 -3q-5 0 -6 3.5t-3 8.5q-1 2 -0.5 2.5t0.5 2.5q0 4 5 7l87 53q4 2 6.5 3t8.5 1h12
q8 0 6 -10zM592 9q-2 -9 -9 -9h-12q-9 0 -7 9l15 82h-149q-9 0 -8 8l1 7l1.5 6t5.5 10l132 217q5 9 14 9h12q6 0 6 -4q0 -3 -8 -16l-129 -212h126l13 71q2 9 9 9h11q5 0 7 -3t1 -6l-13 -71h40q8 0 7 -6l-3 -13q-2 -6 -9 -6h-39z" />
    <glyph glyph-name="threequarters" unicode="&#xbe;" horiz-adv-x="744" 
d="M650 713l-2 -4l-545 -727q-7 -10 -15 -10h-21q-7 0 -5 3q0 1 3 6l540 722q8 10 11 12t12 2h17q5 0 5 -4zM295 623q-4 -21 -21 -46.5t-49 -39.5q16 -5 27 -15.5t17 -23.5t7.5 -27.5t-1.5 -27.5q-4 -24 -16 -44t-28.5 -34t-37.5 -22t-43 -8q-15 0 -32.5 2.5t-33.5 9.5
q-7 4 -6 9v2l4 8q2 4 6 4t5 -1q11 -5 26.5 -8t30.5 -3q35 0 62 21.5t34 61.5q8 42 -13.5 62.5t-57.5 20.5h-11q-9 0 -8 8l1 6q1 8 10 8h8q34 0 59 18t32 57q6 35 -11.5 49.5t-46.5 14.5q-26 0 -55 -13q-6 -2 -8 -2q-4 0 -5 5l-1 6q0 1 0.5 1t0.5 1q0 6 8 10q17 9 35 12t36 3
q36 0 59.5 -22.5t16.5 -62.5zM592 9q-2 -9 -9 -9h-12q-9 0 -7 9l15 82h-149q-9 0 -8 8l1 7l1.5 6t5.5 10l132 217q5 9 14 9h12q6 0 6 -4q0 -3 -8 -16l-129 -212h126l13 71q2 9 9 9h11q5 0 7 -3t1 -6l-13 -71h40q8 0 7 -6l-3 -13q-2 -6 -9 -6h-39z" />
    <glyph glyph-name="grave" unicode="`" horiz-adv-x="311" 
d="M229 556q0 -3 -1 -4l-7 -9q-2 -3 -6 -3q-2 0 -3 1l-130 86q-4 3 -4 7t3 7l19 22q5 5 9 5q2 0 8 -4l111 -105q1 -1 1 -3z" />
    <glyph glyph-name="acute" unicode="&#xb4;" horiz-adv-x="312" 
d="M254 636q0 -5 -7 -9l-160 -86q-2 -1 -4 -1q-3 0 -4 3l-4 8l-1 3q0 3 3 5l149 105q5 4 9 4t7 -5l10 -20q2 -4 2 -7z" />
    <glyph glyph-name="dieresis" unicode="&#xa8;" horiz-adv-x="312" 
d="M269 602q0 -16 -11.5 -29t-28.5 -13q-12 0 -20.5 8t-8.5 21q0 17 12 28t29 11q12 0 20 -6.5t8 -19.5zM116 602q0 -16 -11.5 -29t-28.5 -13q-12 0 -20.5 8t-8.5 21q0 17 12 28t29 11q12 0 20 -6.5t8 -19.5z" />
    <glyph glyph-name="circumflex" unicode="&#x2c6;" horiz-adv-x="312" 
d="M248 542q-4 -5 -10 0l-77 79l-108 -83q-5 -3 -8 1l-5 6q-4 3 2 9l116 111q2 1 3 2t3 1h12q1 0 4 -3l73 -108q4 -7 0 -10z" />
    <glyph glyph-name="tilde" unicode="&#x2dc;" horiz-adv-x="312" 
d="M305 616q4 -3 2 -7t-5 -6q-11 -8 -24 -17t-27 -16.5t-28 -12.5t-26 -5q-13 0 -23.5 7.5t-21 17t-22 17t-26.5 7.5q-11 0 -33.5 -11.5t-38.5 -22.5q-5 -3 -7.5 -3t-5.5 6l-5 11q-3 6 1.5 10.5t9.5 7.5q20 14 45.5 24t43.5 10q15 0 27 -7.5t23 -16.5t22.5 -16.5t24.5 -7.5
q6 0 16 5t21.5 11.5t21.5 13t16 10.5q4 3 6 2t5 -4z" />
    <glyph glyph-name="macron" unicode="&#xaf;" horiz-adv-x="312" 
d="M267 591q-2 -8 -4.5 -10t-8.5 -2h-200q-7 0 -9.5 1.5t-0.5 10.5l2 11q2 8 4.5 9.5t9.5 1.5h202q5 0 7 -1.5t0 -9.5z" />
    <glyph glyph-name="breve" unicode="&#x2d8;" horiz-adv-x="312" 
d="M272 647q-13 -41 -48 -68.5t-77 -27.5q-44 0 -67.5 26.5t-23.5 69.5q0 11 7 11h17q7 0 8 -8q6 -31 22.5 -49.5t42.5 -18.5q27 0 49.5 18t39.5 50q5 8 10 8h16q7 0 7 -5z" />
    <glyph glyph-name="dotaccent" unicode="&#x2d9;" horiz-adv-x="312" 
d="M192 620q0 -17 -13 -31.5t-31 -14.5q-13 0 -22 8.5t-9 22.5q0 19 13 31t32 12q13 0 21.5 -7t8.5 -21z" />
    <glyph glyph-name="ring" unicode="&#x2da;" horiz-adv-x="312" 
d="M240 635q0 -19 -8.5 -37t-22 -31.5t-32 -21.5t-37.5 -8q-30 0 -50.5 20t-20.5 50q0 19 8.5 37t23 31.5t32.5 21.5t37 8q30 0 50 -19.5t20 -50.5zM206 631q0 18 -12 29t-30 11q-23 0 -42 -17.5t-19 -41.5q0 -19 13 -30t31 -11q23 0 41 18t18 42z" />
    <glyph glyph-name="cedilla" unicode="&#xb8;" horiz-adv-x="312" 
d="M243 -105q0 -20 -8.5 -36t-22 -27.5t-31.5 -17.5t-37 -6q-9 0 -20.5 1.5t-22.5 5.5l-7.5 3t-0.5 6l4 9q1 2 4 2t5 -1q11 -3 20 -4t19 -1q28 0 48 16t20 45q0 23 -18.5 30.5t-43.5 7.5h-10q-15 0 -12 12l19 68l21 -2l-13 -58h12q31 0 53 -12t22 -41z" />
    <glyph glyph-name="hungarumlaut" unicode="&#x2dd;" horiz-adv-x="312" 
d="M359 641q3 -9 -6 -14l-160 -86q-6 -4 -9 2l-4 9q-2 3 3 7l149 105q5 3 8.5 4t6.5 -5zM159 641q3 -9 -6 -14l-160 -86q-6 -4 -9 2l-4 9q-2 3 3 7l149 105q5 3 8.5 4t6.5 -5z" />
    <glyph glyph-name="ogonek" unicode="&#x2db;" horiz-adv-x="312" 
d="M227 -179q0 -7 -6 -9q-15 -6 -32.5 -8.5t-34.5 -2.5q-38 0 -56 20.5t-18 44.5q0 23 10 44t26 39t35 32.5t37 24.5h19q-14 -11 -30.5 -26t-30.5 -32t-23 -36.5t-9 -39.5q0 -26 17 -36.5t38 -10.5q8 0 22.5 2t26.5 5q2 1 6 1.5t4 -3.5z" />
    <glyph glyph-name="caron" unicode="&#x2c7;" horiz-adv-x="312" 
d="M273 661q4 -4 -1 -9l-117 -111q-3 -3 -5 -3h-12q-2 0 -5 3l-73 108q-4 6 0 10l5 5q5 5 10 0l77 -79l109 83q3 3 8 -1z" />
    <glyph glyph-name="commaaccent" unicode="&#xf6c3;" horiz-adv-x="312" 
d="M176 -71q0 -14 -6 -30t-13 -28q-19 -34 -52 -60q-3 -3 -5 -3q-3 0 -3 2l-3 4q-1 1 -1 2q0 2 1.5 3t2.5 3q12 10 22.5 24t13.5 32q1 2 1 7q0 16 -8 25.5t-8 20.5q0 13 9.5 21t21.5 8q11 0 19 -8.5t8 -22.5z" />
    <glyph glyph-name="Agrave" unicode="&#xc0;" horiz-adv-x="571" 
d="M499 12q1 -3 0 -7.5t-5 -4.5h-33q-5 0 -6 0.5t-2 5.5l-37 225h-277l-119 -226q-2 -4 -3.5 -4.5t-4.5 -0.5h-26q-11 0 -6 8l360 670q4 9 12 9h21q5 0 6 -2t2 -6zM412 263l-62 365l-194 -365h256zM421 756q0 -3 -1 -4l-7 -9q-2 -3 -6 -3q-2 0 -3 1l-130 86q-4 3 -4 7t3 7
l19 22q5 5 9 5q2 0 8 -4l111 -105q1 -1 1 -3z" />
    <glyph glyph-name="Aacute" unicode="&#xc1;" horiz-adv-x="571" 
d="M499 12q1 -3 0 -7.5t-5 -4.5h-33q-5 0 -6 0.5t-2 5.5l-37 225h-277l-119 -226q-2 -4 -3.5 -4.5t-4.5 -0.5h-26q-11 0 -6 8l360 670q4 9 12 9h21q5 0 6 -2t2 -6zM412 263l-62 365l-194 -365h256zM476 836q0 -5 -7 -9l-160 -86q-2 -1 -4 -1q-3 0 -4 3l-4 8l-1 3q0 3 3 5
l149 105q5 4 9 4t7 -5l10 -20q2 -4 2 -7z" />
    <glyph glyph-name="Acircumflex" unicode="&#xc2;" horiz-adv-x="571" 
d="M499 12q1 -3 0 -7.5t-5 -4.5h-33q-5 0 -6 0.5t-2 5.5l-37 225h-277l-119 -226q-2 -4 -3.5 -4.5t-4.5 -0.5h-26q-11 0 -6 8l360 670q4 9 12 9h21q5 0 6 -2t2 -6zM412 263l-62 365l-194 -365h256zM463 742q-4 -5 -10 0l-77 79l-108 -83q-5 -3 -8 1l-5 6q-4 3 2 9l116 111
q2 1 3 2t3 1h12q1 0 4 -3l73 -108q4 -7 0 -10z" />
    <glyph glyph-name="Atilde" unicode="&#xc3;" horiz-adv-x="571" 
d="M499 12q1 -3 0 -7.5t-5 -4.5h-33q-5 0 -6 0.5t-2 5.5l-37 225h-277l-119 -226q-2 -4 -3.5 -4.5t-4.5 -0.5h-26q-11 0 -6 8l360 670q4 9 12 9h21q5 0 6 -2t2 -6zM412 263l-62 365l-194 -365h256zM515 816q4 -3 2 -7t-5 -6q-11 -8 -24 -17t-27 -16.5t-28 -12.5t-26 -5
q-13 0 -23.5 7.5t-21 17t-22 17t-26.5 7.5q-11 0 -33.5 -11.5t-38.5 -22.5q-5 -3 -7.5 -3t-5.5 6l-5 11q-3 6 1.5 10.5t9.5 7.5q20 14 45.5 24t43.5 10q15 0 27 -7.5t23 -16.5t22.5 -16.5t24.5 -7.5q6 0 16 5t21.5 11.5t21.5 13t16 10.5q4 3 6 2t5 -4z" />
    <glyph glyph-name="Adieresis" unicode="&#xc4;" horiz-adv-x="571" 
d="M499 12q1 -3 0 -7.5t-5 -4.5h-33q-5 0 -6 0.5t-2 5.5l-37 225h-277l-119 -226q-2 -4 -3.5 -4.5t-4.5 -0.5h-26q-11 0 -6 8l360 670q4 9 12 9h21q5 0 6 -2t2 -6zM412 263l-62 365l-194 -365h256zM482 802q0 -16 -11.5 -29t-28.5 -13q-12 0 -20.5 8t-8.5 21q0 17 12 28
t29 11q12 0 20 -6.5t8 -19.5zM329 802q0 -16 -11.5 -29t-28.5 -13q-12 0 -20.5 8t-8.5 21q0 17 12 28t29 11q12 0 20 -6.5t8 -19.5z" />
    <glyph glyph-name="Amacron" unicode="&#x100;" horiz-adv-x="571" 
d="M499 12q1 -3 0 -7.5t-5 -4.5h-33q-5 0 -6 0.5t-2 5.5l-37 225h-277l-119 -226q-2 -4 -3.5 -4.5t-4.5 -0.5h-26q-11 0 -6 8l360 670q4 9 12 9h21q5 0 6 -2t2 -6zM412 263l-62 365l-194 -365h256zM476 791q-2 -8 -4.5 -10t-8.5 -2h-200q-7 0 -9.5 1.5t-0.5 10.5l2 11
q2 8 4.5 9.5t9.5 1.5h202q5 0 7 -1.5t0 -9.5z" />
    <glyph glyph-name="Abreve" unicode="&#x102;" horiz-adv-x="571" 
d="M499 12q1 -3 0 -7.5t-5 -4.5h-33q-5 0 -6 0.5t-2 5.5l-37 225h-277l-119 -226q-2 -4 -3.5 -4.5t-4.5 -0.5h-26q-11 0 -6 8l360 670q4 9 12 9h21q5 0 6 -2t2 -6zM412 263l-62 365l-194 -365h256zM484 847q-13 -41 -48 -68.5t-77 -27.5q-44 0 -67.5 26.5t-23.5 69.5
q0 11 7 11h17q7 0 8 -8q6 -31 22.5 -49.5t42.5 -18.5q27 0 49.5 18t39.5 50q5 8 10 8h16q7 0 7 -5z" />
    <glyph glyph-name="Acaron" unicode="&#x1cd;" horiz-adv-x="571" 
d="M502 861q4 -4 -1 -9l-117 -111q-3 -3 -5 -3h-12q-2 0 -5 3l-73 108q-4 6 0 10l5 5q5 5 10 0l77 -79l109 83q3 3 8 -1zM499 12q1 -3 0 -7.5t-5 -4.5h-33q-5 0 -6 0.5t-2 5.5l-37 225h-277l-119 -226q-2 -4 -3.5 -4.5t-4.5 -0.5h-26q-11 0 -6 8l360 670q4 9 12 9h21
q5 0 6 -2t2 -6zM412 263l-62 365l-194 -365h256z" />
    <glyph glyph-name="Aring" unicode="&#xc5;" horiz-adv-x="571" 
d="M499 12q1 -3 0 -7.5t-5 -4.5h-33q-5 0 -6 0.5t-2 5.5l-37 225h-277l-119 -226q-2 -4 -3.5 -4.5t-4.5 -0.5h-26q-11 0 -6 8l360 670q4 9 12 9h21q5 0 6 -2t2 -6zM412 263l-62 365l-194 -365h256zM452 835q0 -19 -8.5 -37t-22 -31.5t-32 -21.5t-37.5 -8q-30 0 -50.5 20
t-20.5 50q0 19 8.5 37t23 31.5t32.5 21.5t37 8q30 0 50 -19.5t20 -50.5zM418 831q0 18 -12 29t-30 11q-23 0 -42 -17.5t-19 -41.5q0 -19 13 -30t31 -11q23 0 41 18t18 42z" />
    <glyph glyph-name="Aringacute" unicode="&#x1fa;" horiz-adv-x="571" 
d="M499 12q1 -3 0 -7.5t-5 -4.5h-33q-5 0 -6 0.5t-2 5.5l-37 225h-277l-119 -226q-2 -4 -3.5 -4.5t-4.5 -0.5h-26q-11 0 -6 8l360 670q4 9 12 9h21q5 0 6 -2t2 -6zM412 263l-62 365l-194 -365h256zM489 977q0 -5 -7 -9l-160 -86q-2 -1 -4 -1q-3 0 -4 3l-4 8l-1 3q0 3 3 5
l149 105q5 4 9 4t7 -5l10 -20q2 -4 2 -7zM465 809q0 -19 -8.5 -37t-22 -31.5t-32 -21.5t-37.5 -8q-30 0 -50.5 20t-20.5 50q0 19 8.5 37t23 31.5t32.5 21.5t37 8q30 0 50 -19.5t20 -50.5zM431 805q0 18 -12 29t-30 11q-23 0 -42 -17.5t-19 -41.5q0 -19 13 -30t31 -11
q23 0 41 18t18 42z" />
    <glyph glyph-name="Aogonek" unicode="&#x104;" horiz-adv-x="571" 
d="M509 -179q0 -7 -6 -9q-15 -6 -32.5 -8.5t-34.5 -2.5q-38 0 -56 20.5t-18 44.5q0 21 8 40.5t21 37.5t29.5 32.5t33.5 25.5l-38 229h-277l-119 -226q-2 -5 -8 -5h-26q-11 0 -6 8l360 670q3 5 5 7t7 2h21q5 0 6 -2t2 -6l118 -667q1 -3 0.5 -7t-5.5 -5q-13 -2 -28 -11.5
t-23 -17.5q-21 -21 -34 -46t-13 -53q0 -26 17 -36.5t38 -10.5q8 0 22.5 2t26.5 5q2 1 6 1.5t4 -3.5zM412 263l-62 365l-194 -365h256z" />
    <glyph glyph-name="AE" unicode="&#xc6;" horiz-adv-x="842" 
d="M835 664q-3 -8 -14 -8h-277l-48 -275h242q8 0 8 -6l-3 -17q-1 -7 -11 -7h-242l-56 -321h284q9 0 7 -8l-2 -13q-2 -9 -11 -9h-312q-12 0 -10 11l39 218h-246l-172 -218q-4 -5 -8 -8t-10 -3h-27q-7 0 -5 4.5t5 7.5l518 652q9 12 17.5 17.5t22.5 5.5h308q8 0 6 -7zM500 634
l-294 -374h228z" />
    <glyph glyph-name="AEacute" unicode="&#x1fc;" horiz-adv-x="842" 
d="M835 664q-3 -8 -14 -8h-277l-48 -275h242q8 0 8 -6l-3 -17q-1 -7 -11 -7h-242l-56 -321h284q9 0 7 -8l-2 -13q-2 -9 -11 -9h-312q-12 0 -10 11l39 218h-246l-172 -218q-4 -5 -8 -8t-10 -3h-27q-7 0 -5 4.5t5 7.5l518 652q9 12 17.5 17.5t22.5 5.5h308q8 0 6 -7zM500 634
l-294 -374h228zM745 836q0 -5 -7 -9l-160 -86q-2 -1 -4 -1q-3 0 -4 3l-4 8l-1 3q0 3 3 5l149 105q5 4 9 4t7 -5l10 -20q2 -4 2 -7z" />
    <glyph glyph-name="Cacute" unicode="&#x106;" horiz-adv-x="541" 
d="M557 626q-4 -7 -11 -2q-28 20 -64.5 30t-75.5 10q-75 0 -133.5 -38.5t-98 -97.5t-60 -130t-20.5 -137q0 -48 10.5 -90.5t33.5 -75t61 -51.5t93 -19q38 0 80.5 10.5t80.5 28.5q4 2 6.5 2t4.5 -5l5 -17q1 -5 -2 -8t-8 -5q-45 -21 -89.5 -30.5t-90.5 -9.5q-60 0 -104 19.5
t-72 54.5t-41.5 82.5t-13.5 103.5q0 76 24 155t70 144t112.5 106.5t152.5 41.5q45 0 87 -10.5t73 -32.5q6 -5 2 -10zM539 836q0 -5 -7 -9l-160 -86q-2 -1 -4 -1q-3 0 -4 3l-4 8l-1 3q0 3 3 5l149 105q5 4 9 4t7 -5l10 -20q2 -4 2 -7z" />
    <glyph glyph-name="Ccedilla" unicode="&#xc7;" horiz-adv-x="541" 
d="M331 -105q0 -20 -8.5 -36t-22 -27.5t-31.5 -17.5t-37 -6q-9 0 -20.5 1.5t-22.5 5.5l-7.5 3t-0.5 6l4 9q1 2 4 2t5 -1q11 -3 20 -4t19 -1q28 0 48 16t20 45q0 23 -18.5 30.5t-43.5 7.5h-10q-15 0 -12 12l15 55q-48 7 -83 29t-57.5 56t-33 77.5t-10.5 93.5q0 76 24 155
t70 144t112.5 106.5t152.5 41.5q45 0 87 -10.5t73 -32.5q6 -5 2 -10l-12 -19q-6 -6 -11 -2q-28 20 -64.5 30t-75.5 10q-75 0 -133.5 -38.5t-98 -97.5t-60 -130t-20.5 -137q0 -48 10.5 -90.5t33.5 -75t61 -51.5t93 -19q38 0 80.5 10.5t80.5 28.5q4 2 6.5 2t4.5 -5l5 -17
q1 -5 -2 -8t-8 -5q-45 -21 -89.5 -30.5t-90.5 -9.5q-7 0 -13 0.5t-12 0.5l-10 -44h12q31 0 53 -12t22 -41z" />
    <glyph glyph-name="Ccircumflex" unicode="&#x108;" horiz-adv-x="541" 
d="M557 626q-4 -7 -11 -2q-28 20 -64.5 30t-75.5 10q-75 0 -133.5 -38.5t-98 -97.5t-60 -130t-20.5 -137q0 -48 10.5 -90.5t33.5 -75t61 -51.5t93 -19q38 0 80.5 10.5t80.5 28.5q4 2 6.5 2t4.5 -5l5 -17q1 -5 -2 -8t-8 -5q-45 -21 -89.5 -30.5t-90.5 -9.5q-60 0 -104 19.5
t-72 54.5t-41.5 82.5t-13.5 103.5q0 76 24 155t70 144t112.5 106.5t152.5 41.5q45 0 87 -10.5t73 -32.5q6 -5 2 -10zM513 742q-4 -5 -10 0l-77 79l-108 -83q-5 -3 -8 1l-5 6q-4 3 2 9l116 111q2 1 3 2t3 1h12q1 0 4 -3l73 -108q4 -7 0 -10z" />
    <glyph glyph-name="Ccaron" unicode="&#x10c;" horiz-adv-x="541" 
d="M557 626q-4 -7 -11 -2q-28 20 -64.5 30t-75.5 10q-75 0 -133.5 -38.5t-98 -97.5t-60 -130t-20.5 -137q0 -48 10.5 -90.5t33.5 -75t61 -51.5t93 -19q38 0 80.5 10.5t80.5 28.5q4 2 6.5 2t4.5 -5l5 -17q1 -5 -2 -8t-8 -5q-45 -21 -89.5 -30.5t-90.5 -9.5q-60 0 -104 19.5
t-72 54.5t-41.5 82.5t-13.5 103.5q0 76 24 155t70 144t112.5 106.5t152.5 41.5q45 0 87 -10.5t73 -32.5q6 -5 2 -10zM536 861q4 -4 -1 -9l-117 -111q-3 -3 -5 -3h-12q-2 0 -5 3l-73 108q-4 6 0 10l5 5q5 5 10 0l77 -79l109 83q3 3 8 -1z" />
    <glyph glyph-name="Cdotaccent" unicode="&#x10a;" horiz-adv-x="541" 
d="M557 626q-4 -7 -11 -2q-28 20 -64.5 30t-75.5 10q-75 0 -133.5 -38.5t-98 -97.5t-60 -130t-20.5 -137q0 -48 10.5 -90.5t33.5 -75t61 -51.5t93 -19q38 0 80.5 10.5t80.5 28.5q4 2 6.5 2t4.5 -5l5 -17q1 -5 -2 -8t-8 -5q-45 -21 -89.5 -30.5t-90.5 -9.5q-60 0 -104 19.5
t-72 54.5t-41.5 82.5t-13.5 103.5q0 76 24 155t70 144t112.5 106.5t152.5 41.5q45 0 87 -10.5t73 -32.5q6 -5 2 -10zM466 820q0 -17 -13 -31.5t-31 -14.5q-13 0 -22 8.5t-9 22.5q0 19 13 31t32 12q13 0 21.5 -7t8.5 -21z" />
    <glyph glyph-name="Dcaron" unicode="&#x10e;" horiz-adv-x="638" 
d="M436 861q4 -4 -1 -9l-117 -111q-3 -3 -5 -3h-12q-2 0 -5 3l-73 108q-4 6 0 10l5 5q5 5 10 0l77 -79l109 83q3 3 8 -1zM591 439q0 -50 -9 -101t-27 -99.5t-46 -91.5t-67 -76q-45 -38 -97 -54.5t-145 -16.5h-149q-8 0 -11 4.5t-2 10.5l116 658q2 9 4.5 11.5t11.5 2.5h109
q47 0 82 -2t62 -7.5t48 -15t40 -24.5q38 -29 59 -80.5t21 -118.5zM545 425q0 55 -13 100.5t-42 75.5q-17 18 -39 28.5t-46.5 16t-51.5 7t-53 1.5h-109l-110 -620h108q33 0 59.5 1t50.5 5.5t46 12.5t45 24q40 26 68.5 67.5t48 88.5t29 96t9.5 96z" />
    <glyph glyph-name="Dcroat" unicode="&#x110;" horiz-adv-x="637" 
d="M35 381h66l52 292q2 9 4.5 11.5t11.5 2.5h109q47 0 82 -2t62 -7.5t48 -15t40 -24.5q38 -29 59 -80.5t21 -118.5q0 -50 -9 -101t-27 -99.5t-46 -91.5t-67 -76q-45 -38 -97 -54.5t-145 -16.5h-149q-8 0 -11 4.5t-2 10.5l58 330h-66q-10 0 -9 10l3 18q2 8 12 8zM544 425
q0 55 -13 100.5t-42 75.5q-17 18 -39 28.5t-46.5 16t-51.5 7t-53 1.5h-109l-49 -273h119q12 0 9 -12l-1 -11q-2 -8 -5.5 -10.5t-8.5 -2.5h-119l-55 -311h108q33 0 59.5 1t50.5 5.5t46 12.5t45 24q40 26 68.5 67.5t48 88.5t29 96t9.5 96z" />
    <glyph glyph-name="Eth" unicode="&#xd0;" horiz-adv-x="637" 
d="M35 381h66l52 292q2 9 4.5 11.5t11.5 2.5h109q47 0 82 -2t62 -7.5t48 -15t40 -24.5q38 -29 59 -80.5t21 -118.5q0 -50 -9 -101t-27 -99.5t-46 -91.5t-67 -76q-45 -38 -97 -54.5t-145 -16.5h-149q-8 0 -11 4.5t-2 10.5l58 330h-66q-10 0 -9 10l3 18q2 8 12 8zM544 425
q0 55 -13 100.5t-42 75.5q-17 18 -39 28.5t-46.5 16t-51.5 7t-53 1.5h-109l-49 -273h119q12 0 9 -12l-1 -11q-2 -8 -5.5 -10.5t-8.5 -2.5h-119l-55 -311h108q33 0 59.5 1t50.5 5.5t46 12.5t45 24q40 26 68.5 67.5t48 88.5t29 96t9.5 96z" />
    <glyph glyph-name="Egrave" unicode="&#xc8;" horiz-adv-x="487" 
d="M478 661q-2 -7 -11 -7h-278l-48 -276h240q10 0 8 -8l-3 -17q-2 -8 -10 -8h-241l-55 -311h283q6 0 7.5 -2t1.5 -5l-4 -19q-1 -8 -11 -8h-310q-14 0 -11 12l117 661q1 14 17 14h308q7 0 6 -7zM411 756q0 -3 -1 -4l-7 -9q-2 -3 -6 -3q-2 0 -3 1l-130 86q-4 3 -4 7t3 7l19 22
q5 5 9 5q2 0 8 -4l111 -105q1 -1 1 -3z" />
    <glyph glyph-name="Eacute" unicode="&#xc9;" horiz-adv-x="487" 
d="M478 661q-2 -7 -11 -7h-278l-48 -276h240q10 0 8 -8l-3 -17q-2 -8 -10 -8h-241l-55 -311h283q6 0 7.5 -2t1.5 -5l-4 -19q-1 -8 -11 -8h-310q-14 0 -11 12l117 661q1 14 17 14h308q7 0 6 -7zM453 836q0 -5 -7 -9l-160 -86q-2 -1 -4 -1q-3 0 -4 3l-4 8l-1 3q0 3 3 5
l149 105q5 4 9 4t7 -5l10 -20q2 -4 2 -7z" />
    <glyph glyph-name="Ecircumflex" unicode="&#xca;" horiz-adv-x="487" 
d="M478 661q-2 -7 -11 -7h-278l-48 -276h240q10 0 8 -8l-3 -17q-2 -8 -10 -8h-241l-55 -311h283q6 0 7.5 -2t1.5 -5l-4 -19q-1 -8 -11 -8h-310q-14 0 -11 12l117 661q1 14 17 14h308q7 0 6 -7zM444 742q-4 -5 -10 0l-77 79l-108 -83q-5 -3 -8 1l-5 6q-4 3 2 9l116 111
q2 1 3 2t3 1h12q1 0 4 -3l73 -108q4 -7 0 -10z" />
    <glyph glyph-name="Ecaron" unicode="&#x11a;" horiz-adv-x="487" 
d="M478 661q-2 -7 -11 -7h-278l-48 -276h240q10 0 8 -8l-3 -17q-2 -8 -10 -8h-241l-55 -311h283q6 0 7.5 -2t1.5 -5l-4 -19q-1 -8 -11 -8h-310q-14 0 -11 12l117 661q1 14 17 14h308q7 0 6 -7zM452 861q4 -4 -1 -9l-117 -111q-3 -3 -5 -3h-12q-2 0 -5 3l-73 108q-4 6 0 10
l5 5q5 5 10 0l77 -79l109 83q3 3 8 -1z" />
    <glyph glyph-name="Edieresis" unicode="&#xcb;" horiz-adv-x="487" 
d="M478 661q-2 -7 -11 -7h-278l-48 -276h240q10 0 8 -8l-3 -17q-2 -8 -10 -8h-241l-55 -311h283q6 0 7.5 -2t1.5 -5l-4 -19q-1 -8 -11 -8h-310q-14 0 -11 12l117 661q1 14 17 14h308q7 0 6 -7zM447 802q0 -16 -11.5 -29t-28.5 -13q-12 0 -20.5 8t-8.5 21q0 17 12 28t29 11
q12 0 20 -6.5t8 -19.5zM294 802q0 -16 -11.5 -29t-28.5 -13q-12 0 -20.5 8t-8.5 21q0 17 12 28t29 11q12 0 20 -6.5t8 -19.5z" />
    <glyph glyph-name="Emacron" unicode="&#x112;" horiz-adv-x="487" 
d="M478 661q-2 -7 -11 -7h-278l-48 -276h240q10 0 8 -8l-3 -17q-2 -8 -10 -8h-241l-55 -311h283q6 0 7.5 -2t1.5 -5l-4 -19q-1 -8 -11 -8h-310q-14 0 -11 12l117 661q1 14 17 14h308q7 0 6 -7zM448 791q-2 -8 -4.5 -10t-8.5 -2h-200q-7 0 -9.5 1.5t-0.5 10.5l2 11
q2 8 4.5 9.5t9.5 1.5h202q5 0 7 -1.5t0 -9.5z" />
    <glyph glyph-name="Ebreve" unicode="&#x114;" horiz-adv-x="487" 
d="M478 661q-2 -7 -11 -7h-278l-48 -276h240q10 0 8 -8l-3 -17q-2 -8 -10 -8h-241l-55 -311h283q6 0 7.5 -2t1.5 -5l-4 -19q-1 -8 -11 -8h-310q-14 0 -11 12l117 661q1 14 17 14h308q7 0 6 -7zM459 847q-13 -41 -48 -68.5t-77 -27.5q-44 0 -67.5 26.5t-23.5 69.5q0 11 7 11
h17q7 0 8 -8q6 -31 22.5 -49.5t42.5 -18.5q27 0 49.5 18t39.5 50q5 8 10 8h16q7 0 7 -5z" />
    <glyph glyph-name="Edotaccent" unicode="&#x116;" horiz-adv-x="487" 
d="M478 661q-2 -7 -11 -7h-278l-48 -276h240q10 0 8 -8l-3 -17q-2 -8 -10 -8h-241l-55 -311h283q6 0 7.5 -2t1.5 -5l-4 -19q-1 -8 -11 -8h-310q-14 0 -11 12l117 661q1 14 17 14h308q7 0 6 -7zM373 820q0 -17 -13 -31.5t-31 -14.5q-13 0 -22 8.5t-9 22.5q0 19 13 31t32 12
q13 0 21.5 -7t8.5 -21z" />
    <glyph glyph-name="Eogonek" unicode="&#x118;" horiz-adv-x="487" 
d="M317 -179q0 -7 -6 -9q-15 -6 -32.5 -8.5t-34.5 -2.5q-38 0 -56 20.5t-18 44.5q0 21 8.5 41t22.5 37t31.5 31t34.5 25h-220q-14 0 -11 12l117 661q1 14 17 14h308q7 0 6 -7l-6 -19q-2 -7 -11 -7h-278l-48 -276h240q10 0 8 -8l-3 -17q-2 -8 -10 -8h-241l-55 -311h283
q6 0 7.5 -2t1.5 -5l-4 -19q-1 -8 -11 -8h-68q-14 -11 -29 -25.5t-27.5 -31t-20.5 -34.5t-8 -37q0 -26 17 -36.5t38 -10.5q8 0 22.5 2t26.5 5q2 1 6 1.5t4 -3.5z" />
    <glyph glyph-name="Gcircumflex" unicode="&#x11c;" horiz-adv-x="623" 
d="M564 628q-2 -2 -5 -3.5t-6 0.5q-28 20 -65 29.5t-76 9.5q-75 0 -133.5 -38t-99 -96.5t-62 -129.5t-21.5 -138q0 -48 10 -91.5t33.5 -75.5t61 -51t92.5 -19q36 0 77.5 9.5t78.5 26.5l50 284h-121q-8 0 -7 7l3 18q2 8 9 8h152q9 0 8 -10l-54 -305q-2 -12 -7 -18t-22 -14
q-45 -21 -89 -30.5t-90 -9.5q-62 0 -105.5 19.5t-71.5 55t-41 85t-13 108.5q0 50 11.5 102t33 101t53 92t71.5 75t88.5 50.5t104.5 18.5q44 0 86 -9.5t74 -32.5q5 -4 2 -9zM524 742q-4 -5 -10 0l-77 79l-108 -83q-5 -3 -8 1l-5 6q-4 3 2 9l116 111q2 1 3 2t3 1h12q1 0 4 -3
l73 -108q4 -7 0 -10z" />
    <glyph glyph-name="Gbreve" unicode="&#x11e;" horiz-adv-x="623" 
d="M564 628q-2 -2 -5 -3.5t-6 0.5q-28 20 -65 29.5t-76 9.5q-75 0 -133.5 -38t-99 -96.5t-62 -129.5t-21.5 -138q0 -48 10 -91.5t33.5 -75.5t61 -51t92.5 -19q36 0 77.5 9.5t78.5 26.5l50 284h-121q-8 0 -7 7l3 18q2 8 9 8h152q9 0 8 -10l-54 -305q-2 -12 -7 -18t-22 -14
q-45 -21 -89 -30.5t-90 -9.5q-62 0 -105.5 19.5t-71.5 55t-41 85t-13 108.5q0 50 11.5 102t33 101t53 92t71.5 75t88.5 50.5t104.5 18.5q44 0 86 -9.5t74 -32.5q5 -4 2 -9zM536 847q-13 -41 -48 -68.5t-77 -27.5q-44 0 -67.5 26.5t-23.5 69.5q0 11 7 11h17q7 0 8 -8
q6 -31 22.5 -49.5t42.5 -18.5q27 0 49.5 18t39.5 50q5 8 10 8h16q7 0 7 -5z" />
    <glyph glyph-name="Gdotaccent" unicode="&#x120;" horiz-adv-x="623" 
d="M564 628q-2 -2 -5 -3.5t-6 0.5q-28 20 -65 29.5t-76 9.5q-75 0 -133.5 -38t-99 -96.5t-62 -129.5t-21.5 -138q0 -48 10 -91.5t33.5 -75.5t61 -51t92.5 -19q36 0 77.5 9.5t78.5 26.5l50 284h-121q-8 0 -7 7l3 18q2 8 9 8h152q9 0 8 -10l-54 -305q-2 -12 -7 -18t-22 -14
q-45 -21 -89 -30.5t-90 -9.5q-62 0 -105.5 19.5t-71.5 55t-41 85t-13 108.5q0 50 11.5 102t33 101t53 92t71.5 75t88.5 50.5t104.5 18.5q44 0 86 -9.5t74 -32.5q5 -4 2 -9zM464 820q0 -17 -13 -31.5t-31 -14.5q-13 0 -22 8.5t-9 22.5q0 19 13 31t32 12q13 0 21.5 -7t8.5 -21
z" />
    <glyph glyph-name="Gcommaaccent" unicode="&#x122;" horiz-adv-x="623" 
d="M564 628q-2 -2 -5 -3.5t-6 0.5q-28 20 -65 29.5t-76 9.5q-75 0 -133.5 -38t-99 -96.5t-62 -129.5t-21.5 -138q0 -48 10 -91.5t33.5 -75.5t61 -51t92.5 -19q36 0 77.5 9.5t78.5 26.5l50 284h-121q-8 0 -7 7l3 18q2 8 9 8h152q9 0 8 -10l-54 -305q-2 -12 -7 -18t-22 -14
q-45 -21 -89 -30.5t-90 -9.5q-62 0 -105.5 19.5t-71.5 55t-41 85t-13 108.5q0 50 11.5 102t33 101t53 92t71.5 75t88.5 50.5t104.5 18.5q44 0 86 -9.5t74 -32.5q5 -4 2 -9zM296 -71q0 -14 -6 -30t-13 -28q-19 -34 -52 -60q-3 -3 -5 -3q-3 0 -3 2l-3 4q-1 1 -1 2q0 2 1.5 3
t2.5 3q12 10 22.5 24t13.5 32q1 2 1 7q0 16 -8 25.5t-8 20.5q0 13 9.5 21t21.5 8q11 0 19 -8.5t8 -22.5z" />
    <glyph glyph-name="Hcircumflex" unicode="&#x124;" horiz-adv-x="636" 
d="M483 9q-1 -9 -9 -9h-24q-5 0 -6.5 1.5t-0.5 8.5l59 335h-367l-59 -336q-1 -9 -10 -9h-25q-6 0 -5 9l118 669q1 9 10 9h24q5 0 6 -2.5t0 -7.5l-53 -299h367l53 301q1 8 10 8h24q7 0 6 -9zM491 742q-4 -5 -10 0l-77 79l-108 -83q-5 -3 -8 1l-5 6q-4 3 2 9l116 111q2 1 3 2
t3 1h12q1 0 4 -3l73 -108q4 -7 0 -10z" />
    <glyph glyph-name="Hbar" unicode="&#x126;" horiz-adv-x="636" 
d="M581 564h26q12 0 9 -12l-1 -11q-2 -8 -5.5 -10.5t-8.5 -2.5h-27l-91 -519q-1 -9 -9 -9h-24q-5 0 -6.5 1.5t-0.5 8.5l59 335h-367l-59 -336q-1 -9 -10 -9h-25q-6 0 -5 9l91 519h-27q-10 0 -9 10l3 18q2 8 12 8h28l20 114q1 9 10 9h24q5 0 6 -2.5t0 -7.5l-20 -113h367
l20 115q1 8 10 8h24q7 0 6 -9zM508 378l26 150h-367l-26 -150h367z" />
    <glyph glyph-name="Igrave" unicode="&#xcc;" horiz-adv-x="350" 
d="M326 666q-1 -7 -7 -7h-71l-111 -630h71q6 0 5 -6l-3 -17q-2 -6 -7 -6h-177q-6 0 -5 6l3 17q1 6 7 6h66l111 630h-68q-7 0 -6 7l3 16q1 5 7 5h179q7 0 6 -6zM317 756q0 -3 -1 -4l-7 -9q-2 -3 -6 -3q-2 0 -3 1l-130 86q-4 3 -4 7t3 7l19 22q5 5 9 5q2 0 8 -4l111 -105
q1 -1 1 -3z" />
    <glyph glyph-name="Iacute" unicode="&#xcd;" horiz-adv-x="350" 
d="M326 666q-1 -7 -7 -7h-71l-111 -630h71q6 0 5 -6l-3 -17q-2 -6 -7 -6h-177q-6 0 -5 6l3 17q1 6 7 6h66l111 630h-68q-7 0 -6 7l3 16q1 5 7 5h179q7 0 6 -6zM347 836q0 -5 -7 -9l-160 -86q-2 -1 -4 -1q-3 0 -4 3l-4 8l-1 3q0 3 3 5l149 105q5 4 9 4t7 -5l10 -20q2 -4 2 -7
z" />
    <glyph glyph-name="Icircumflex" unicode="&#xce;" horiz-adv-x="350" 
d="M326 666q-1 -7 -7 -7h-71l-111 -630h71q6 0 5 -6l-3 -17q-2 -6 -7 -6h-177q-6 0 -5 6l3 17q1 6 7 6h66l111 630h-68q-7 0 -6 7l3 16q1 5 7 5h179q7 0 6 -6zM341 742q-4 -5 -10 0l-77 79l-108 -83q-5 -3 -8 1l-5 6q-4 3 2 9l116 111q2 1 3 2t3 1h12q1 0 4 -3l73 -108
q4 -7 0 -10z" />
    <glyph glyph-name="Itilde" unicode="&#x128;" horiz-adv-x="350" 
d="M326 666q-1 -7 -7 -7h-71l-111 -630h71q6 0 5 -6l-3 -17q-2 -6 -7 -6h-177q-6 0 -5 6l3 17q1 6 7 6h66l111 630h-68q-7 0 -6 7l3 16q1 5 7 5h179q7 0 6 -6zM391 816q4 -3 2 -7t-5 -6q-11 -8 -24 -17t-27 -16.5t-28 -12.5t-26 -5q-13 0 -23.5 7.5t-21 17t-22 17t-26.5 7.5
q-11 0 -33.5 -11.5t-38.5 -22.5q-5 -3 -7.5 -3t-5.5 6l-5 11q-3 6 1.5 10.5t9.5 7.5q20 14 45.5 24t43.5 10q15 0 27 -7.5t23 -16.5t22.5 -16.5t24.5 -7.5q6 0 16 5t21.5 11.5t21.5 13t16 10.5q4 3 6 2t5 -4z" />
    <glyph glyph-name="Idieresis" unicode="&#xcf;" horiz-adv-x="350" 
d="M326 666q-1 -7 -7 -7h-71l-111 -630h71q6 0 5 -6l-3 -17q-2 -6 -7 -6h-177q-6 0 -5 6l3 17q1 6 7 6h66l111 630h-68q-7 0 -6 7l3 16q1 5 7 5h179q7 0 6 -6zM365 802q0 -16 -11.5 -29t-28.5 -13q-12 0 -20.5 8t-8.5 21q0 17 12 28t29 11q12 0 20 -6.5t8 -19.5zM212 802
q0 -16 -11.5 -29t-28.5 -13q-12 0 -20.5 8t-8.5 21q0 17 12 28t29 11q12 0 20 -6.5t8 -19.5z" />
    <glyph glyph-name="Imacron" unicode="&#x12a;" horiz-adv-x="350" 
d="M326 666q-1 -7 -7 -7h-71l-111 -630h71q6 0 5 -6l-3 -17q-2 -6 -7 -6h-177q-6 0 -5 6l3 17q1 6 7 6h66l111 630h-68q-7 0 -6 7l3 16q1 5 7 5h179q7 0 6 -6zM361 791q-2 -8 -4.5 -10t-8.5 -2h-200q-7 0 -9.5 1.5t-0.5 10.5l2 11q2 8 4.5 9.5t9.5 1.5h202q5 0 7 -1.5
t0 -9.5z" />
    <glyph glyph-name="Ibreve" unicode="&#x12c;" horiz-adv-x="350" 
d="M326 666q-1 -7 -7 -7h-71l-111 -630h71q6 0 5 -6l-3 -17q-2 -6 -7 -6h-177q-6 0 -5 6l3 17q1 6 7 6h66l111 630h-68q-7 0 -6 7l3 16q1 5 7 5h179q7 0 6 -6zM365 847q-13 -41 -48 -68.5t-77 -27.5q-44 0 -67.5 26.5t-23.5 69.5q0 11 7 11h17q7 0 8 -8q6 -31 22.5 -49.5
t42.5 -18.5q27 0 49.5 18t39.5 50q5 8 10 8h16q7 0 7 -5z" />
    <glyph glyph-name="Idotaccent" unicode="&#x130;" horiz-adv-x="350" 
d="M326 666q-1 -7 -7 -7h-71l-111 -630h71q6 0 5 -6l-3 -17q-2 -6 -7 -6h-177q-6 0 -5 6l3 17q1 6 7 6h66l111 630h-68q-7 0 -6 7l3 16q1 5 7 5h179q7 0 6 -6zM291 820q0 -17 -13 -31.5t-31 -14.5q-13 0 -22 8.5t-9 22.5q0 19 13 31t32 12q13 0 21.5 -7t8.5 -21z" />
    <glyph glyph-name="Iogonek" unicode="&#x12e;" horiz-adv-x="350" 
d="M159 -179q0 -7 -6 -9q-15 -6 -32.5 -8.5t-34.5 -2.5q-38 0 -56 20.5t-18 44.5q0 21 8.5 41t22.5 37t31.5 31t34.5 25h-83q-6 0 -5 6l3 17q1 6 7 6h66l111 630h-68q-7 0 -6 7l3 16q1 5 7 5h179q7 0 6 -6l-3 -15q-1 -7 -7 -7h-71l-111 -630h71q6 0 5 -6l-3 -17q-2 -6 -7 -6
h-72q-14 -11 -29 -25.5t-27.5 -31t-20.5 -34.5t-8 -37q0 -26 17 -36.5t38 -10.5q8 0 22.5 2t26.5 5q2 1 6 1.5t4 -3.5z" />
    <glyph glyph-name="IJ" unicode="&#x132;" horiz-adv-x="698" 
d="M326 666q-1 -7 -7 -7h-71l-111 -630h71q6 0 5 -6l-3 -17q-2 -6 -7 -6h-177q-6 0 -5 6l3 17q1 6 7 6h66l111 630h-68q-7 0 -6 7l3 16q1 5 7 5h179q7 0 6 -6zM581 228q-12 -69 -29 -120.5t-52 -80.5q-20 -16 -49 -26t-70 -10q-9 0 -20 1t-19 3q-9 2 -6 11l5 14q3 7 11 5
q10 -2 20.5 -3t18.5 -1q28 0 56.5 10.5t45.5 34.5q16 23 26 58.5t18 78.5l80 456h-118q-6 0 -5 7l2 16q1 5 7 5h152q7 0 6 -6z" />
    <glyph glyph-name="Jcircumflex" unicode="&#x134;" horiz-adv-x="363" 
d="M246 228q-12 -69 -29 -120.5t-52 -80.5q-20 -16 -49 -26t-70 -10q-9 0 -20 1t-19 3q-9 2 -6 11l5 14q3 7 11 5q10 -2 20.5 -3t18.5 -1q28 0 56.5 10.5t45.5 34.5q16 23 26 58.5t18 78.5l80 456h-118q-6 0 -5 7l2 16q1 5 7 5h152q7 0 6 -6zM351 742q-4 -5 -10 0l-77 79
l-108 -83q-5 -3 -8 1l-5 6q-4 3 2 9l116 111q2 1 3 2t3 1h12q1 0 4 -3l73 -108q4 -7 0 -10z" />
    <glyph glyph-name="Kcommaaccent" unicode="&#x136;" horiz-adv-x="481" 
d="M177 355l232 -346q2 -3 1.5 -6t-5.5 -3h-33q-7 0 -10 1.5t-8 9.5l-218 332h-1l-59 -332q-2 -11 -11 -11h-23q-8 0 -6 11l117 666q2 10 11 10h23q8 0 6 -11l-55 -314h1l328 320q5 5 12 5h25q5 0 6.5 -2.5t-1.5 -5.5zM218 -71q0 -14 -6 -30t-13 -28q-19 -34 -52 -60
q-3 -3 -5 -3q-3 0 -3 2l-3 4q-1 1 -1 2q0 2 1.5 3t2.5 3q12 10 22.5 24t13.5 32q1 2 1 7q0 16 -8 25.5t-8 20.5q0 13 9.5 21t21.5 8q11 0 19 -8.5t8 -22.5z" />
    <glyph glyph-name="Lacute" unicode="&#x139;" horiz-adv-x="417" 
d="M336 6q-1 -6 -8 -6h-286q-7 0 -6 10l118 668q1 9 7 9h28q6 0 5 -9l-114 -644h253q9 0 7 -7zM333 836q0 -5 -7 -9l-160 -86q-2 -1 -4 -1q-3 0 -4 3l-4 8l-1 3q0 3 3 5l149 105q5 4 9 4t7 -5l10 -20q2 -4 2 -7z" />
    <glyph glyph-name="Lcaron" unicode="&#x13d;" horiz-adv-x="417" 
d="M336 6q-1 -6 -8 -6h-286q-7 0 -6 10l118 668q1 9 7 9h28q6 0 5 -9l-114 -644h253q9 0 7 -7zM405 657q0 -14 -6 -30t-13 -28q-19 -34 -52 -60q-3 -3 -5 -3q-3 0 -3 2l-3 4q-1 1 -1 2q0 2 1.5 3t2.5 3q12 10 22.5 24t13.5 32q1 2 1 7q0 16 -8 25.5t-8 20.5q0 13 9.5 21
t21.5 8q11 0 19 -8.5t8 -22.5z" />
    <glyph glyph-name="Lcommaaccent" unicode="&#x13b;" horiz-adv-x="417" 
d="M336 6q-1 -6 -8 -6h-286q-7 0 -6 10l118 668q1 9 7 9h28q6 0 5 -9l-114 -644h253q9 0 7 -7zM210 -71q0 -14 -6 -30t-13 -28q-19 -34 -52 -60q-3 -3 -5 -3q-3 0 -3 2l-3 4q-1 1 -1 2q0 2 1.5 3t2.5 3q12 10 22.5 24t13.5 32q1 2 1 7q0 16 -8 25.5t-8 20.5q0 13 9.5 21
t21.5 8q11 0 19 -8.5t8 -22.5z" />
    <glyph glyph-name="Lslash" unicode="&#x141;" horiz-adv-x="425" 
d="M336 6q0 -6 -8 -6h-286q-7 0 -6 10l64 359l-79 -44q-6 -3 -8.5 1t-0.5 9l3 18q1 4 3.5 4.5t7.5 3.5l80 45l48 272q1 9 8 9h28q5 0 4 -9l-44 -247l126 70q13 7 11 -7l-2 -11q-2 -8 -6 -12t-9 -6l-126 -71l-64 -360h253q9 0 7 -7z" />
    <glyph glyph-name="Ldot" unicode="&#x13f;" horiz-adv-x="417" 
d="M336 6q-1 -6 -8 -6h-286q-7 0 -6 10l118 668q1 9 7 9h28q6 0 5 -9l-114 -644h253q9 0 7 -7zM336 297q0 -17 -13 -31.5t-31 -14.5q-13 0 -22 8.5t-9 22.5q0 19 13 31t32 12q13 0 21.5 -7t8.5 -21z" />
    <glyph glyph-name="Nacute" unicode="&#x143;" horiz-adv-x="663" 
d="M509 9q-1 -6 -4 -7.5t-6 -1.5h-18q-6 0 -12 13l-287 601h-1l-107 -604q-1 -7 -3.5 -8.5t-7.5 -1.5h-19q-8 0 -7 9l118 670q2 8 10 8h19q6 0 9 -7l290 -600h1l105 599q2 8 9 8h25q6 0 4 -8zM529 836q0 -5 -7 -9l-160 -86q-2 -1 -4 -1q-3 0 -4 3l-4 8l-1 3q0 3 3 5l149 105
q5 4 9 4t7 -5l10 -20q2 -4 2 -7z" />
    <glyph glyph-name="Ncaron" unicode="&#x147;" horiz-adv-x="663" 
d="M509 9q-1 -6 -4 -7.5t-6 -1.5h-18q-6 0 -12 13l-287 601h-1l-107 -604q-1 -7 -3.5 -8.5t-7.5 -1.5h-19q-8 0 -7 9l118 670q2 8 10 8h19q6 0 9 -7l290 -600h1l105 599q2 8 9 8h25q6 0 4 -8zM534 861q4 -4 -1 -9l-117 -111q-3 -3 -5 -3h-12q-2 0 -5 3l-73 108q-4 6 0 10
l5 5q5 5 10 0l77 -79l109 83q3 3 8 -1z" />
    <glyph glyph-name="Ntilde" unicode="&#xd1;" horiz-adv-x="663" 
d="M509 9q-1 -6 -4 -7.5t-6 -1.5h-18q-6 0 -12 13l-287 601h-1l-107 -604q-1 -7 -3.5 -8.5t-7.5 -1.5h-19q-8 0 -7 9l118 670q2 8 10 8h19q6 0 9 -7l290 -600h1l105 599q2 8 9 8h25q6 0 4 -8zM552 816q4 -3 2 -7t-5 -6q-11 -8 -24 -17t-27 -16.5t-28 -12.5t-26 -5
q-13 0 -23.5 7.5t-21 17t-22 17t-26.5 7.5q-11 0 -33.5 -11.5t-38.5 -22.5q-5 -3 -7.5 -3t-5.5 6l-5 11q-3 6 1.5 10.5t9.5 7.5q20 14 45.5 24t43.5 10q15 0 27 -7.5t23 -16.5t22.5 -16.5t24.5 -7.5q6 0 16 5t21.5 11.5t21.5 13t16 10.5q4 3 6 2t5 -4z" />
    <glyph glyph-name="Ncommaaccent" unicode="&#x145;" horiz-adv-x="663" 
d="M509 9q-1 -6 -4 -7.5t-6 -1.5h-18q-6 0 -12 13l-287 601h-1l-107 -604q-1 -7 -3.5 -8.5t-7.5 -1.5h-19q-8 0 -7 9l118 670q2 8 10 8h19q6 0 9 -7l290 -600h1l105 599q2 8 9 8h25q6 0 4 -8zM290 -71q0 -14 -6 -30t-13 -28q-19 -34 -52 -60q-3 -3 -5 -3q-3 0 -3 2l-3 4
q-1 1 -1 2q0 2 1.5 3t2.5 3q12 10 22.5 24t13.5 32q1 2 1 7q0 16 -8 25.5t-8 20.5q0 13 9.5 21t21.5 8q11 0 19 -8.5t8 -22.5z" />
    <glyph glyph-name="Eng" unicode="&#x14a;" horiz-adv-x="663" 
d="M339 -168q33 0 55 12t36 32.5t22 47.5t14 57l5 28l-289 605h-1l-107 -604q-1 -7 -3.5 -8.5t-7.5 -1.5h-19q-8 0 -7 9l118 670q2 8 10 8h19q6 0 9 -7l290 -600h1l105 599q2 8 9 8h25q6 0 4 -8l-118 -670q-11 -65 -25.5 -107.5t-46.5 -68.5q-17 -14 -41 -22.5t-62 -8.5
q-9 0 -21 1.5t-19 3.5q-9 3 -6 12l3 12q2 7 10 5q10 -2 20 -3t18 -1z" />
    <glyph glyph-name="Ograve" unicode="&#xd2;" horiz-adv-x="636" 
d="M589 454q0 -49 -9 -102t-27.5 -104.5t-46.5 -98t-65.5 -81.5t-85 -56t-104.5 -21q-55 0 -93.5 19t-63 51.5t-35.5 76.5t-11 94q0 49 9 102.5t27.5 105t46.5 98.5t65.5 82.5t84.5 56.5t104 21q55 0 94 -19.5t63.5 -52.5t35.5 -77.5t11 -94.5zM543 452q0 41 -8 79t-27 67.5
t-50.5 47t-78.5 17.5q-48 0 -88 -20t-72 -53.5t-55.5 -77.5t-39 -91t-23 -94t-7.5 -88t8 -79.5t27 -68.5t50.5 -48t78.5 -18q49 0 89 20t71.5 54t55 78t39 91t23 95t7.5 89zM460 756q0 -3 -1 -4l-7 -9q-2 -3 -6 -3q-2 0 -3 1l-130 86q-4 3 -4 7t3 7l19 22q5 5 9 5q2 0 8 -4
l111 -105q1 -1 1 -3z" />
    <glyph glyph-name="Oacute" unicode="&#xd3;" horiz-adv-x="636" 
d="M589 454q0 -49 -9 -102t-27.5 -104.5t-46.5 -98t-65.5 -81.5t-85 -56t-104.5 -21q-55 0 -93.5 19t-63 51.5t-35.5 76.5t-11 94q0 49 9 102.5t27.5 105t46.5 98.5t65.5 82.5t84.5 56.5t104 21q55 0 94 -19.5t63.5 -52.5t35.5 -77.5t11 -94.5zM543 452q0 41 -8 79t-27 67.5
t-50.5 47t-78.5 17.5q-48 0 -88 -20t-72 -53.5t-55.5 -77.5t-39 -91t-23 -94t-7.5 -88t8 -79.5t27 -68.5t50.5 -48t78.5 -18q49 0 89 20t71.5 54t55 78t39 91t23 95t7.5 89zM521 836q0 -5 -7 -9l-160 -86q-2 -1 -4 -1q-3 0 -4 3l-4 8l-1 3q0 3 3 5l149 105q5 4 9 4t7 -5
l10 -20q2 -4 2 -7z" />
    <glyph glyph-name="Ocircumflex" unicode="&#xd4;" horiz-adv-x="636" 
d="M589 454q0 -49 -9 -102t-27.5 -104.5t-46.5 -98t-65.5 -81.5t-85 -56t-104.5 -21q-55 0 -93.5 19t-63 51.5t-35.5 76.5t-11 94q0 49 9 102.5t27.5 105t46.5 98.5t65.5 82.5t84.5 56.5t104 21q55 0 94 -19.5t63.5 -52.5t35.5 -77.5t11 -94.5zM543 452q0 41 -8 79t-27 67.5
t-50.5 47t-78.5 17.5q-48 0 -88 -20t-72 -53.5t-55.5 -77.5t-39 -91t-23 -94t-7.5 -88t8 -79.5t27 -68.5t50.5 -48t78.5 -18q49 0 89 20t71.5 54t55 78t39 91t23 95t7.5 89zM489 742q-4 -5 -10 0l-77 79l-108 -83q-5 -3 -8 1l-5 6q-4 3 2 9l116 111q2 1 3 2t3 1h12q1 0 4 -3
l73 -108q4 -7 0 -10z" />
    <glyph glyph-name="Otilde" unicode="&#xd5;" horiz-adv-x="636" 
d="M589 454q0 -49 -9 -102t-27.5 -104.5t-46.5 -98t-65.5 -81.5t-85 -56t-104.5 -21q-55 0 -93.5 19t-63 51.5t-35.5 76.5t-11 94q0 49 9 102.5t27.5 105t46.5 98.5t65.5 82.5t84.5 56.5t104 21q55 0 94 -19.5t63.5 -52.5t35.5 -77.5t11 -94.5zM543 452q0 41 -8 79t-27 67.5
t-50.5 47t-78.5 17.5q-48 0 -88 -20t-72 -53.5t-55.5 -77.5t-39 -91t-23 -94t-7.5 -88t8 -79.5t27 -68.5t50.5 -48t78.5 -18q49 0 89 20t71.5 54t55 78t39 91t23 95t7.5 89zM564 816q4 -3 2 -7t-5 -6q-11 -8 -24 -17t-27 -16.5t-28 -12.5t-26 -5q-13 0 -23.5 7.5t-21 17
t-22 17t-26.5 7.5q-11 0 -33.5 -11.5t-38.5 -22.5q-5 -3 -7.5 -3t-5.5 6l-5 11q-3 6 1.5 10.5t9.5 7.5q20 14 45.5 24t43.5 10q15 0 27 -7.5t23 -16.5t22.5 -16.5t24.5 -7.5q6 0 16 5t21.5 11.5t21.5 13t16 10.5q4 3 6 2t5 -4z" />
    <glyph glyph-name="Odieresis" unicode="&#xd6;" horiz-adv-x="636" 
d="M589 454q0 -49 -9 -102t-27.5 -104.5t-46.5 -98t-65.5 -81.5t-85 -56t-104.5 -21q-55 0 -93.5 19t-63 51.5t-35.5 76.5t-11 94q0 49 9 102.5t27.5 105t46.5 98.5t65.5 82.5t84.5 56.5t104 21q55 0 94 -19.5t63.5 -52.5t35.5 -77.5t11 -94.5zM543 452q0 41 -8 79t-27 67.5
t-50.5 47t-78.5 17.5q-48 0 -88 -20t-72 -53.5t-55.5 -77.5t-39 -91t-23 -94t-7.5 -88t8 -79.5t27 -68.5t50.5 -48t78.5 -18q49 0 89 20t71.5 54t55 78t39 91t23 95t7.5 89zM518 802q0 -16 -11.5 -29t-28.5 -13q-12 0 -20.5 8t-8.5 21q0 17 12 28t29 11q12 0 20 -6.5
t8 -19.5zM365 802q0 -16 -11.5 -29t-28.5 -13q-12 0 -20.5 8t-8.5 21q0 17 12 28t29 11q12 0 20 -6.5t8 -19.5z" />
    <glyph glyph-name="Omacron" unicode="&#x14c;" horiz-adv-x="636" 
d="M589 454q0 -49 -9 -102t-27.5 -104.5t-46.5 -98t-65.5 -81.5t-85 -56t-104.5 -21q-55 0 -93.5 19t-63 51.5t-35.5 76.5t-11 94q0 49 9 102.5t27.5 105t46.5 98.5t65.5 82.5t84.5 56.5t104 21q55 0 94 -19.5t63.5 -52.5t35.5 -77.5t11 -94.5zM543 452q0 41 -8 79t-27 67.5
t-50.5 47t-78.5 17.5q-48 0 -88 -20t-72 -53.5t-55.5 -77.5t-39 -91t-23 -94t-7.5 -88t8 -79.5t27 -68.5t50.5 -48t78.5 -18q49 0 89 20t71.5 54t55 78t39 91t23 95t7.5 89zM517 791q-2 -8 -4.5 -10t-8.5 -2h-200q-7 0 -9.5 1.5t-0.5 10.5l2 11q2 8 4.5 9.5t9.5 1.5h202
q5 0 7 -1.5t0 -9.5z" />
    <glyph glyph-name="Obreve" unicode="&#x14e;" horiz-adv-x="636" 
d="M589 454q0 -49 -9 -102t-27.5 -104.5t-46.5 -98t-65.5 -81.5t-85 -56t-104.5 -21q-55 0 -93.5 19t-63 51.5t-35.5 76.5t-11 94q0 49 9 102.5t27.5 105t46.5 98.5t65.5 82.5t84.5 56.5t104 21q55 0 94 -19.5t63.5 -52.5t35.5 -77.5t11 -94.5zM543 452q0 41 -8 79t-27 67.5
t-50.5 47t-78.5 17.5q-48 0 -88 -20t-72 -53.5t-55.5 -77.5t-39 -91t-23 -94t-7.5 -88t8 -79.5t27 -68.5t50.5 -48t78.5 -18q49 0 89 20t71.5 54t55 78t39 91t23 95t7.5 89zM511 847q-13 -41 -48 -68.5t-77 -27.5q-44 0 -67.5 26.5t-23.5 69.5q0 11 7 11h17q7 0 8 -8
q6 -31 22.5 -49.5t42.5 -18.5q27 0 49.5 18t39.5 50q5 8 10 8h16q7 0 7 -5z" />
    <glyph glyph-name="Ohungarumlaut" unicode="&#x150;" horiz-adv-x="636" 
d="M589 454q0 -49 -9 -102t-27.5 -104.5t-46.5 -98t-65.5 -81.5t-85 -56t-104.5 -21q-55 0 -93.5 19t-63 51.5t-35.5 76.5t-11 94q0 49 9 102.5t27.5 105t46.5 98.5t65.5 82.5t84.5 56.5t104 21q55 0 94 -19.5t63.5 -52.5t35.5 -77.5t11 -94.5zM543 452q0 41 -8 79t-27 67.5
t-50.5 47t-78.5 17.5q-48 0 -88 -20t-72 -53.5t-55.5 -77.5t-39 -91t-23 -94t-7.5 -88t8 -79.5t27 -68.5t50.5 -48t78.5 -18q49 0 89 20t71.5 54t55 78t39 91t23 95t7.5 89zM625 841q3 -9 -6 -14l-160 -86q-6 -4 -9 2l-4 9q-2 3 3 7l149 105q5 3 8.5 4t6.5 -5zM425 841
q3 -9 -6 -14l-160 -86q-6 -4 -9 2l-4 9q-2 3 3 7l149 105q5 3 8.5 4t6.5 -5z" />
    <glyph glyph-name="Oslash" unicode="&#xd8;" horiz-adv-x="661" 
d="M570 612q37 -62 36 -158q0 -49 -9 -102.5t-27.5 -105t-46.5 -97.5t-65.5 -81.5t-85 -56t-104.5 -20.5q-90 0 -141 53l-57 -72q-6 -9 -13 -4l-9 6q-5 3 -4 6t3 7l61 78q-40 56 -43 154q-1 50 7.5 104.5t27 107.5t46 101.5t65.5 85.5t86 58.5t106 21.5q97 0 151 -63l58 75
q7 9 13 5l10 -6q7 -5 2 -11zM525 599q-20 31 -52.5 47.5t-77.5 16.5q-48 0 -88 -20t-71 -53t-54.5 -76t-39 -89.5t-23.5 -93.5t-8 -87q0 -42 7 -77.5t21 -62.5zM561 445q0 38 -5.5 70t-16.5 58l-384 -493q20 -26 50.5 -40.5t71.5 -14.5q48 0 88 20t71.5 53t54.5 76
t38.5 89.5t23 93.5t8.5 88z" />
    <glyph glyph-name="Oslashacute" unicode="&#x1fe;" horiz-adv-x="661" 
d="M570 612q37 -62 36 -158q0 -49 -9 -102.5t-27.5 -105t-46.5 -97.5t-65.5 -81.5t-85 -56t-104.5 -20.5q-90 0 -141 53l-57 -72q-6 -9 -13 -4l-9 6q-5 3 -4 6t3 7l61 78q-40 56 -43 154q-1 50 7.5 104.5t27 107.5t46 101.5t65.5 85.5t86 58.5t106 21.5q97 0 151 -63l58 75
q7 9 13 5l10 -6q7 -5 2 -11zM525 599q-20 31 -52.5 47.5t-77.5 16.5q-48 0 -88 -20t-71 -53t-54.5 -76t-39 -89.5t-23.5 -93.5t-8 -87q0 -42 7 -77.5t21 -62.5zM561 445q0 38 -5.5 70t-16.5 58l-384 -493q20 -26 50.5 -40.5t71.5 -14.5q48 0 88 20t71.5 53t54.5 76
t38.5 89.5t23 93.5t8.5 88zM510 839q0 -5 -7 -9l-160 -86q-2 -1 -4 -1q-3 0 -4 3l-4 8l-1 3q0 3 3 5l149 105q5 4 9 4t7 -5l10 -20q2 -4 2 -7z" />
    <glyph glyph-name="OE" unicode="&#x152;" horiz-adv-x="888" 
d="M883 663q-2 -8 -14 -8h-276l-49 -275h243q8 0 7 -7l-3 -18q-1 -8 -11 -8h-242l-55 -313h285q8 0 7 -6l-4 -21q0 -7 -9 -7h-314q-10 0 -9 11l11 61q-48 -44 -103.5 -62.5t-101.5 -18.5q-99 0 -148.5 62t-49.5 182q0 49 9.5 102t28 104.5t47 98t66 81.5t84.5 56t104 21
q54 0 95 -20t65 -63l11 62q1 10 12 10h311q6 0 7 -2t0 -7zM537 566q-8 19 -20.5 36.5t-31.5 31t-44.5 21.5t-58.5 8q-48 0 -88 -20t-72 -53t-55.5 -76t-39.5 -89.5t-24 -93.5t-8 -88q0 -49 9.5 -89t30 -68.5t51 -44t72.5 -15.5q51 0 104.5 22.5t95.5 67.5z" />
    <glyph glyph-name="Thorn" unicode="&#xde;" horiz-adv-x="523" 
d="M444 346q-10 -57 -32.5 -100t-54.5 -72.5t-71.5 -44t-82.5 -14.5t-79 23t-52 62l-33 -190q-1 -10 -8 -10h-20q-8 0 -7 8l120 676q2 7 7 7h21q3 0 5.5 -2t1.5 -5l-36 -195q34 36 79.5 61.5t93.5 25.5q49 0 82 -17t50.5 -47.5t21 -73t-5.5 -92.5zM407 345
q17 98 -13.5 150.5t-106.5 52.5q-23 0 -47 -8t-46.5 -22t-43 -32.5t-35.5 -38.5l-34 -197q6 -21 17.5 -40.5t27 -34t35 -23t42.5 -8.5q78 0 132 49t72 152z" />
    <glyph glyph-name="Racute" unicode="&#x154;" horiz-adv-x="508" 
d="M483 543q0 -47 -19.5 -96.5t-57.5 -84.5q-24 -22 -53.5 -35t-61.5 -19l113 -297q4 -11 -6 -11h-27q-8 0 -12 9l-108 295h-123l-52 -296q-2 -8 -7 -8h-28q-7 0 -5 8l118 670q1 9 11 9h129q91 0 140 -34.5t49 -109.5zM438 540q0 33 -11 55t-32 35t-50.5 18.5t-66.5 5.5h-88
l-56 -317h105q45 0 83.5 14.5t65.5 45.5q25 27 37.5 66t12.5 77zM385 836q0 -5 -7 -9l-160 -86q-2 -1 -4 -1q-3 0 -4 3l-4 8l-1 3q0 3 3 5l149 105q5 4 9 4t7 -5l10 -20q2 -4 2 -7z" />
    <glyph glyph-name="Rcaron" unicode="&#x158;" horiz-adv-x="508" 
d="M483 543q0 -47 -19.5 -96.5t-57.5 -84.5q-24 -22 -53.5 -35t-61.5 -19l113 -297q4 -11 -6 -11h-27q-8 0 -12 9l-108 295h-123l-52 -296q-2 -8 -7 -8h-28q-7 0 -5 8l118 670q1 9 11 9h129q91 0 140 -34.5t49 -109.5zM438 540q0 33 -11 55t-32 35t-50.5 18.5t-66.5 5.5h-88
l-56 -317h105q45 0 83.5 14.5t65.5 45.5q25 27 37.5 66t12.5 77zM424 861q4 -4 -1 -9l-117 -111q-3 -3 -5 -3h-12q-2 0 -5 3l-73 108q-4 6 0 10l5 5q5 5 10 0l77 -79l109 83q3 3 8 -1z" />
    <glyph glyph-name="Rcommaaccent" unicode="&#x156;" horiz-adv-x="508" 
d="M483 543q0 -47 -19.5 -96.5t-57.5 -84.5q-24 -22 -53.5 -35t-61.5 -19l113 -297q4 -11 -6 -11h-27q-8 0 -12 9l-108 295h-123l-52 -296q-2 -8 -7 -8h-28q-7 0 -5 8l118 670q1 9 11 9h129q91 0 140 -34.5t49 -109.5zM438 540q0 33 -11 55t-32 35t-50.5 18.5t-66.5 5.5h-88
l-56 -317h105q45 0 83.5 14.5t65.5 45.5q25 27 37.5 66t12.5 77zM229 -71q0 -14 -6 -30t-13 -28q-19 -34 -52 -60q-3 -3 -5 -3q-3 0 -3 2l-3 4q-1 1 -1 2q0 2 1.5 3t2.5 3q12 10 22.5 24t13.5 32q1 2 1 7q0 16 -8 25.5t-8 20.5q0 13 9.5 21t21.5 8q11 0 19 -8.5t8 -22.5z
" />
    <glyph glyph-name="Sacute" unicode="&#x15a;" horiz-adv-x="475" 
d="M437 644q-2 -5 -5 -5t-7 2q-56 25 -116 25q-32 0 -62 -9.5t-54 -28t-38.5 -45.5t-14.5 -61q0 -38 19 -63.5t48 -44.5l91 -62q21 -14 39 -29t31.5 -32.5t21 -39.5t7.5 -49q0 -42 -18.5 -83.5t-50.5 -69.5q-34 -30 -78.5 -44t-93.5 -14q-32 0 -69.5 6.5t-64.5 16.5
q-11 4 -6 16l7 16q2 5 4.5 6.5t7.5 -0.5q29 -12 64 -19t64 -7q33 0 68 9.5t63 32.5q29 22 45.5 55t16.5 68q0 47 -23.5 74.5t-55.5 48.5l-108 72q-35 23 -54 55.5t-19 70.5q0 42 19 76.5t49 58.5t68.5 37.5t77.5 13.5q75 0 131 -26q7 -3 3 -12zM407 836q0 -5 -7 -9l-160 -86
q-2 -1 -4 -1q-3 0 -4 3l-4 8l-1 3q0 3 3 5l149 105q5 4 9 4t7 -5l10 -20q2 -4 2 -7z" />
    <glyph glyph-name="Scircumflex" unicode="&#x15c;" horiz-adv-x="475" 
d="M437 644q-2 -5 -5 -5t-7 2q-56 25 -116 25q-32 0 -62 -9.5t-54 -28t-38.5 -45.5t-14.5 -61q0 -38 19 -63.5t48 -44.5l91 -62q21 -14 39 -29t31.5 -32.5t21 -39.5t7.5 -49q0 -42 -18.5 -83.5t-50.5 -69.5q-34 -30 -78.5 -44t-93.5 -14q-32 0 -69.5 6.5t-64.5 16.5
q-11 4 -6 16l7 16q2 5 4.5 6.5t7.5 -0.5q29 -12 64 -19t64 -7q33 0 68 9.5t63 32.5q29 22 45.5 55t16.5 68q0 47 -23.5 74.5t-55.5 48.5l-108 72q-35 23 -54 55.5t-19 70.5q0 42 19 76.5t49 58.5t68.5 37.5t77.5 13.5q75 0 131 -26q7 -3 3 -12zM420 742q-4 -5 -10 0l-77 79
l-108 -83q-5 -3 -8 1l-5 6q-4 3 2 9l116 111q2 1 3 2t3 1h12q1 0 4 -3l73 -108q4 -7 0 -10z" />
    <glyph glyph-name="Scaron" unicode="&#x160;" horiz-adv-x="475" 
d="M437 644q-2 -5 -5 -5t-7 2q-56 25 -116 25q-32 0 -62 -9.5t-54 -28t-38.5 -45.5t-14.5 -61q0 -38 19 -63.5t48 -44.5l91 -62q21 -14 39 -29t31.5 -32.5t21 -39.5t7.5 -49q0 -42 -18.5 -83.5t-50.5 -69.5q-34 -30 -78.5 -44t-93.5 -14q-32 0 -69.5 6.5t-64.5 16.5
q-11 4 -6 16l7 16q2 5 4.5 6.5t7.5 -0.5q29 -12 64 -19t64 -7q33 0 68 9.5t63 32.5q29 22 45.5 55t16.5 68q0 47 -23.5 74.5t-55.5 48.5l-108 72q-35 23 -54 55.5t-19 70.5q0 42 19 76.5t49 58.5t68.5 37.5t77.5 13.5q75 0 131 -26q7 -3 3 -12zM418 861q4 -4 -1 -9
l-117 -111q-3 -3 -5 -3h-12q-2 0 -5 3l-73 108q-4 6 0 10l5 5q5 5 10 0l77 -79l109 83q3 3 8 -1z" />
    <glyph glyph-name="Scedilla" unicode="&#x15e;" horiz-adv-x="475" 
d="M240 -105q0 -20 -8.5 -36t-22 -27.5t-31.5 -17.5t-37 -6q-9 0 -20.5 1.5t-22.5 5.5l-7.5 3t-0.5 6l4 9q1 2 4 2t5 -1q11 -3 20 -4t19 -1q28 0 48 16t20 45q0 23 -18.5 30.5t-43.5 7.5h-10q-15 0 -12 12l14 52q-29 2 -62 7.5t-56 14.5q-11 4 -6 16l7 16q2 5 4.5 6.5
t7.5 -0.5q29 -12 64 -19t64 -7q33 0 68 9.5t63 32.5q29 22 45.5 55t16.5 68q0 47 -23.5 74.5t-55.5 48.5l-108 72q-35 23 -54 55.5t-19 70.5q0 42 19 76.5t49 58.5t68.5 37.5t77.5 13.5q75 0 131 -26q7 -3 3 -12l-7 -16q-2 -5 -5 -5t-7 2q-56 25 -116 25q-32 0 -62 -9.5
t-54 -28t-38.5 -45.5t-14.5 -61q0 -38 19 -63.5t48 -44.5l91 -62q21 -14 39 -29t31.5 -32.5t21 -39.5t7.5 -49q0 -42 -18.5 -83.5t-50.5 -69.5q-33 -29 -75.5 -43t-90.5 -15l-9 -43h12q31 0 53 -12t22 -41z" />
    <glyph glyph-name="Scommaaccent" unicode="&#x218;" horiz-adv-x="475" 
d="M437 644q-2 -5 -5 -5t-7 2q-56 25 -116 25q-32 0 -62 -9.5t-54 -28t-38.5 -45.5t-14.5 -61q0 -38 19 -63.5t48 -44.5l91 -62q21 -14 39 -29t31.5 -32.5t21 -39.5t7.5 -49q0 -42 -18.5 -83.5t-50.5 -69.5q-34 -30 -78.5 -44t-93.5 -14q-32 0 -69.5 6.5t-64.5 16.5
q-11 4 -6 16l7 16q2 5 4.5 6.5t7.5 -0.5q29 -12 64 -19t64 -7q33 0 68 9.5t63 32.5q29 22 45.5 55t16.5 68q0 47 -23.5 74.5t-55.5 48.5l-108 72q-35 23 -54 55.5t-19 70.5q0 42 19 76.5t49 58.5t68.5 37.5t77.5 13.5q75 0 131 -26q7 -3 3 -12zM195 -71q0 -14 -6 -30
t-13 -28q-19 -34 -52 -60q-3 -3 -5 -3q-3 0 -3 2l-3 4q-1 1 -1 2q0 2 1.5 3t2.5 3q12 10 22.5 24t13.5 32q1 2 1 7q0 16 -8 25.5t-8 20.5q0 13 9.5 21t21.5 8q11 0 19 -8.5t8 -22.5z" />
    <glyph glyph-name="Tcaron" unicode="&#x164;" horiz-adv-x="513" 
d="M539 661q-2 -7 -14 -7h-198l-114 -646q-2 -8 -10 -8h-23q-6 0 -7 1.5t0 6.5l114 646h-198q-7 0 -6 7l4 20q1 6 8 6h443q8 0 6 -7zM446 862q4 -4 -1 -9l-117 -111q-3 -3 -5 -3h-12q-2 0 -5 3l-73 108q-4 6 0 10l5 5q5 5 10 0l77 -79l109 83q3 3 8 -1z" />
    <glyph glyph-name="Tcommaaccent" unicode="&#x162;" horiz-adv-x="513" 
d="M539 661q-2 -7 -14 -7h-198l-114 -646q-2 -8 -10 -8h-23q-6 0 -7 1.5t0 6.5l114 646h-198q-7 0 -6 7l4 20q1 6 8 6h443q8 0 6 -7zM201 -71q0 -14 -6 -30t-13 -28q-19 -34 -52 -60q-3 -3 -5 -3q-3 0 -3 2l-3 4q-1 1 -1 2q0 2 1.5 3t2.5 3q12 10 22.5 24t13.5 32q1 2 1 7
q0 16 -8 25.5t-8 20.5q0 13 9.5 21t21.5 8q11 0 19 -8.5t8 -22.5z" />
    <glyph glyph-name="uni021A" unicode="&#x21a;" horiz-adv-x="513" 
d="M539 661q-2 -7 -14 -7h-198l-114 -646q-2 -8 -10 -8h-23q-6 0 -7 1.5t0 6.5l114 646h-198q-7 0 -6 7l4 20q1 6 8 6h443q8 0 6 -7zM201 -71q0 -14 -6 -30t-13 -28q-19 -34 -52 -60q-3 -3 -5 -3q-3 0 -3 2l-3 4q-1 1 -1 2q0 2 1.5 3t2.5 3q12 10 22.5 24t13.5 32q1 2 1 7
q0 16 -8 25.5t-8 20.5q0 13 9.5 21t21.5 8q11 0 19 -8.5t8 -22.5z" />
    <glyph glyph-name="Tbar" unicode="&#x166;" horiz-adv-x="513" 
d="M539 661q-2 -7 -14 -7h-198l-48 -273h98q12 0 9 -12l-1 -11q-2 -8 -5.5 -10.5t-8.5 -2.5h-99l-59 -337q-2 -8 -10 -8h-23q-6 0 -7 1.5t0 6.5l59 337h-86q-10 0 -9 10l3 18q2 8 12 8h87l48 273h-198q-7 0 -6 7l4 20q1 6 8 6h443q8 0 6 -7z" />
    <glyph glyph-name="Ugrave" unicode="&#xd9;" horiz-adv-x="681" 
d="M579 295q-12 -67 -35 -126t-64 -101q-35 -36 -85 -56.5t-113 -20.5q-57 0 -96 14.5t-63 38.5t-34 56.5t-10 68.5q0 29 3.5 64t10.5 72l65 371q1 11 11 11h22q10 0 7 -13l-64 -361q-6 -32 -10 -67.5t-4 -64.5q0 -35 7.5 -64t26.5 -49t51 -31t82 -11q67 0 112 24.5t73.5 65
t44.5 92.5t25 106l65 365q2 8 7 8h28q6 0 4 -9zM459 756q0 -3 -1 -4l-7 -9q-2 -3 -6 -3q-2 0 -3 1l-130 86q-4 3 -4 7t3 7l19 22q5 5 9 5q2 0 8 -4l111 -105q1 -1 1 -3z" />
    <glyph glyph-name="Uacute" unicode="&#xda;" horiz-adv-x="681" 
d="M579 295q-12 -67 -35 -126t-64 -101q-35 -36 -85 -56.5t-113 -20.5q-57 0 -96 14.5t-63 38.5t-34 56.5t-10 68.5q0 29 3.5 64t10.5 72l65 371q1 11 11 11h22q10 0 7 -13l-64 -361q-6 -32 -10 -67.5t-4 -64.5q0 -35 7.5 -64t26.5 -49t51 -31t82 -11q67 0 112 24.5t73.5 65
t44.5 92.5t25 106l65 365q2 8 7 8h28q6 0 4 -9zM534 836q0 -5 -7 -9l-160 -86q-2 -1 -4 -1q-3 0 -4 3l-4 8l-1 3q0 3 3 5l149 105q5 4 9 4t7 -5l10 -20q2 -4 2 -7z" />
    <glyph glyph-name="Ucircumflex" unicode="&#xdb;" horiz-adv-x="681" 
d="M579 295q-12 -67 -35 -126t-64 -101q-35 -36 -85 -56.5t-113 -20.5q-57 0 -96 14.5t-63 38.5t-34 56.5t-10 68.5q0 29 3.5 64t10.5 72l65 371q1 11 11 11h22q10 0 7 -13l-64 -361q-6 -32 -10 -67.5t-4 -64.5q0 -35 7.5 -64t26.5 -49t51 -31t82 -11q67 0 112 24.5t73.5 65
t44.5 92.5t25 106l65 365q2 8 7 8h28q6 0 4 -9zM513 742q-4 -5 -10 0l-77 79l-108 -83q-5 -3 -8 1l-5 6q-4 3 2 9l116 111q2 1 3 2t3 1h12q1 0 4 -3l73 -108q4 -7 0 -10z" />
    <glyph glyph-name="Utilde" unicode="&#x168;" horiz-adv-x="681" 
d="M579 295q-12 -67 -35 -126t-64 -101q-35 -36 -85 -56.5t-113 -20.5q-57 0 -96 14.5t-63 38.5t-34 56.5t-10 68.5q0 29 3.5 64t10.5 72l65 371q1 11 11 11h22q10 0 7 -13l-64 -361q-6 -32 -10 -67.5t-4 -64.5q0 -35 7.5 -64t26.5 -49t51 -31t82 -11q67 0 112 24.5t73.5 65
t44.5 92.5t25 106l65 365q2 8 7 8h28q6 0 4 -9zM582 816q4 -3 2 -7t-5 -6q-11 -8 -24 -17t-27 -16.5t-28 -12.5t-26 -5q-13 0 -23.5 7.5t-21 17t-22 17t-26.5 7.5q-11 0 -33.5 -11.5t-38.5 -22.5q-5 -3 -7.5 -3t-5.5 6l-5 11q-3 6 1.5 10.5t9.5 7.5q20 14 45.5 24t43.5 10
q15 0 27 -7.5t23 -16.5t22.5 -16.5t24.5 -7.5q6 0 16 5t21.5 11.5t21.5 13t16 10.5q4 3 6 2t5 -4z" />
    <glyph glyph-name="Udieresis" unicode="&#xdc;" horiz-adv-x="681" 
d="M579 295q-12 -67 -35 -126t-64 -101q-35 -36 -85 -56.5t-113 -20.5q-57 0 -96 14.5t-63 38.5t-34 56.5t-10 68.5q0 29 3.5 64t10.5 72l65 371q1 11 11 11h22q10 0 7 -13l-64 -361q-6 -32 -10 -67.5t-4 -64.5q0 -35 7.5 -64t26.5 -49t51 -31t82 -11q67 0 112 24.5t73.5 65
t44.5 92.5t25 106l65 365q2 8 7 8h28q6 0 4 -9zM534 802q0 -16 -11.5 -29t-28.5 -13q-12 0 -20.5 8t-8.5 21q0 17 12 28t29 11q12 0 20 -6.5t8 -19.5zM381 802q0 -16 -11.5 -29t-28.5 -13q-12 0 -20.5 8t-8.5 21q0 17 12 28t29 11q12 0 20 -6.5t8 -19.5z" />
    <glyph glyph-name="Umacron" unicode="&#x16a;" horiz-adv-x="681" 
d="M579 295q-12 -67 -35 -126t-64 -101q-35 -36 -85 -56.5t-113 -20.5q-57 0 -96 14.5t-63 38.5t-34 56.5t-10 68.5q0 29 3.5 64t10.5 72l65 371q1 11 11 11h22q10 0 7 -13l-64 -361q-6 -32 -10 -67.5t-4 -64.5q0 -35 7.5 -64t26.5 -49t51 -31t82 -11q67 0 112 24.5t73.5 65
t44.5 92.5t25 106l65 365q2 8 7 8h28q6 0 4 -9zM526 791q-2 -8 -4.5 -10t-8.5 -2h-200q-7 0 -9.5 1.5t-0.5 10.5l2 11q2 8 4.5 9.5t9.5 1.5h202q5 0 7 -1.5t0 -9.5z" />
    <glyph glyph-name="Ubreve" unicode="&#x16c;" horiz-adv-x="681" 
d="M579 295q-12 -67 -35 -126t-64 -101q-35 -36 -85 -56.5t-113 -20.5q-57 0 -96 14.5t-63 38.5t-34 56.5t-10 68.5q0 29 3.5 64t10.5 72l65 371q1 11 11 11h22q10 0 7 -13l-64 -361q-6 -32 -10 -67.5t-4 -64.5q0 -35 7.5 -64t26.5 -49t51 -31t82 -11q67 0 112 24.5t73.5 65
t44.5 92.5t25 106l65 365q2 8 7 8h28q6 0 4 -9zM531 847q-13 -41 -48 -68.5t-77 -27.5q-44 0 -67.5 26.5t-23.5 69.5q0 11 7 11h17q7 0 8 -8q6 -31 22.5 -49.5t42.5 -18.5q27 0 49.5 18t39.5 50q5 8 10 8h16q7 0 7 -5z" />
    <glyph glyph-name="Uring" unicode="&#x16e;" horiz-adv-x="681" 
d="M579 295q-12 -67 -35 -126t-64 -101q-35 -36 -85 -56.5t-113 -20.5q-57 0 -96 14.5t-63 38.5t-34 56.5t-10 68.5q0 29 3.5 64t10.5 72l65 371q1 11 11 11h22q10 0 7 -13l-64 -361q-6 -32 -10 -67.5t-4 -64.5q0 -35 7.5 -64t26.5 -49t51 -31t82 -11q67 0 112 24.5t73.5 65
t44.5 92.5t25 106l65 365q2 8 7 8h28q6 0 4 -9zM509 835q0 -19 -8.5 -37t-22 -31.5t-32 -21.5t-37.5 -8q-30 0 -50.5 20t-20.5 50q0 19 8.5 37t23 31.5t32.5 21.5t37 8q30 0 50 -19.5t20 -50.5zM475 831q0 18 -12 29t-30 11q-23 0 -42 -17.5t-19 -41.5q0 -19 13 -30t31 -11
q23 0 41 18t18 42z" />
    <glyph glyph-name="Uhungarumlaut" unicode="&#x170;" horiz-adv-x="681" 
d="M579 295q-12 -67 -35 -126t-64 -101q-35 -36 -85 -56.5t-113 -20.5q-57 0 -96 14.5t-63 38.5t-34 56.5t-10 68.5q0 29 3.5 64t10.5 72l65 371q1 11 11 11h22q10 0 7 -13l-64 -361q-6 -32 -10 -67.5t-4 -64.5q0 -35 7.5 -64t26.5 -49t51 -31t82 -11q67 0 112 24.5t73.5 65
t44.5 92.5t25 106l65 365q2 8 7 8h28q6 0 4 -9zM656 841q3 -9 -6 -14l-160 -86q-6 -4 -9 2l-4 9q-2 3 3 7l149 105q5 3 8.5 4t6.5 -5zM456 841q3 -9 -6 -14l-160 -86q-6 -4 -9 2l-4 9q-2 3 3 7l149 105q5 3 8.5 4t6.5 -5z" />
    <glyph glyph-name="Uogonek" unicode="&#x172;" horiz-adv-x="681" 
d="M320 -179q0 -7 -6 -9q-15 -6 -32.5 -8.5t-34.5 -2.5q-38 0 -56 20.5t-18 44.5q0 19 7.5 37.5t19.5 34.5t27 29.5t31 24.5q-50 3 -84.5 18t-55.5 39t-30 55t-9 65q0 29 3.5 64t10.5 72l65 371q1 11 11 11h22q10 0 7 -13l-64 -361q-6 -32 -10 -67.5t-4 -64.5q0 -35 7.5 -64
t26.5 -49t51 -31t82 -11q67 0 112 24.5t73.5 65t44.5 92.5t25 106l65 365q2 8 7 8h28q6 0 4 -9l-67 -383q-12 -67 -35 -126t-64 -101q-35 -36 -85 -56.5t-113 -20.5h-1q-13 -11 -26.5 -24.5t-24 -29t-17 -32t-6.5 -33.5q0 -26 17 -36.5t38 -10.5q8 0 22.5 2t26.5 5
q2 1 6 1.5t4 -3.5z" />
    <glyph glyph-name="Wgrave" unicode="&#x1e80;" horiz-adv-x="840" 
d="M564 7q-2 -7 -9 -7h-36q-6 0 -7 9l-39 613h-2l-261 -615q-2 -7 -10 -7h-34q-6 0 -7 9l-56 667q-2 11 9 11h20q7 0 9 -1t3 -7l50 -633h1l268 632q3 6 6.5 7.5t8.5 1.5h15q3 0 6.5 -1t4.5 -7l45 -633h1l276 632q3 6 6.5 7.5t8.5 1.5h16q4 0 5.5 -3t-0.5 -6zM536 755
q0 -3 -1 -4l-7 -9q-2 -3 -6 -3q-2 0 -3 1l-130 86q-4 3 -4 7t3 7l19 22q5 5 9 5q2 0 8 -4l111 -105q1 -1 1 -3z" />
    <glyph glyph-name="Wacute" unicode="&#x1e82;" horiz-adv-x="840" 
d="M564 7q-2 -7 -9 -7h-36q-6 0 -7 9l-39 613h-2l-261 -615q-2 -7 -10 -7h-34q-6 0 -7 9l-56 667q-2 11 9 11h20q7 0 9 -1t3 -7l50 -633h1l268 632q3 6 6.5 7.5t8.5 1.5h15q3 0 6.5 -1t4.5 -7l45 -633h1l276 632q3 6 6.5 7.5t8.5 1.5h16q4 0 5.5 -3t-0.5 -6zM639 835
q0 -5 -7 -9l-160 -86q-2 -1 -4 -1q-3 0 -4 3l-4 8l-1 3q0 3 3 5l149 105q5 4 9 4t7 -5l10 -20q2 -4 2 -7z" />
    <glyph glyph-name="Wcircumflex" unicode="&#x174;" horiz-adv-x="840" 
d="M564 7q-2 -7 -9 -7h-36q-6 0 -7 9l-39 613h-2l-261 -615q-2 -7 -10 -7h-34q-6 0 -7 9l-56 667q-2 11 9 11h20q7 0 9 -1t3 -7l50 -633h1l268 632q3 6 6.5 7.5t8.5 1.5h15q3 0 6.5 -1t4.5 -7l45 -633h1l276 632q3 6 6.5 7.5t8.5 1.5h16q4 0 5.5 -3t-0.5 -6zM588 742
q-4 -5 -10 0l-77 79l-108 -83q-5 -3 -8 1l-5 6q-4 3 2 9l116 111q2 1 3 2t3 1h12q1 0 4 -3l73 -108q4 -7 0 -10z" />
    <glyph glyph-name="Wdieresis" unicode="&#x1e84;" horiz-adv-x="840" 
d="M564 7q-2 -7 -9 -7h-36q-6 0 -7 9l-39 613h-2l-261 -615q-2 -7 -10 -7h-34q-6 0 -7 9l-56 667q-2 11 9 11h20q7 0 9 -1t3 -7l50 -633h1l268 632q3 6 6.5 7.5t8.5 1.5h15q3 0 6.5 -1t4.5 -7l45 -633h1l276 632q3 6 6.5 7.5t8.5 1.5h16q4 0 5.5 -3t-0.5 -6zM608 804
q0 -16 -11.5 -29t-28.5 -13q-12 0 -20.5 8t-8.5 21q0 17 12 28t29 11q12 0 20 -6.5t8 -19.5zM455 804q0 -16 -11.5 -29t-28.5 -13q-12 0 -20.5 8t-8.5 21q0 17 12 28t29 11q12 0 20 -6.5t8 -19.5z" />
    <glyph glyph-name="Ygrave" unicode="&#x1ef2;" horiz-adv-x="518" 
d="M271 266l-45 -254q-2 -12 -12 -12h-18q-8 0 -9.5 2.5t-0.5 8.5l45 253l-127 411q-3 12 10 12h17q10 0 12 -2t4 -7l112 -374h1l233 371q5 8 7 10t10 2h21q8 0 4 -8zM422 754q0 -3 -1 -4l-7 -9q-2 -3 -6 -3q-2 0 -3 1l-130 86q-4 3 -4 7t3 7l19 22q5 5 9 5q2 0 8 -4
l111 -105q1 -1 1 -3z" />
    <glyph glyph-name="Yacute" unicode="&#xdd;" horiz-adv-x="518" 
d="M271 266l-45 -254q-2 -12 -12 -12h-18q-8 0 -9.5 2.5t-0.5 8.5l45 253l-127 411q-3 12 10 12h17q10 0 12 -2t4 -7l112 -374h1l233 371q5 8 7 10t10 2h21q8 0 4 -8zM453 834q0 -5 -7 -9l-160 -86q-2 -1 -4 -1q-3 0 -4 3l-4 8l-1 3q0 3 3 5l149 105q5 4 9 4t7 -5l10 -20
q2 -4 2 -7z" />
    <glyph glyph-name="Ycircumflex" unicode="&#x176;" horiz-adv-x="518" 
d="M271 266l-45 -254q-2 -12 -12 -12h-18q-8 0 -9.5 2.5t-0.5 8.5l45 253l-127 411q-3 12 10 12h17q10 0 12 -2t4 -7l112 -374h1l233 371q5 8 7 10t10 2h21q8 0 4 -8zM442 742q-4 -5 -10 0l-77 79l-108 -83q-5 -3 -8 1l-5 6q-4 3 2 9l116 111q2 1 3 2t3 1h12q1 0 4 -3
l73 -108q4 -7 0 -10z" />
    <glyph glyph-name="Ydieresis" unicode="&#x178;" horiz-adv-x="518" 
d="M271 266l-45 -254q-2 -12 -12 -12h-18q-8 0 -9.5 2.5t-0.5 8.5l45 253l-127 411q-3 12 10 12h17q10 0 12 -2t4 -7l112 -374h1l233 371q5 8 7 10t10 2h21q8 0 4 -8zM445 802q0 -16 -11.5 -29t-28.5 -13q-12 0 -20.5 8t-8.5 21q0 17 12 28t29 11q12 0 20 -6.5t8 -19.5z
M292 802q0 -16 -11.5 -29t-28.5 -13q-12 0 -20.5 8t-8.5 21q0 17 12 28t29 11q12 0 20 -6.5t8 -19.5z" />
    <glyph glyph-name="Zacute" unicode="&#x179;" horiz-adv-x="512" 
d="M528 671q-1 -6 -10 -18l-485 -619h370q6 0 7.5 -2.5t0.5 -7.5l-3 -15q-2 -9 -10 -9h-409q-10 0 -9 8l2 10l2 6t5 9l486 621h-333q-9 0 -8 8l3 18q1 7 10 7h375q9 0 7 -7zM449 836q0 -5 -7 -9l-160 -86q-2 -1 -4 -1q-3 0 -4 3l-4 8l-1 3q0 3 3 5l149 105q5 4 9 4t7 -5
l10 -20q2 -4 2 -7z" />
    <glyph glyph-name="Zcaron" unicode="&#x17d;" horiz-adv-x="512" 
d="M528 671q-1 -6 -10 -18l-485 -619h370q6 0 7.5 -2.5t0.5 -7.5l-3 -15q-2 -9 -10 -9h-409q-10 0 -9 8l2 10l2 6t5 9l486 621h-333q-9 0 -8 8l3 18q1 7 10 7h375q9 0 7 -7zM474 861q4 -4 -1 -9l-117 -111q-3 -3 -5 -3h-12q-2 0 -5 3l-73 108q-4 6 0 10l5 5q5 5 10 0l77 -79
l109 83q3 3 8 -1z" />
    <glyph glyph-name="Zdotaccent" unicode="&#x17b;" horiz-adv-x="512" 
d="M528 671q-1 -6 -10 -18l-485 -619h370q6 0 7.5 -2.5t0.5 -7.5l-3 -15q-2 -9 -10 -9h-409q-10 0 -9 8l2 10l2 6t5 9l486 621h-333q-9 0 -8 8l3 18q1 7 10 7h375q9 0 7 -7zM388 820q0 -17 -13 -31.5t-31 -14.5q-13 0 -22 8.5t-9 22.5q0 19 13 31t32 12q13 0 21.5 -7
t8.5 -21z" />
    <glyph glyph-name="agrave" unicode="&#xe0;" horiz-adv-x="518" 
d="M403 73q-2 -6 -2.5 -13.5t-0.5 -12.5q0 -22 16 -22q9 0 17.5 4.5t16.5 9.5q5 4 7 -1l4 -12q1 -2 0.5 -4t-5.5 -5q-4 -2 -18 -10t-35 -8q-16 0 -27.5 9.5t-11.5 32.5q0 5 1 14t2 14l5 24q-9 -17 -25.5 -35t-39 -33t-51.5 -24.5t-64 -9.5q-39 0 -66 14t-44.5 38.5
t-25.5 58.5t-8 74q0 51 17.5 106.5t50.5 102t80 77t107 30.5q58 0 94 -15.5t67 -35.5q3 -2 4 -3.5t0 -6.5zM430 419q-21 19 -52 31.5t-76 12.5q-52 0 -92 -29t-67.5 -73t-41.5 -95.5t-14 -96.5q0 -71 30 -109.5t82 -38.5q35 0 63 10.5t50 28.5t39 41.5t30 50.5zM379 586
q0 -3 -1 -4l-7 -9q-2 -3 -6 -3q-2 0 -3 1l-130 86q-4 3 -4 7t3 7l19 22q5 5 9 5q2 0 8 -4l111 -105q1 -1 1 -3z" />
    <glyph glyph-name="aacute" unicode="&#xe1;" horiz-adv-x="518" 
d="M403 73q-2 -6 -2.5 -13.5t-0.5 -12.5q0 -22 16 -22q9 0 17.5 4.5t16.5 9.5q5 4 7 -1l4 -12q1 -2 0.5 -4t-5.5 -5q-4 -2 -18 -10t-35 -8q-16 0 -27.5 9.5t-11.5 32.5q0 5 1 14t2 14l5 24q-9 -17 -25.5 -35t-39 -33t-51.5 -24.5t-64 -9.5q-39 0 -66 14t-44.5 38.5
t-25.5 58.5t-8 74q0 51 17.5 106.5t50.5 102t80 77t107 30.5q58 0 94 -15.5t67 -35.5q3 -2 4 -3.5t0 -6.5zM430 419q-21 19 -52 31.5t-76 12.5q-52 0 -92 -29t-67.5 -73t-41.5 -95.5t-14 -96.5q0 -71 30 -109.5t82 -38.5q35 0 63 10.5t50 28.5t39 41.5t30 50.5zM439 666
q0 -5 -7 -9l-160 -86q-2 -1 -4 -1q-3 0 -4 3l-4 8l-1 3q0 3 3 5l149 105q5 4 9 4t7 -5l10 -20q2 -4 2 -7z" />
    <glyph glyph-name="acircumflex" unicode="&#xe2;" horiz-adv-x="518" 
d="M403 73q-2 -6 -2.5 -13.5t-0.5 -12.5q0 -22 16 -22q9 0 17.5 4.5t16.5 9.5q5 4 7 -1l4 -12q1 -2 0.5 -4t-5.5 -5q-4 -2 -18 -10t-35 -8q-16 0 -27.5 9.5t-11.5 32.5q0 5 1 14t2 14l5 24q-9 -17 -25.5 -35t-39 -33t-51.5 -24.5t-64 -9.5q-39 0 -66 14t-44.5 38.5
t-25.5 58.5t-8 74q0 51 17.5 106.5t50.5 102t80 77t107 30.5q58 0 94 -15.5t67 -35.5q3 -2 4 -3.5t0 -6.5zM430 419q-21 19 -52 31.5t-76 12.5q-52 0 -92 -29t-67.5 -73t-41.5 -95.5t-14 -96.5q0 -71 30 -109.5t82 -38.5q35 0 63 10.5t50 28.5t39 41.5t30 50.5zM430 572
q-4 -5 -10 0l-77 79l-108 -83q-5 -3 -8 1l-5 6q-4 3 2 9l116 111q2 1 3 2t3 1h12q1 0 4 -3l73 -108q4 -7 0 -10z" />
    <glyph glyph-name="atilde" unicode="&#xe3;" horiz-adv-x="518" 
d="M403 73q-2 -6 -2.5 -13.5t-0.5 -12.5q0 -22 16 -22q9 0 17.5 4.5t16.5 9.5q5 4 7 -1l4 -12q1 -2 0.5 -4t-5.5 -5q-4 -2 -18 -10t-35 -8q-16 0 -27.5 9.5t-11.5 32.5q0 5 1 14t2 14l5 24q-9 -17 -25.5 -35t-39 -33t-51.5 -24.5t-64 -9.5q-39 0 -66 14t-44.5 38.5
t-25.5 58.5t-8 74q0 51 17.5 106.5t50.5 102t80 77t107 30.5q58 0 94 -15.5t67 -35.5q3 -2 4 -3.5t0 -6.5zM430 419q-21 19 -52 31.5t-76 12.5q-52 0 -92 -29t-67.5 -73t-41.5 -95.5t-14 -96.5q0 -71 30 -109.5t82 -38.5q35 0 63 10.5t50 28.5t39 41.5t30 50.5zM474 646
q4 -3 2 -7t-5 -6q-11 -8 -24 -17t-27 -16.5t-28 -12.5t-26 -5q-13 0 -23.5 7.5t-21 17t-22 17t-26.5 7.5q-11 0 -33.5 -11.5t-38.5 -22.5q-5 -3 -7.5 -3t-5.5 6l-5 11q-3 6 1.5 10.5t9.5 7.5q20 14 45.5 24t43.5 10q15 0 27 -7.5t23 -16.5t22.5 -16.5t24.5 -7.5q6 0 16 5
t21.5 11.5t21.5 13t16 10.5q4 3 6 2t5 -4z" />
    <glyph glyph-name="adieresis" unicode="&#xe4;" horiz-adv-x="518" 
d="M403 73q-2 -6 -2.5 -13.5t-0.5 -12.5q0 -22 16 -22q9 0 17.5 4.5t16.5 9.5q5 4 7 -1l4 -12q1 -2 0.5 -4t-5.5 -5q-4 -2 -18 -10t-35 -8q-16 0 -27.5 9.5t-11.5 32.5q0 5 1 14t2 14l5 24q-9 -17 -25.5 -35t-39 -33t-51.5 -24.5t-64 -9.5q-39 0 -66 14t-44.5 38.5
t-25.5 58.5t-8 74q0 51 17.5 106.5t50.5 102t80 77t107 30.5q58 0 94 -15.5t67 -35.5q3 -2 4 -3.5t0 -6.5zM430 419q-21 19 -52 31.5t-76 12.5q-52 0 -92 -29t-67.5 -73t-41.5 -95.5t-14 -96.5q0 -71 30 -109.5t82 -38.5q35 0 63 10.5t50 28.5t39 41.5t30 50.5zM430 632
q0 -16 -11.5 -29t-28.5 -13q-12 0 -20.5 8t-8.5 21q0 17 12 28t29 11q12 0 20 -6.5t8 -19.5zM277 632q0 -16 -11.5 -29t-28.5 -13q-12 0 -20.5 8t-8.5 21q0 17 12 28t29 11q12 0 20 -6.5t8 -19.5z" />
    <glyph glyph-name="amacron" unicode="&#x101;" horiz-adv-x="518" 
d="M403 73q-2 -6 -2.5 -13.5t-0.5 -12.5q0 -22 16 -22q9 0 17.5 4.5t16.5 9.5q5 4 7 -1l4 -12q1 -2 0.5 -4t-5.5 -5q-4 -2 -18 -10t-35 -8q-16 0 -27.5 9.5t-11.5 32.5q0 5 1 14t2 14l5 24q-9 -17 -25.5 -35t-39 -33t-51.5 -24.5t-64 -9.5q-39 0 -66 14t-44.5 38.5
t-25.5 58.5t-8 74q0 51 17.5 106.5t50.5 102t80 77t107 30.5q58 0 94 -15.5t67 -35.5q3 -2 4 -3.5t0 -6.5zM430 419q-21 19 -52 31.5t-76 12.5q-52 0 -92 -29t-67.5 -73t-41.5 -95.5t-14 -96.5q0 -71 30 -109.5t82 -38.5q35 0 63 10.5t50 28.5t39 41.5t30 50.5zM440 621
q-2 -8 -4.5 -10t-8.5 -2h-200q-7 0 -9.5 1.5t-0.5 10.5l2 11q2 8 4.5 9.5t9.5 1.5h202q5 0 7 -1.5t0 -9.5z" />
    <glyph glyph-name="abreve" unicode="&#x103;" horiz-adv-x="518" 
d="M403 73q-2 -6 -2.5 -13.5t-0.5 -12.5q0 -22 16 -22q9 0 17.5 4.5t16.5 9.5q5 4 7 -1l4 -12q1 -2 0.5 -4t-5.5 -5q-4 -2 -18 -10t-35 -8q-16 0 -27.5 9.5t-11.5 32.5q0 5 1 14t2 14l5 24q-9 -17 -25.5 -35t-39 -33t-51.5 -24.5t-64 -9.5q-39 0 -66 14t-44.5 38.5
t-25.5 58.5t-8 74q0 51 17.5 106.5t50.5 102t80 77t107 30.5q58 0 94 -15.5t67 -35.5q3 -2 4 -3.5t0 -6.5zM430 419q-21 19 -52 31.5t-76 12.5q-52 0 -92 -29t-67.5 -73t-41.5 -95.5t-14 -96.5q0 -71 30 -109.5t82 -38.5q35 0 63 10.5t50 28.5t39 41.5t30 50.5zM426 677
q-13 -41 -48 -68.5t-77 -27.5q-44 0 -67.5 26.5t-23.5 69.5q0 11 7 11h17q7 0 8 -8q6 -31 22.5 -49.5t42.5 -18.5q27 0 49.5 18t39.5 50q5 8 10 8h16q7 0 7 -5z" />
    <glyph glyph-name="acaron" unicode="&#x1ce;" horiz-adv-x="518" 
d="M403 73q-2 -6 -2.5 -13.5t-0.5 -12.5q0 -22 16 -22q9 0 17.5 4.5t16.5 9.5q5 4 7 -1l4 -12q1 -2 0.5 -4t-5.5 -5q-4 -2 -18 -10t-35 -8q-16 0 -27.5 9.5t-11.5 32.5q0 5 1 14t2 14l5 24q-9 -17 -25.5 -35t-39 -33t-51.5 -24.5t-64 -9.5q-39 0 -66 14t-44.5 38.5
t-25.5 58.5t-8 74q0 51 17.5 106.5t50.5 102t80 77t107 30.5q58 0 94 -15.5t67 -35.5q3 -2 4 -3.5t0 -6.5zM430 419q-21 19 -52 31.5t-76 12.5q-52 0 -92 -29t-67.5 -73t-41.5 -95.5t-14 -96.5q0 -71 30 -109.5t82 -38.5q35 0 63 10.5t50 28.5t39 41.5t30 50.5zM462 661
q4 -4 -1 -9l-117 -111q-3 -3 -5 -3h-12q-2 0 -5 3l-73 108q-4 6 0 10l5 5q5 5 10 0l77 -79l109 83q3 3 8 -1z" />
    <glyph glyph-name="aring" unicode="&#xe5;" horiz-adv-x="518" 
d="M403 73q-2 -6 -2.5 -13.5t-0.5 -12.5q0 -22 16 -22q9 0 17.5 4.5t16.5 9.5q5 4 7 -1l4 -12q1 -2 0.5 -4t-5.5 -5q-4 -2 -18 -10t-35 -8q-16 0 -27.5 9.5t-11.5 32.5q0 5 1 14t2 14l5 24q-9 -17 -25.5 -35t-39 -33t-51.5 -24.5t-64 -9.5q-39 0 -66 14t-44.5 38.5
t-25.5 58.5t-8 74q0 51 17.5 106.5t50.5 102t80 77t107 30.5q58 0 94 -15.5t67 -35.5q3 -2 4 -3.5t0 -6.5zM430 419q-21 19 -52 31.5t-76 12.5q-52 0 -92 -29t-67.5 -73t-41.5 -95.5t-14 -96.5q0 -71 30 -109.5t82 -38.5q35 0 63 10.5t50 28.5t39 41.5t30 50.5zM415 665
q0 -19 -8.5 -37t-22 -31.5t-32 -21.5t-37.5 -8q-30 0 -50.5 20t-20.5 50q0 19 8.5 37t23 31.5t32.5 21.5t37 8q30 0 50 -19.5t20 -50.5zM381 661q0 18 -12 29t-30 11q-23 0 -42 -17.5t-19 -41.5q0 -19 13 -30t31 -11q23 0 41 18t18 42z" />
    <glyph glyph-name="aringacute" unicode="&#x1fb;" horiz-adv-x="518" 
d="M403 73q-2 -6 -2.5 -13.5t-0.5 -12.5q0 -22 16 -22q9 0 17.5 4.5t16.5 9.5q5 4 7 -1l4 -12q1 -2 0.5 -4t-5.5 -5q-4 -2 -18 -10t-35 -8q-16 0 -27.5 9.5t-11.5 32.5q0 5 1 14t2 14l5 24q-9 -17 -25.5 -35t-39 -33t-51.5 -24.5t-64 -9.5q-39 0 -66 14t-44.5 38.5
t-25.5 58.5t-8 74q0 51 17.5 106.5t50.5 102t80 77t107 30.5q58 0 94 -15.5t67 -35.5q3 -2 4 -3.5t0 -6.5zM430 419q-21 19 -52 31.5t-76 12.5q-52 0 -92 -29t-67.5 -73t-41.5 -95.5t-14 -96.5q0 -71 30 -109.5t82 -38.5q35 0 63 10.5t50 28.5t39 41.5t30 50.5zM451 813
q0 -5 -7 -9l-160 -86q-2 -1 -4 -1q-3 0 -4 3l-4 8l-1 3q0 3 3 5l149 105q5 4 9 4t7 -5l10 -20q2 -4 2 -7zM425 626q0 -19 -8.5 -37t-22 -31.5t-32 -21.5t-37.5 -8q-30 0 -50.5 20t-20.5 50q0 19 8.5 37t23 31.5t32.5 21.5t37 8q30 0 50 -19.5t20 -50.5zM391 622q0 18 -12 29
t-30 11q-23 0 -42 -17.5t-19 -41.5q0 -19 13 -30t31 -11q23 0 41 18t18 42z" />
    <glyph glyph-name="aogonek" unicode="&#x105;" horiz-adv-x="518" 
d="M454 -179q0 -7 -6 -9q-15 -6 -32.5 -8.5t-34.5 -2.5q-38 0 -56 20.5t-18 44.5q0 21 8.5 40.5t22 36.5t31 31t34.5 25v1q-15 0 -27 9.5t-12 31.5q0 5 1 14t2 14l5 24q-9 -17 -25.5 -35t-39 -33t-51.5 -24.5t-64 -9.5q-39 0 -66 14t-44.5 38.5t-25.5 58.5t-8 74
q0 51 17.5 106.5t50.5 102t80 77t107 30.5q58 0 94 -15.5t67 -35.5q3 -2 4 -3.5t0 -6.5l-65 -358q-2 -6 -2.5 -13.5t-0.5 -12.5q0 -22 16 -22q9 0 17.5 4.5t16.5 9.5q5 4 7 -1l5 -14q1 -2 -1.5 -4t-4.5 -3q-43 -25 -70 -53q-19 -20 -32 -43t-13 -49t17 -36.5t38 -10.5
q8 0 22.5 2t26.5 5q2 1 6 1.5t4 -3.5zM430 419q-21 19 -52 31.5t-76 12.5q-52 0 -92 -29t-67.5 -73t-41.5 -95.5t-14 -96.5q0 -71 30 -109.5t82 -38.5q35 0 63 10.5t50 28.5t39 41.5t30 50.5z" />
    <glyph glyph-name="ae" unicode="&#xe6;" horiz-adv-x="758" 
d="M720 340q0 -12 -1 -25t-4 -27l-5 -30q-2 -9 -4 -11t-11 -2h-325q-6 -33 -6 -66t7.5 -61.5t24 -50.5t44 -34.5t68.5 -12.5q29 0 62 6t59 16q1 1 5 1t4 -4l1 -14q0 -5 -3.5 -7t-6.5 -4q-29 -12 -66 -17.5t-65 -5.5q-60 0 -97.5 23.5t-54.5 65.5q-42 -40 -93 -65t-111 -25
q-46 0 -79.5 26t-34.5 79q0 12 3 27q9 49 37.5 79t67 45.5t82 20.5t81.5 5h40l11 60q6 33 6 58q0 37 -18 56t-66 19q-26 0 -59 -9t-71 -29q-1 -1 -4 -1q-5 0 -6 4l-4 11v1q0 2 2.5 5t4.5 4q41 22 79.5 31.5t67.5 9.5q38 0 57.5 -8.5t35.5 -25.5q8 -9 12.5 -26t4.5 -36
q0 -6 -0.5 -12.5t-1.5 -12.5q7 17 17 30t18 22q32 32 71.5 50.5t86.5 18.5q68 0 102.5 -41.5t34.5 -110.5zM335 105q-4 19 -6 35t-2 33q0 31 7 66l1 6h-35q-109 0 -164.5 -30t-65.5 -89q-2 -6 -2 -12v-11q0 -22 7.5 -38t20.5 -26t28.5 -14.5t32.5 -4.5q26 0 51.5 8
t48.5 20.5t43 27.5t35 29zM686 341q0 25 -6.5 47.5t-20 39.5t-34 26.5t-49.5 9.5q-43 0 -78.5 -18.5t-62.5 -50.5q-20 -25 -37.5 -60t-22.5 -63h302l5 27q2 11 3 21.5t1 20.5z" />
    <glyph glyph-name="aeacute" unicode="&#x1fd;" horiz-adv-x="758" 
d="M720 340q0 -12 -1 -25t-4 -27l-5 -30q-2 -9 -4 -11t-11 -2h-325q-6 -33 -6 -66t7.5 -61.5t24 -50.5t44 -34.5t68.5 -12.5q29 0 62 6t59 16q1 1 5 1t4 -4l1 -14q0 -5 -3.5 -7t-6.5 -4q-29 -12 -66 -17.5t-65 -5.5q-60 0 -97.5 23.5t-54.5 65.5q-42 -40 -93 -65t-111 -25
q-46 0 -79.5 26t-34.5 79q0 12 3 27q9 49 37.5 79t67 45.5t82 20.5t81.5 5h40l11 60q6 33 6 58q0 37 -18 56t-66 19q-26 0 -59 -9t-71 -29q-1 -1 -4 -1q-5 0 -6 4l-4 11v1q0 2 2.5 5t4.5 4q41 22 79.5 31.5t67.5 9.5q38 0 57.5 -8.5t35.5 -25.5q8 -9 12.5 -26t4.5 -36
q0 -6 -0.5 -12.5t-1.5 -12.5q7 17 17 30t18 22q32 32 71.5 50.5t86.5 18.5q68 0 102.5 -41.5t34.5 -110.5zM335 105q-4 19 -6 35t-2 33q0 31 7 66l1 6h-35q-109 0 -164.5 -30t-65.5 -89q-2 -6 -2 -12v-11q0 -22 7.5 -38t20.5 -26t28.5 -14.5t32.5 -4.5q26 0 51.5 8
t48.5 20.5t43 27.5t35 29zM686 341q0 25 -6.5 47.5t-20 39.5t-34 26.5t-49.5 9.5q-43 0 -78.5 -18.5t-62.5 -50.5q-20 -25 -37.5 -60t-22.5 -63h302l5 27q2 11 3 21.5t1 20.5zM569 666q0 -5 -7 -9l-160 -86q-2 -1 -4 -1q-3 0 -4 3l-4 8l-1 3q0 3 3 5l149 105q5 4 9 4t7 -5
l10 -20q2 -4 2 -7z" />
    <glyph glyph-name="cacute" unicode="&#x107;" horiz-adv-x="417" 
d="M416 438q-3 -6 -9 -3q-21 11 -45 19t-53 8q-79 0 -138 -57q-46 -45 -65 -108.5t-19 -126.5q0 -29 7.5 -56t24.5 -47.5t43.5 -33t64.5 -12.5q29 0 58 6.5t54 16.5q8 4 9 -3l3 -14q0 -3 -1.5 -5t-8.5 -5q-29 -13 -60 -19.5t-60 -6.5q-92 0 -133 50t-41 138q0 32 6.5 65.5
t18.5 65t30 60t41 51.5q34 34 77.5 52.5t94.5 18.5q28 0 57 -8t49 -20q4 -3 5 -4t-1 -6zM409 666q0 -5 -7 -9l-160 -86q-2 -1 -4 -1q-3 0 -4 3l-4 8l-1 3q0 3 3 5l149 105q5 4 9 4t7 -5l10 -20q2 -4 2 -7z" />
    <glyph glyph-name="ccedilla" unicode="&#xe7;" horiz-adv-x="417" 
d="M275 -105q0 -20 -8.5 -36t-22 -27.5t-31.5 -17.5t-37 -6q-9 0 -20.5 1.5t-22.5 5.5l-7.5 3t-0.5 6l4 9q1 2 4 2t5 -1q11 -3 20 -4t19 -1q28 0 48 16t20 45q0 23 -18.5 30.5t-43.5 7.5h-10q-15 0 -12 12l15 55q-69 11 -99 59t-30 125q0 32 6.5 65.5t18.5 65t30 60t41 51.5
q34 34 77.5 52.5t94.5 18.5q28 0 57 -8t49 -20q4 -3 5 -4t-1 -6l-9 -16q-3 -6 -9 -3q-21 11 -45 19t-53 8q-79 0 -138 -57q-46 -45 -65 -108.5t-19 -126.5q0 -29 7.5 -56t24.5 -47.5t43.5 -33t64.5 -12.5q29 0 58 6.5t54 16.5q8 4 9 -3l3 -14q0 -3 -1.5 -5t-8.5 -5
q-29 -13 -60 -19.5t-60 -6.5q-6 0 -12 0.5t-11 0.5l-10 -44h12q31 0 53 -12t22 -41z" />
    <glyph glyph-name="ccircumflex" unicode="&#x109;" horiz-adv-x="417" 
d="M416 438q-3 -6 -9 -3q-21 11 -45 19t-53 8q-79 0 -138 -57q-46 -45 -65 -108.5t-19 -126.5q0 -29 7.5 -56t24.5 -47.5t43.5 -33t64.5 -12.5q29 0 58 6.5t54 16.5q8 4 9 -3l3 -14q0 -3 -1.5 -5t-8.5 -5q-29 -13 -60 -19.5t-60 -6.5q-92 0 -133 50t-41 138q0 32 6.5 65.5
t18.5 65t30 60t41 51.5q34 34 77.5 52.5t94.5 18.5q28 0 57 -8t49 -20q4 -3 5 -4t-1 -6zM410 572q-4 -5 -10 0l-77 79l-108 -83q-5 -3 -8 1l-5 6q-4 3 2 9l116 111q2 1 3 2t3 1h12q1 0 4 -3l73 -108q4 -7 0 -10z" />
    <glyph glyph-name="ccaron" unicode="&#x10d;" horiz-adv-x="417" 
d="M416 438q-3 -6 -9 -3q-21 11 -45 19t-53 8q-79 0 -138 -57q-46 -45 -65 -108.5t-19 -126.5q0 -29 7.5 -56t24.5 -47.5t43.5 -33t64.5 -12.5q29 0 58 6.5t54 16.5q8 4 9 -3l3 -14q0 -3 -1.5 -5t-8.5 -5q-29 -13 -60 -19.5t-60 -6.5q-92 0 -133 50t-41 138q0 32 6.5 65.5
t18.5 65t30 60t41 51.5q34 34 77.5 52.5t94.5 18.5q28 0 57 -8t49 -20q4 -3 5 -4t-1 -6zM425 691q4 -4 -1 -9l-117 -111q-3 -3 -5 -3h-12q-2 0 -5 3l-73 108q-4 6 0 10l5 5q5 5 10 0l77 -79l109 83q3 3 8 -1z" />
    <glyph glyph-name="cdotaccent" unicode="&#x10b;" horiz-adv-x="417" 
d="M416 438q-3 -6 -9 -3q-21 11 -45 19t-53 8q-79 0 -138 -57q-46 -45 -65 -108.5t-19 -126.5q0 -29 7.5 -56t24.5 -47.5t43.5 -33t64.5 -12.5q29 0 58 6.5t54 16.5q8 4 9 -3l3 -14q0 -3 -1.5 -5t-8.5 -5q-29 -13 -60 -19.5t-60 -6.5q-92 0 -133 50t-41 138q0 32 6.5 65.5
t18.5 65t30 60t41 51.5q34 34 77.5 52.5t94.5 18.5q28 0 57 -8t49 -20q4 -3 5 -4t-1 -6zM346 650q0 -17 -13 -31.5t-31 -14.5q-13 0 -22 8.5t-9 22.5q0 19 13 31t32 12q13 0 21.5 -7t8.5 -21z" />
    <glyph glyph-name="dcaron" unicode="&#x10f;" horiz-adv-x="517" 
d="M395 7q0 -7 -7 -7h-22q-7 0 -7 7l11 62q-34 -36 -78.5 -57t-92.5 -21q-41 0 -69.5 13.5t-47.5 37.5t-27.5 56.5t-8.5 70.5q0 17 2 35t5 37q10 57 33 103.5t56 79t73 50.5t83 18q40 0 78.5 -19t54.5 -58l50 280q1 9 8 10l22 3q9 2 7 -7zM423 368q-12 43 -45.5 69t-78.5 26
q-39 0 -73 -15.5t-60.5 -44t-45.5 -69.5t-28 -92q-6 -36 -6 -69q0 -70 30 -112t91 -42q22 0 46 7t47 19t43 29t35 37zM638 675q0 -14 -6 -30t-13 -28q-19 -34 -52 -60q-3 -3 -5 -3q-3 0 -3 2l-3 4q-1 1 -1 2q0 2 1.5 3t2.5 3q12 10 22.5 24t13.5 32q1 2 1 7q0 16 -8 25.5
t-8 20.5q0 13 9.5 21t21.5 8q11 0 19 -8.5t8 -22.5z" />
    <glyph glyph-name="dcroat" unicode="&#x111;" horiz-adv-x="517" 
d="M505 632h39q17 0 21 -3t2 -11l-1 -4q-2 -8 -9 -12t-24 -4h-34l-21 -121l-83 -470q0 -7 -7 -7h-22q-7 0 -7 7l11 62q-34 -36 -78.5 -57t-92.5 -21q-50 0 -82 20t-49.5 54.5t-20.5 80t6 95.5q10 57 33 103.5t56 79t73 50.5t83 18q40 0 78.5 -19t54.5 -58l32 184h-79
q-15 0 -18.5 4t-1.5 12l1 4q2 7 8 10.5t22 3.5h74l12 62q1 9 8 10l22 3q9 2 7 -7zM423 368q-12 43 -45.5 69t-78.5 26q-39 0 -73 -15.5t-60.5 -44t-45.5 -69.5t-28 -92q-9 -49 -6 -90t17.5 -70.5t40 -46t63.5 -16.5q22 0 46 7t47 19t43 29t35 37z" />
    <glyph glyph-name="eth" unicode="&#xf0;" horiz-adv-x="520" 
d="M447 328q0 -64 -16.5 -124.5t-49 -108t-81 -76t-111.5 -28.5q-44 0 -74.5 14t-49.5 38t-27.5 56t-8.5 69q0 54 15.5 111.5t47 105t79.5 77.5t113 30q33 0 60 -12t40 -32q-15 76 -50 125t-79 74l-52 -79q-4 -7 -8 -7q-1 0 -1.5 0.5t-1.5 0.5l-10 5q-3 1 -3 4q0 2 3 7
l53 79q-32 11 -52 18.5t-37 10.5q-6 2 -6 5q-1 1 0 3q0 2 1 4l3 6q2 5 8 5h3q23 -2 49 -10t50 -16l48 70q2 5 7 5q2 0 3 -1l9 -4q3 -2 3 -5q0 -2 -1 -3t-2 -3l-45 -69q47 -26 79.5 -66t53 -86.5t29.5 -96.5t9 -96zM195 18q53 0 93 27t66.5 69t40 93t13.5 99q0 31 -6.5 59.5
t-21.5 50.5t-40 35t-61 13q-54 0 -94 -27t-66.5 -69.5t-39.5 -94t-13 -99.5q0 -31 6.5 -59t21.5 -49.5t40 -34.5t61 -13z" />
    <glyph glyph-name="egrave" unicode="&#xe8;" horiz-adv-x="481" 
d="M433 258q-2 -9 -4 -11t-11 -2h-324q-6 -35 -6 -67q0 -33 7.5 -61.5t24 -50t44 -34t67.5 -12.5q29 0 62 6t59 16q3 1 6.5 1t3.5 -4v-14q0 -7 -10 -11q-29 -12 -66 -17.5t-65 -5.5q-88 0 -130.5 48.5t-42.5 131.5q0 17 2 34.5t5 36.5q9 53 31.5 98.5t55.5 79.5t75 53t90 19
q67 0 102 -41.5t35 -109.5q0 -13 -1.5 -26t-3.5 -27zM406 299q2 11 3 21.5t1 20.5q0 51 -26 86.5t-84 35.5q-44 0 -79 -18t-61 -50q-21 -25 -35.5 -56.5t-24.5 -66.5h301zM366 586q0 -3 -1 -4l-7 -9q-2 -3 -6 -3q-2 0 -3 1l-130 86q-4 3 -4 7t3 7l19 22q5 5 9 5q2 0 8 -4
l111 -105q1 -1 1 -3z" />
    <glyph glyph-name="eacute" unicode="&#xe9;" horiz-adv-x="481" 
d="M433 258q-2 -9 -4 -11t-11 -2h-324q-6 -35 -6 -67q0 -33 7.5 -61.5t24 -50t44 -34t67.5 -12.5q29 0 62 6t59 16q3 1 6.5 1t3.5 -4v-14q0 -7 -10 -11q-29 -12 -66 -17.5t-65 -5.5q-88 0 -130.5 48.5t-42.5 131.5q0 17 2 34.5t5 36.5q9 53 31.5 98.5t55.5 79.5t75 53t90 19
q67 0 102 -41.5t35 -109.5q0 -13 -1.5 -26t-3.5 -27zM406 299q2 11 3 21.5t1 20.5q0 51 -26 86.5t-84 35.5q-44 0 -79 -18t-61 -50q-21 -25 -35.5 -56.5t-24.5 -66.5h301zM411 666q0 -5 -7 -9l-160 -86q-2 -1 -4 -1q-3 0 -4 3l-4 8l-1 3q0 3 3 5l149 105q5 4 9 4t7 -5
l10 -20q2 -4 2 -7z" />
    <glyph glyph-name="ecircumflex" unicode="&#xea;" horiz-adv-x="481" 
d="M433 258q-2 -9 -4 -11t-11 -2h-324q-6 -35 -6 -67q0 -33 7.5 -61.5t24 -50t44 -34t67.5 -12.5q29 0 62 6t59 16q3 1 6.5 1t3.5 -4v-14q0 -7 -10 -11q-29 -12 -66 -17.5t-65 -5.5q-88 0 -130.5 48.5t-42.5 131.5q0 17 2 34.5t5 36.5q9 53 31.5 98.5t55.5 79.5t75 53t90 19
q67 0 102 -41.5t35 -109.5q0 -13 -1.5 -26t-3.5 -27zM406 299q2 11 3 21.5t1 20.5q0 51 -26 86.5t-84 35.5q-44 0 -79 -18t-61 -50q-21 -25 -35.5 -56.5t-24.5 -66.5h301zM402 572q-4 -5 -10 0l-77 79l-108 -83q-5 -3 -8 1l-5 6q-4 3 2 9l116 111q2 1 3 2t3 1h12q1 0 4 -3
l73 -108q4 -7 0 -10z" />
    <glyph glyph-name="ecaron" unicode="&#x11b;" horiz-adv-x="481" 
d="M433 258q-2 -9 -4 -11t-11 -2h-324q-6 -35 -6 -67q0 -33 7.5 -61.5t24 -50t44 -34t67.5 -12.5q29 0 62 6t59 16q3 1 6.5 1t3.5 -4v-14q0 -7 -10 -11q-29 -12 -66 -17.5t-65 -5.5q-88 0 -130.5 48.5t-42.5 131.5q0 17 2 34.5t5 36.5q9 53 31.5 98.5t55.5 79.5t75 53t90 19
q67 0 102 -41.5t35 -109.5q0 -13 -1.5 -26t-3.5 -27zM406 299q2 11 3 21.5t1 20.5q0 51 -26 86.5t-84 35.5q-44 0 -79 -18t-61 -50q-21 -25 -35.5 -56.5t-24.5 -66.5h301zM437 691q4 -4 -1 -9l-117 -111q-3 -3 -5 -3h-12q-2 0 -5 3l-73 108q-4 6 0 10l5 5q5 5 10 0l77 -79
l109 83q3 3 8 -1z" />
    <glyph glyph-name="edieresis" unicode="&#xeb;" horiz-adv-x="481" 
d="M433 258q-2 -9 -4 -11t-11 -2h-324q-6 -35 -6 -67q0 -33 7.5 -61.5t24 -50t44 -34t67.5 -12.5q29 0 62 6t59 16q3 1 6.5 1t3.5 -4v-14q0 -7 -10 -11q-29 -12 -66 -17.5t-65 -5.5q-88 0 -130.5 48.5t-42.5 131.5q0 17 2 34.5t5 36.5q9 53 31.5 98.5t55.5 79.5t75 53t90 19
q67 0 102 -41.5t35 -109.5q0 -13 -1.5 -26t-3.5 -27zM406 299q2 11 3 21.5t1 20.5q0 51 -26 86.5t-84 35.5q-44 0 -79 -18t-61 -50q-21 -25 -35.5 -56.5t-24.5 -66.5h301zM432 632q0 -16 -11.5 -29t-28.5 -13q-12 0 -20.5 8t-8.5 21q0 17 12 28t29 11q12 0 20 -6.5t8 -19.5z
M279 632q0 -16 -11.5 -29t-28.5 -13q-12 0 -20.5 8t-8.5 21q0 17 12 28t29 11q12 0 20 -6.5t8 -19.5z" />
    <glyph glyph-name="emacron" unicode="&#x113;" horiz-adv-x="481" 
d="M433 258q-2 -9 -4 -11t-11 -2h-324q-6 -35 -6 -67q0 -33 7.5 -61.5t24 -50t44 -34t67.5 -12.5q29 0 62 6t59 16q3 1 6.5 1t3.5 -4v-14q0 -7 -10 -11q-29 -12 -66 -17.5t-65 -5.5q-88 0 -130.5 48.5t-42.5 131.5q0 17 2 34.5t5 36.5q9 53 31.5 98.5t55.5 79.5t75 53t90 19
q67 0 102 -41.5t35 -109.5q0 -13 -1.5 -26t-3.5 -27zM406 299q2 11 3 21.5t1 20.5q0 51 -26 86.5t-84 35.5q-44 0 -79 -18t-61 -50q-21 -25 -35.5 -56.5t-24.5 -66.5h301zM421 621q-2 -8 -4.5 -10t-8.5 -2h-200q-7 0 -9.5 1.5t-0.5 10.5l2 11q2 8 4.5 9.5t9.5 1.5h202
q5 0 7 -1.5t0 -9.5z" />
    <glyph glyph-name="ebreve" unicode="&#x115;" horiz-adv-x="481" 
d="M433 258q-2 -9 -4 -11t-11 -2h-324q-6 -35 -6 -67q0 -33 7.5 -61.5t24 -50t44 -34t67.5 -12.5q29 0 62 6t59 16q3 1 6.5 1t3.5 -4v-14q0 -7 -10 -11q-29 -12 -66 -17.5t-65 -5.5q-88 0 -130.5 48.5t-42.5 131.5q0 17 2 34.5t5 36.5q9 53 31.5 98.5t55.5 79.5t75 53t90 19
q67 0 102 -41.5t35 -109.5q0 -13 -1.5 -26t-3.5 -27zM406 299q2 11 3 21.5t1 20.5q0 51 -26 86.5t-84 35.5q-44 0 -79 -18t-61 -50q-21 -25 -35.5 -56.5t-24.5 -66.5h301zM427 677q-13 -41 -48 -68.5t-77 -27.5q-44 0 -67.5 26.5t-23.5 69.5q0 11 7 11h17q7 0 8 -8
q6 -31 22.5 -49.5t42.5 -18.5q27 0 49.5 18t39.5 50q5 8 10 8h16q7 0 7 -5z" />
    <glyph glyph-name="edotaccent" unicode="&#x117;" horiz-adv-x="481" 
d="M433 258q-2 -9 -4 -11t-11 -2h-324q-6 -35 -6 -67q0 -33 7.5 -61.5t24 -50t44 -34t67.5 -12.5q29 0 62 6t59 16q3 1 6.5 1t3.5 -4v-14q0 -7 -10 -11q-29 -12 -66 -17.5t-65 -5.5q-88 0 -130.5 48.5t-42.5 131.5q0 17 2 34.5t5 36.5q9 53 31.5 98.5t55.5 79.5t75 53t90 19
q67 0 102 -41.5t35 -109.5q0 -13 -1.5 -26t-3.5 -27zM406 299q2 11 3 21.5t1 20.5q0 51 -26 86.5t-84 35.5q-44 0 -79 -18t-61 -50q-21 -25 -35.5 -56.5t-24.5 -66.5h301zM358 650q0 -17 -13 -31.5t-31 -14.5q-13 0 -22 8.5t-9 22.5q0 19 13 31t32 12q13 0 21.5 -7t8.5 -21z
" />
    <glyph glyph-name="eogonek" unicode="&#x119;" horiz-adv-x="481" 
d="M314 -179q0 -7 -6 -9q-15 -6 -32.5 -8.5t-34.5 -2.5q-38 0 -56 20.5t-18 44.5q0 25 10 47t27 41q10 11 22.5 20t26.5 17v2q-8 -1 -16 -1.5t-16 -0.5q-53 0 -89 18t-56.5 51t-25.5 79t5 103q9 53 31.5 98.5t55.5 79.5t75 53t90 19q40 0 68.5 -15.5t45 -42.5t21.5 -64.5
t-3 -81.5l-6 -30q-2 -9 -4 -11t-11 -2h-324q-8 -43 -6 -83.5t17 -72t45.5 -50.5t80.5 -19q29 0 62 6t59 16q3 1 6.5 1t3.5 -4v-14q1 -5 -2.5 -7t-7.5 -4q-9 -4 -17 -6.5t-19 -6.5q-36 -12 -65 -34q-23 -18 -36.5 -42t-13.5 -53q0 -26 17 -36.5t38 -10.5q8 0 22.5 2t26.5 5
q2 1 6 1.5t4 -3.5zM406 299q6 32 3 62t-16 52.5t-36 36t-57 13.5q-44 0 -79 -18t-61 -50q-21 -25 -35.5 -56.5t-24.5 -66.5h301z" />
    <glyph glyph-name="gcircumflex" unicode="&#x11d;" horiz-adv-x="523" 
d="M411 18q-9 -52 -26.5 -96t-46 -75.5t-70.5 -49t-100 -17.5q-27 0 -61 9t-57 22q-8 5 -3 13l7 12q4 6 11 3q26 -11 52 -20t55 -9q56 0 92.5 19.5t59 51t34.5 72t20 82.5l8 44q-14 -18 -33.5 -33t-43 -25t-48 -15.5t-46.5 -5.5q-41 0 -70 13.5t-47.5 37.5t-27.5 56t-9 69
q0 54 16.5 110t48.5 101.5t79 75t107 29.5q56 0 97.5 -19t67.5 -48q6 -8 4 -19zM443 404q-20 28 -54.5 43.5t-75.5 15.5q-54 0 -94 -26.5t-66 -68t-39 -91.5t-13 -96q0 -30 6.5 -57.5t20.5 -48.5t37.5 -33t58.5 -12q49 0 93.5 25.5t74.5 62.5zM433 572q-4 -5 -10 0l-77 79
l-108 -83q-5 -3 -8 1l-5 6q-4 3 2 9l116 111q2 1 3 2t3 1h12q1 0 4 -3l73 -108q4 -7 0 -10z" />
    <glyph glyph-name="gbreve" unicode="&#x11f;" horiz-adv-x="523" 
d="M411 18q-9 -52 -26.5 -96t-46 -75.5t-70.5 -49t-100 -17.5q-27 0 -61 9t-57 22q-8 5 -3 13l7 12q4 6 11 3q26 -11 52 -20t55 -9q56 0 92.5 19.5t59 51t34.5 72t20 82.5l8 44q-14 -18 -33.5 -33t-43 -25t-48 -15.5t-46.5 -5.5q-41 0 -70 13.5t-47.5 37.5t-27.5 56t-9 69
q0 54 16.5 110t48.5 101.5t79 75t107 29.5q56 0 97.5 -19t67.5 -48q6 -8 4 -19zM443 404q-20 28 -54.5 43.5t-75.5 15.5q-54 0 -94 -26.5t-66 -68t-39 -91.5t-13 -96q0 -30 6.5 -57.5t20.5 -48.5t37.5 -33t58.5 -12q49 0 93.5 25.5t74.5 62.5zM448 677q-13 -41 -48 -68.5
t-77 -27.5q-44 0 -67.5 26.5t-23.5 69.5q0 11 7 11h17q7 0 8 -8q6 -31 22.5 -49.5t42.5 -18.5q27 0 49.5 18t39.5 50q5 8 10 8h16q7 0 7 -5z" />
    <glyph glyph-name="gdotaccent" unicode="&#x121;" horiz-adv-x="523" 
d="M411 18q-9 -52 -26.5 -96t-46 -75.5t-70.5 -49t-100 -17.5q-27 0 -61 9t-57 22q-8 5 -3 13l7 12q4 6 11 3q26 -11 52 -20t55 -9q56 0 92.5 19.5t59 51t34.5 72t20 82.5l8 44q-14 -18 -33.5 -33t-43 -25t-48 -15.5t-46.5 -5.5q-41 0 -70 13.5t-47.5 37.5t-27.5 56t-9 69
q0 54 16.5 110t48.5 101.5t79 75t107 29.5q56 0 97.5 -19t67.5 -48q6 -8 4 -19zM443 404q-20 28 -54.5 43.5t-75.5 15.5q-54 0 -94 -26.5t-66 -68t-39 -91.5t-13 -96q0 -30 6.5 -57.5t20.5 -48.5t37.5 -33t58.5 -12q49 0 93.5 25.5t74.5 62.5zM379 650q0 -17 -13 -31.5
t-31 -14.5q-13 0 -22 8.5t-9 22.5q0 19 13 31t32 12q13 0 21.5 -7t8.5 -21z" />
    <glyph glyph-name="gcommaaccent" unicode="&#x123;" horiz-adv-x="523" 
d="M411 18q-9 -52 -26.5 -96t-46 -75.5t-70.5 -49t-100 -17.5q-27 0 -61 9t-57 22q-8 5 -3 13l7 12q4 6 11 3q26 -11 52 -20t55 -9q56 0 92.5 19.5t59 51t34.5 72t20 82.5l8 44q-14 -18 -33.5 -33t-43 -25t-48 -15.5t-46.5 -5.5q-41 0 -70 13.5t-47.5 37.5t-27.5 56t-9 69
q0 54 16.5 110t48.5 101.5t79 75t107 29.5q56 0 97.5 -19t67.5 -48q6 -8 4 -19zM443 404q-20 28 -54.5 43.5t-75.5 15.5q-54 0 -94 -26.5t-66 -68t-39 -91.5t-13 -96q0 -30 6.5 -57.5t20.5 -48.5t37.5 -33t58.5 -12q49 0 93.5 25.5t74.5 62.5zM309 572q0 14 6 30t13 28
q19 34 52 60q3 3 5 3q3 0 3 -2l3 -4q1 -1 1 -2q0 -2 -1.5 -3t-2.5 -3q-12 -10 -22.5 -24t-13.5 -32q-1 -2 -1 -7q0 -16 8 -25.5t8 -20.5q0 -13 -9.5 -21t-21.5 -8q-11 0 -19 8.5t-8 22.5z" />
    <glyph glyph-name="hcircumflex" unicode="&#x125;" horiz-adv-x="524" 
d="M463 373q0 -14 -1.5 -28.5t-3.5 -29.5l-53 -305q-1 -10 -9 -10h-21q-7 0 -6 9l51 297q2 14 4 29.5t2 27.5q0 45 -20 71.5t-77 26.5q-46 0 -93.5 -21.5t-84.5 -54.5l-66 -376q-2 -9 -9 -9h-22q-7 0 -5 9l121 686q1 8 9 10l21 3q9 1 7 -8l-49 -279q30 29 78 50t100 21
q61 0 94 -29.5t33 -89.5zM287 701q-4 -5 -10 0l-77 79l-108 -83q-5 -3 -8 1l-5 6q-4 3 2 9l116 111q2 1 3 2t3 1h12q1 0 4 -3l73 -108q4 -7 0 -10z" />
    <glyph glyph-name="hbar" unicode="&#x127;" horiz-adv-x="524" 
d="M463 373q0 -14 -1.5 -28.5t-3.5 -29.5l-53 -305q-1 -10 -9 -10h-21q-7 0 -6 9l51 297q2 14 4 29.5t2 27.5q0 45 -20 71.5t-77 26.5q-46 0 -93.5 -21.5t-84.5 -54.5l-66 -376q-2 -9 -9 -9h-22q-7 0 -5 9l101 573h-40q-10 0 -9 10l3 18q2 8 12 8h40l14 77q1 8 9 10l21 3
q9 1 7 -8l-14 -82h148q12 0 9 -12l-1 -11q-2 -8 -5.5 -10.5t-8.5 -2.5h-149l-28 -161q30 29 78 50t100 21q61 0 94 -29.5t33 -89.5z" />
    <glyph glyph-name="dotlessi" unicode="&#x131;" horiz-adv-x="225" 
d="M77 9q-2 -9 -8 -9h-23q-7 0 -5 9l82 464q2 9 8 9h22q7 0 6 -9z" />
    <glyph glyph-name="igrave" unicode="&#xec;" horiz-adv-x="225" 
d="M77 9q-2 -9 -8 -9h-23q-7 0 -5 9l82 464q2 9 8 9h22q7 0 6 -9zM219 586q0 -3 -1 -4l-7 -9q-2 -3 -6 -3q-2 0 -3 1l-130 86q-4 3 -4 7t3 7l19 22q5 5 9 5q2 0 8 -4l111 -105q1 -1 1 -3z" />
    <glyph glyph-name="iacute" unicode="&#xed;" horiz-adv-x="225" 
d="M77 9q-2 -9 -8 -9h-23q-7 0 -5 9l82 464q2 9 8 9h22q7 0 6 -9zM257 666q0 -5 -7 -9l-160 -86q-2 -1 -4 -1q-3 0 -4 3l-4 8l-1 3q0 3 3 5l149 105q5 4 9 4t7 -5l10 -20q2 -4 2 -7z" />
    <glyph glyph-name="icircumflex" unicode="&#xee;" horiz-adv-x="229" 
d="M68 9q-2 -9 -8 -9h-23q-7 0 -5 9l82 464q2 9 8 9h22q7 0 6 -9zM245 572q-4 -5 -10 0l-77 79l-108 -83q-5 -3 -8 1l-5 6q-4 3 2 9l116 111q2 1 3 2t3 1h12q1 0 4 -3l73 -108q4 -7 0 -10z" />
    <glyph glyph-name="itilde" unicode="&#x129;" horiz-adv-x="250" 
d="M75 9q-2 -9 -8 -9h-23q-7 0 -5 9l82 464q2 9 8 9h22q7 0 6 -9zM306 646q4 -3 2 -7t-5 -6q-11 -8 -24 -17t-27 -16.5t-28 -12.5t-26 -5q-13 0 -23.5 7.5t-21 17t-22 17t-26.5 7.5q-11 0 -33.5 -11.5t-38.5 -22.5q-5 -3 -7.5 -3t-5.5 6l-5 11q-3 6 1.5 10.5t9.5 7.5
q20 14 45.5 24t43.5 10q15 0 27 -7.5t23 -16.5t22.5 -16.5t24.5 -7.5q6 0 16 5t21.5 11.5t21.5 13t16 10.5q4 3 6 2t5 -4z" />
    <glyph glyph-name="idieresis" unicode="&#xef;" horiz-adv-x="232" 
d="M68 9q-2 -9 -8 -9h-23q-7 0 -5 9l82 464q2 9 8 9h22q7 0 6 -9zM263 632q0 -16 -11.5 -29t-28.5 -13q-12 0 -20.5 8t-8.5 21q0 17 12 28t29 11q12 0 20 -6.5t8 -19.5zM110 632q0 -16 -11.5 -29t-28.5 -13q-12 0 -20.5 8t-8.5 21q0 17 12 28t29 11q12 0 20 -6.5t8 -19.5z
" />
    <glyph glyph-name="imacron" unicode="&#x12b;" horiz-adv-x="232" 
d="M68 9q-2 -9 -8 -9h-23q-7 0 -5 9l82 464q2 9 8 9h22q7 0 6 -9zM262 621q-2 -8 -4.5 -10t-8.5 -2h-200q-7 0 -9.5 1.5t-0.5 10.5l2 11q2 8 4.5 9.5t9.5 1.5h202q5 0 7 -1.5t0 -9.5z" />
    <glyph glyph-name="ibreve" unicode="&#x12d;" horiz-adv-x="232" 
d="M68 9q-2 -9 -8 -9h-23q-7 0 -5 9l82 464q2 9 8 9h22q7 0 6 -9zM261 677q-13 -41 -48 -68.5t-77 -27.5q-44 0 -67.5 26.5t-23.5 69.5q0 11 7 11h17q7 0 8 -8q6 -31 22.5 -49.5t42.5 -18.5q27 0 49.5 18t39.5 50q5 8 10 8h16q7 0 7 -5z" />
    <glyph glyph-name="iogonek" unicode="&#x12f;" horiz-adv-x="225" 
d="M92 -179q0 -7 -6 -9q-15 -6 -32.5 -8.5t-34.5 -2.5q-38 0 -56 20.5t-18 44.5q0 20 8.5 39.5t22.5 37t30.5 32.5t33.5 26l83 472q2 9 8 9h22q7 0 6 -9l-82 -464q-1 -6 -8 -9q-14 -6 -23.5 -13.5t-18.5 -16.5q-20 -20 -34 -46t-14 -52t17 -36.5t38 -10.5q8 0 22.5 2t26.5 5
q2 1 6 1.5t4 -3.5zM192 612q0 -13 -9.5 -22t-22.5 -9q-10 0 -16.5 5.5t-6.5 15.5q0 13 9.5 22t22.5 9q10 0 16.5 -5.5t6.5 -15.5z" />
    <glyph glyph-name="ij" unicode="&#x133;" horiz-adv-x="449" 
d="M87 9q-2 -9 -8 -9h-23q-7 0 -5 9l82 464q2 9 8 9h22q7 0 6 -9zM202 612q0 -13 -9.5 -22t-22.5 -9q-10 0 -16.5 5.5t-6.5 15.5q0 13 9.5 22t22.5 9q10 0 16.5 -5.5t6.5 -15.5zM316 12q-8 -44 -19.5 -86t-32.5 -74.5t-55 -52t-87 -19.5q-10 0 -18 1t-18 3q-7 1 -5 9l3 13
q2 7 9 6q8 -2 17 -3t19 -1q25 0 48.5 9t40.5 27q23 25 36.5 65.5t24.5 98.5l82 465q1 9 8 9h23q7 0 5 -10zM431 612q0 -13 -9.5 -22t-22.5 -9q-22 0 -22 21q0 13 9 22t22 9q10 0 16.5 -5.5t6.5 -15.5z" />
    <glyph glyph-name="jcircumflex" unicode="&#x135;" horiz-adv-x="244" 
d="M111 12q-8 -44 -19.5 -86t-32.5 -74.5t-55 -52t-87 -19.5q-10 0 -18 1t-18 3q-7 1 -5 9l3 13q4 7 9 6q8 -2 17 -3t19 -1q25 0 48.5 9t40.5 27q23 25 36.5 65.5t24.5 98.5l82 465q1 9 8 9h23q7 0 5 -10zM280 542q-4 -5 -10 0l-77 79l-108 -83q-5 -3 -8 1l-5 6q-4 3 2 9
l116 111q2 1 3 2t3 1h12q1 0 4 -3l73 -108q4 -7 0 -10z" />
    <glyph glyph-name="kcommaaccent" unicode="&#x137;" horiz-adv-x="403" 
d="M203 290l135 -280q4 -10 -5 -10h-24q-10 0 -14 8l-122 255l-53 -49l-36 -205q-2 -9 -9 -9h-22q-7 0 -5 9l121 685q1 10 10 11l20 3q4 1 6 -2t1 -6l-78 -441l228 217q7 6 14 6h22q6 0 6 -3t-2 -5zM206 -71q0 -14 -6 -30t-13 -28q-19 -34 -52 -60q-3 -3 -5 -3q-3 0 -3 2
l-3 4q-1 1 -1 2q0 2 1.5 3t2.5 3q12 10 22.5 24t13.5 32q1 2 1 7q0 16 -8 25.5t-8 20.5q0 13 9.5 21t21.5 8q11 0 19 -8.5t8 -22.5z" />
    <glyph glyph-name="kgreenlandic" unicode="&#x138;" horiz-adv-x="441" 
d="M218 291l166 -281q4 -10 -5 -10h-19q-10 0 -14 8l-155 261l-69 -55l-36 -205q-2 -9 -9 -9h-22q-7 0 -5 9l82 462q2 11 10 11h19q8 0 7 -8l-39 -220l276 222q7 6 16 6h22q6 0 6 -3t-2 -5z" />
    <glyph glyph-name="lacute" unicode="&#x13a;" horiz-adv-x="206" 
d="M85 10q-1 -10 -10 -10h-19q-8 0 -7 10l121 684q1 10 9 11l22 3q8 2 6 -7zM320 835q0 -5 -7 -9l-160 -86q-2 -1 -4 -1q-3 0 -4 3l-4 8l-1 3q0 3 3 5l149 105q5 4 9 4t7 -5l10 -20q2 -4 2 -7z" />
    <glyph glyph-name="lcaron" unicode="&#x13e;" horiz-adv-x="231" 
d="M85 10q-1 -10 -10 -10h-19q-8 0 -7 10l121 684q1 10 9 11l22 3q8 2 6 -7zM326 674q0 -14 -6 -30t-13 -28q-19 -34 -52 -60q-3 -3 -5 -3q-3 0 -3 2l-3 4q-1 1 -1 2q0 2 1.5 3t2.5 3q12 10 22.5 24t13.5 32q1 2 1 7q0 16 -8 25.5t-8 20.5q0 13 9.5 21t21.5 8q11 0 19 -8.5
t8 -22.5z" />
    <glyph glyph-name="lcommaaccent" unicode="&#x13c;" horiz-adv-x="206" 
d="M85 10q-1 -10 -10 -10h-19q-8 0 -7 10l121 684q1 10 9 11l22 3q8 2 6 -7zM79 -71q0 -14 -6 -30t-13 -28q-19 -34 -52 -60q-3 -3 -5 -3q-3 0 -3 2l-3 4q-1 1 -1 2q0 2 1.5 3t2.5 3q12 10 22.5 24t13.5 32q1 2 1 7q0 16 -8 25.5t-8 20.5q0 13 9.5 21t21.5 8q11 0 19 -8.5
t8 -22.5z" />
    <glyph glyph-name="lslash" unicode="&#x142;" horiz-adv-x="238" 
d="M268 483q-2 -8 -6 -12t-8 -6l-113 -63l-69 -392q-1 -10 -9 -10h-19q-9 0 -8 10l66 370l-98 -55q-6 -3 -8.5 1t-0.5 9l3 18q1 4 3.5 4.5t7.5 3.5l99 55l49 278q1 6 3 8t6 3l22 3h2q5 0 4 -7l-46 -262l111 62q13 7 11 -7z" />
    <glyph glyph-name="longs" unicode="&#x17f;" horiz-adv-x="253" 
d="M52 -205q-2 -9 -9 -9h-21q-8 0 -6 9l113 658h-61q-7 0 -6 8l2 11q1 8 10 8h60l6 30q6 31 12.5 55t13 42t14.5 32t19 26q44 50 114 50q17 0 35 -2.5t32 -7.5q8 -3 5 -11l-3 -10q-1 -7 -13 -4q-11 3 -26.5 5.5t-30.5 2.5q-30 0 -52 -11t-37.5 -32.5t-25.5 -52.5t-17 -71z
" />
    <glyph glyph-name="ldot" unicode="&#x140;" horiz-adv-x="280" 
d="M85 10q-1 -10 -10 -10h-19q-8 0 -7 10l121 684q1 10 9 11l22 3q8 2 6 -7zM289 318q0 -17 -13 -31.5t-31 -14.5q-13 0 -22 8.5t-9 22.5q0 19 13 31t32 12q13 0 21.5 -7t8.5 -21z" />
    <glyph glyph-name="nacute" unicode="&#x144;" horiz-adv-x="528" 
d="M465 371q0 -25 -6 -55l-54 -308q-1 -8 -8 -8h-23q-7 0 -5 8l52 298q3 17 5 33.5t2 31.5q0 48 -25.5 69.5t-73.5 21.5q-42 0 -89.5 -22t-87.5 -57l-66 -373q-2 -10 -10 -10h-21q-7 0 -5 9l82 464q1 9 7 9h23q4 0 5.5 -3t0.5 -6l-10 -54q39 32 86 52.5t99 20.5
q61 0 91.5 -31.5t30.5 -89.5zM434 666q0 -5 -7 -9l-160 -86q-2 -1 -4 -1q-3 0 -4 3l-4 8l-1 3q0 3 3 5l149 105q5 4 9 4t7 -5l10 -20q2 -4 2 -7z" />
    <glyph glyph-name="ncaron" unicode="&#x148;" horiz-adv-x="528" 
d="M465 371q0 -25 -6 -55l-54 -308q-1 -8 -8 -8h-23q-7 0 -5 8l52 298q3 17 5 33.5t2 31.5q0 48 -25.5 69.5t-73.5 21.5q-42 0 -89.5 -22t-87.5 -57l-66 -373q-2 -10 -10 -10h-21q-7 0 -5 9l82 464q1 9 7 9h23q4 0 5.5 -3t0.5 -6l-10 -54q39 32 86 52.5t99 20.5
q61 0 91.5 -31.5t30.5 -89.5zM446 691q4 -4 -1 -9l-117 -111q-3 -3 -5 -3h-12q-2 0 -5 3l-73 108q-4 6 0 10l5 5q5 5 10 0l77 -79l109 83q3 3 8 -1z" />
    <glyph glyph-name="ntilde" unicode="&#xf1;" horiz-adv-x="528" 
d="M465 371q0 -25 -6 -55l-54 -308q-1 -8 -8 -8h-23q-7 0 -5 8l52 298q3 17 5 33.5t2 31.5q0 48 -25.5 69.5t-73.5 21.5q-42 0 -89.5 -22t-87.5 -57l-66 -373q-2 -10 -10 -10h-21q-7 0 -5 9l82 464q1 9 7 9h23q4 0 5.5 -3t0.5 -6l-10 -54q39 32 86 52.5t99 20.5
q61 0 91.5 -31.5t30.5 -89.5zM489 646q4 -3 2 -7t-5 -6q-11 -8 -24 -17t-27 -16.5t-28 -12.5t-26 -5q-13 0 -23.5 7.5t-21 17t-22 17t-26.5 7.5q-11 0 -33.5 -11.5t-38.5 -22.5q-5 -3 -7.5 -3t-5.5 6l-5 11q-3 6 1.5 10.5t9.5 7.5q20 14 45.5 24t43.5 10q15 0 27 -7.5
t23 -16.5t22.5 -16.5t24.5 -7.5q6 0 16 5t21.5 11.5t21.5 13t16 10.5q4 3 6 2t5 -4z" />
    <glyph glyph-name="ncommaaccent" unicode="&#x146;" horiz-adv-x="528" 
d="M465 371q0 -25 -6 -55l-54 -308q-1 -8 -8 -8h-23q-7 0 -5 8l52 298q3 17 5 33.5t2 31.5q0 48 -25.5 69.5t-73.5 21.5q-42 0 -89.5 -22t-87.5 -57l-66 -373q-2 -10 -10 -10h-21q-7 0 -5 9l82 464q1 9 7 9h23q4 0 5.5 -3t0.5 -6l-10 -54q39 32 86 52.5t99 20.5
q61 0 91.5 -31.5t30.5 -89.5zM237 -71q0 -14 -6 -30t-13 -28q-19 -34 -52 -60q-3 -3 -5 -3q-3 0 -3 2l-3 4q-1 1 -1 2q0 2 1.5 3t2.5 3q12 10 22.5 24t13.5 32q1 2 1 7q0 16 -8 25.5t-8 20.5q0 13 9.5 21t21.5 8q11 0 19 -8.5t8 -22.5z" />
    <glyph glyph-name="napostrophe" unicode="&#x149;" horiz-adv-x="528" 
d="M465 371q0 -25 -6 -55l-54 -308q-1 -8 -8 -8h-23q-7 0 -5 8l52 298q3 17 5 33.5t2 31.5q0 48 -25.5 69.5t-73.5 21.5q-42 0 -89.5 -22t-87.5 -57l-66 -373q-2 -10 -10 -10h-21q-7 0 -5 9l82 464q1 9 7 9h23q4 0 5.5 -3t0.5 -6l-10 -54q39 32 86 52.5t99 20.5
q61 0 91.5 -31.5t30.5 -89.5zM149 674q0 -27 -18.5 -59t-50.5 -57q-5 -4 -8 -1l-4 5q-3 5 3 11q14 13 24 29.5t10 33.5q0 12 -7 20t-7 20q0 13 9.5 21t21.5 8t19.5 -8.5t7.5 -22.5z" />
    <glyph glyph-name="eng" unicode="&#x14b;" horiz-adv-x="528" 
d="M421 306q3 17 5 33.5t2 31.5q0 48 -25.5 69.5t-73.5 21.5q-42 0 -89.5 -22t-87.5 -57l-66 -373q-2 -10 -10 -10h-21q-7 0 -5 9l82 464q1 9 7 9h23q4 0 5.5 -3t0.5 -6l-10 -54q39 32 86 52.5t99 20.5q61 0 91.5 -31.5t30.5 -89.5q0 -25 -6 -55l-46 -262q-8 -44 -18.5 -86
t-29.5 -74.5t-49 -52t-78 -19.5q-7 0 -16 1t-16 3q-8 3 -7 10l2 10q1 4 3 6.5t8 0.5q15 -3 29 -3q32 0 54 14.5t38 41t26 63.5t18 82z" />
    <glyph glyph-name="ograve" unicode="&#xf2;" horiz-adv-x="512" 
d="M466 312q0 -57 -16 -114t-48.5 -103t-80.5 -75t-112 -29q-42 0 -73 13t-50.5 36.5t-29 56.5t-9.5 73q0 56 16 113t48 103.5t79.5 76t111.5 29.5q85 0 124.5 -49.5t39.5 -130.5zM426 306q0 32 -6.5 60.5t-21.5 50t-39 34t-60 12.5q-56 0 -96 -27.5t-66 -70.5t-38.5 -94
t-12.5 -98q0 -32 6.5 -60t21.5 -49t39 -33t60 -12q55 0 95 27.5t66 69.5t39 92.5t13 97.5zM382 586q0 -3 -1 -4l-7 -9q-2 -3 -6 -3q-2 0 -3 1l-130 86q-4 3 -4 7t3 7l19 22q5 5 9 5q2 0 8 -4l111 -105q1 -1 1 -3z" />
    <glyph glyph-name="oacute" unicode="&#xf3;" horiz-adv-x="512" 
d="M466 312q0 -57 -16 -114t-48.5 -103t-80.5 -75t-112 -29q-42 0 -73 13t-50.5 36.5t-29 56.5t-9.5 73q0 56 16 113t48 103.5t79.5 76t111.5 29.5q85 0 124.5 -49.5t39.5 -130.5zM426 306q0 32 -6.5 60.5t-21.5 50t-39 34t-60 12.5q-56 0 -96 -27.5t-66 -70.5t-38.5 -94
t-12.5 -98q0 -32 6.5 -60t21.5 -49t39 -33t60 -12q55 0 95 27.5t66 69.5t39 92.5t13 97.5zM416 666q0 -5 -7 -9l-160 -86q-2 -1 -4 -1q-3 0 -4 3l-4 8l-1 3q0 3 3 5l149 105q5 4 9 4t7 -5l10 -20q2 -4 2 -7z" />
    <glyph glyph-name="ocircumflex" unicode="&#xf4;" horiz-adv-x="512" 
d="M466 312q0 -57 -16 -114t-48.5 -103t-80.5 -75t-112 -29q-42 0 -73 13t-50.5 36.5t-29 56.5t-9.5 73q0 56 16 113t48 103.5t79.5 76t111.5 29.5q85 0 124.5 -49.5t39.5 -130.5zM426 306q0 32 -6.5 60.5t-21.5 50t-39 34t-60 12.5q-56 0 -96 -27.5t-66 -70.5t-38.5 -94
t-12.5 -98q0 -32 6.5 -60t21.5 -49t39 -33t60 -12q55 0 95 27.5t66 69.5t39 92.5t13 97.5zM415 572q-4 -5 -10 0l-77 79l-108 -83q-5 -3 -8 1l-5 6q-4 3 2 9l116 111q2 1 3 2t3 1h12q1 0 4 -3l73 -108q4 -7 0 -10z" />
    <glyph glyph-name="otilde" unicode="&#xf5;" horiz-adv-x="512" 
d="M466 312q0 -57 -16 -114t-48.5 -103t-80.5 -75t-112 -29q-42 0 -73 13t-50.5 36.5t-29 56.5t-9.5 73q0 56 16 113t48 103.5t79.5 76t111.5 29.5q85 0 124.5 -49.5t39.5 -130.5zM426 306q0 32 -6.5 60.5t-21.5 50t-39 34t-60 12.5q-56 0 -96 -27.5t-66 -70.5t-38.5 -94
t-12.5 -98q0 -32 6.5 -60t21.5 -49t39 -33t60 -12q55 0 95 27.5t66 69.5t39 92.5t13 97.5zM471 646q4 -3 2 -7t-5 -6q-11 -8 -24 -17t-27 -16.5t-28 -12.5t-26 -5q-13 0 -23.5 7.5t-21 17t-22 17t-26.5 7.5q-11 0 -33.5 -11.5t-38.5 -22.5q-5 -3 -7.5 -3t-5.5 6l-5 11
q-3 6 1.5 10.5t9.5 7.5q20 14 45.5 24t43.5 10q15 0 27 -7.5t23 -16.5t22.5 -16.5t24.5 -7.5q6 0 16 5t21.5 11.5t21.5 13t16 10.5q4 3 6 2t5 -4z" />
    <glyph glyph-name="odieresis" unicode="&#xf6;" horiz-adv-x="512" 
d="M466 312q0 -57 -16 -114t-48.5 -103t-80.5 -75t-112 -29q-42 0 -73 13t-50.5 36.5t-29 56.5t-9.5 73q0 56 16 113t48 103.5t79.5 76t111.5 29.5q85 0 124.5 -49.5t39.5 -130.5zM426 306q0 32 -6.5 60.5t-21.5 50t-39 34t-60 12.5q-56 0 -96 -27.5t-66 -70.5t-38.5 -94
t-12.5 -98q0 -32 6.5 -60t21.5 -49t39 -33t60 -12q55 0 95 27.5t66 69.5t39 92.5t13 97.5zM434 632q0 -16 -11.5 -29t-28.5 -13q-12 0 -20.5 8t-8.5 21q0 17 12 28t29 11q12 0 20 -6.5t8 -19.5zM281 632q0 -16 -11.5 -29t-28.5 -13q-12 0 -20.5 8t-8.5 21q0 17 12 28t29 11
q12 0 20 -6.5t8 -19.5z" />
    <glyph glyph-name="omacron" unicode="&#x14d;" horiz-adv-x="512" 
d="M466 312q0 -57 -16 -114t-48.5 -103t-80.5 -75t-112 -29q-42 0 -73 13t-50.5 36.5t-29 56.5t-9.5 73q0 56 16 113t48 103.5t79.5 76t111.5 29.5q85 0 124.5 -49.5t39.5 -130.5zM426 306q0 32 -6.5 60.5t-21.5 50t-39 34t-60 12.5q-56 0 -96 -27.5t-66 -70.5t-38.5 -94
t-12.5 -98q0 -32 6.5 -60t21.5 -49t39 -33t60 -12q55 0 95 27.5t66 69.5t39 92.5t13 97.5zM431 621q-2 -8 -4.5 -10t-8.5 -2h-200q-7 0 -9.5 1.5t-0.5 10.5l2 11q2 8 4.5 9.5t9.5 1.5h202q5 0 7 -1.5t0 -9.5z" />
    <glyph glyph-name="obreve" unicode="&#x14f;" horiz-adv-x="512" 
d="M466 312q0 -57 -16 -114t-48.5 -103t-80.5 -75t-112 -29q-42 0 -73 13t-50.5 36.5t-29 56.5t-9.5 73q0 56 16 113t48 103.5t79.5 76t111.5 29.5q85 0 124.5 -49.5t39.5 -130.5zM426 306q0 32 -6.5 60.5t-21.5 50t-39 34t-60 12.5q-56 0 -96 -27.5t-66 -70.5t-38.5 -94
t-12.5 -98q0 -32 6.5 -60t21.5 -49t39 -33t60 -12q55 0 95 27.5t66 69.5t39 92.5t13 97.5zM429 677q-13 -41 -48 -68.5t-77 -27.5q-44 0 -67.5 26.5t-23.5 69.5q0 11 7 11h17q7 0 8 -8q6 -31 22.5 -49.5t42.5 -18.5q27 0 49.5 18t39.5 50q5 8 10 8h16q7 0 7 -5z" />
    <glyph glyph-name="ohungarumlaut" unicode="&#x151;" horiz-adv-x="512" 
d="M466 312q0 -57 -16 -114t-48.5 -103t-80.5 -75t-112 -29q-42 0 -73 13t-50.5 36.5t-29 56.5t-9.5 73q0 56 16 113t48 103.5t79.5 76t111.5 29.5q85 0 124.5 -49.5t39.5 -130.5zM426 306q0 32 -6.5 60.5t-21.5 50t-39 34t-60 12.5q-56 0 -96 -27.5t-66 -70.5t-38.5 -94
t-12.5 -98q0 -32 6.5 -60t21.5 -49t39 -33t60 -12q55 0 95 27.5t66 69.5t39 92.5t13 97.5zM546 671q3 -9 -6 -14l-160 -86q-6 -4 -9 2l-4 9q-2 3 3 7l149 105q5 3 8.5 4t6.5 -5zM346 671q3 -9 -6 -14l-160 -86q-6 -4 -9 2l-4 9q-2 3 3 7l149 105q5 3 8.5 4t6.5 -5z" />
    <glyph glyph-name="oslash" unicode="&#xf8;" horiz-adv-x="524" 
d="M437 432q17 -23 24.5 -53t7.5 -64q0 -56 -16 -113.5t-48 -104.5t-80 -76.5t-112 -29.5q-32 0 -56 7.5t-43 21.5l-38 -48q-6 -8 -13 -4l-9 6q-6 5 -1 13l41 51q-22 25 -31.5 60t-9.5 73q0 55 16 112.5t48 103.5t79.5 75.5t111.5 29.5q38 0 65 -11t47 -28l41 53q7 8 14 4
l9 -5q7 -4 2 -11zM397 425q-16 18 -38 28.5t-54 10.5q-51 0 -91 -26t-67.5 -66t-41.5 -88.5t-14 -93.5q0 -35 4.5 -67t21.5 -56zM432 304q0 28 -4.5 52t-15.5 45l-277 -355q15 -14 34.5 -21t47.5 -7q54 0 94.5 27t67 69t40 92.5t13.5 97.5z" />
    <glyph glyph-name="oslashacute" unicode="&#x1ff;" horiz-adv-x="524" 
d="M437 432q17 -23 24.5 -53t7.5 -64q0 -56 -16 -113.5t-48 -104.5t-80 -76.5t-112 -29.5q-32 0 -56 7.5t-43 21.5l-38 -48q-6 -8 -13 -4l-9 6q-6 5 -1 13l41 51q-22 25 -31.5 60t-9.5 73q0 55 16 112.5t48 103.5t79.5 75.5t111.5 29.5q38 0 65 -11t47 -28l41 53q7 8 14 4
l9 -5q7 -4 2 -11zM397 425q-16 18 -38 28.5t-54 10.5q-51 0 -91 -26t-67.5 -66t-41.5 -88.5t-14 -93.5q0 -35 4.5 -67t21.5 -56zM432 304q0 28 -4.5 52t-15.5 45l-277 -355q15 -14 34.5 -21t47.5 -7q54 0 94.5 27t67 69t40 92.5t13.5 97.5zM455 666q0 -5 -7 -9l-160 -86
q-2 -1 -4 -1q-3 0 -4 3l-4 8l-1 3q0 3 3 5l149 105q5 4 9 4t7 -5l10 -20q2 -4 2 -7z" />
    <glyph glyph-name="oe" unicode="&#x153;" horiz-adv-x="849" 
d="M811 340q0 -12 -1.5 -25t-3.5 -27l-5 -30q-2 -9 -4 -11t-11 -2h-325q-8 -43 -6 -83.5t17 -72t46 -50.5t81 -19q29 0 61.5 6t58.5 16q2 1 5 1q4 0 4 -4l2 -14q0 -5 -3.5 -7t-6.5 -4q-29 -12 -66 -17.5t-65 -5.5q-75 0 -117 35.5t-53 98.5q-32 -58 -84 -96t-125 -38
q-43 0 -73.5 13.5t-50 37t-28.5 54t-9 64.5q0 57 15 116t46 107t79.5 78.5t114.5 30.5q38 0 66 -10t47.5 -28t30.5 -42.5t16 -53.5q34 61 88.5 97.5t121.5 36.5q68 0 102.5 -42t34.5 -110zM423 240q7 39 6 79t-14.5 72.5t-40.5 52.5t-73 20q-55 0 -95.5 -27.5t-66.5 -70
t-39 -93.5t-13 -98q0 -31 6.5 -59.5t21.5 -50t39.5 -34.5t61.5 -13q46 0 81.5 19.5t61 51t41.5 71t23 80.5zM777 344q0 24 -6.5 46t-20 38.5t-34.5 26t-49 9.5q-43 0 -78 -18.5t-62 -50.5q-41 -50 -61 -123h302l5 27q4 20 4 45z" />
    <glyph glyph-name="thorn" unicode="&#xfe;" horiz-adv-x="524" 
d="M479 309q0 -42 -9.5 -84.5t-27.5 -80.5q-15 -32 -37 -59.5t-49 -48.5t-59 -33t-69 -12q-43 0 -77.5 21t-54.5 60l-49 -268q-1 -10 -8 -10h-21q-8 0 -7 8l159 892q1 10 9 11l22 3q8 2 6 -7l-51 -286q34 37 79 57t93 20q39 0 67.5 -14.5t47 -39t27.5 -58t9 -71.5zM440 310
q0 72 -30.5 112t-91.5 40q-23 0 -46.5 -6.5t-46 -18t-42 -28t-34.5 -36.5l-45 -254q13 -42 45 -70.5t76 -28.5q55 0 96 27.5t67 70t39 94t13 98.5z" />
    <glyph glyph-name="racute" unicode="&#x155;" horiz-adv-x="289" 
d="M309 468q-2 -6 -8 -6q-5 1 -11 1h-11q-35 0 -68 -25t-61 -64l-64 -365q-2 -9 -9 -9h-22q-7 0 -5 9l82 464q2 9 8 9h21q9 0 7 -9l-11 -59q29 42 67 60t70 18h7t9 -1q6 -2 5 -7zM345 666q0 -5 -7 -9l-160 -86q-2 -1 -4 -1q-3 0 -4 3l-4 8l-1 3q0 3 3 5l149 105q5 4 9 4
t7 -5l10 -20q2 -4 2 -7z" />
    <glyph glyph-name="rcaron" unicode="&#x159;" horiz-adv-x="289" 
d="M309 468q-2 -6 -8 -6q-5 1 -11 1h-11q-35 0 -68 -25t-61 -64l-64 -365q-2 -9 -9 -9h-22q-7 0 -5 9l82 464q2 9 8 9h21q9 0 7 -9l-11 -59q29 42 67 60t70 18h7t9 -1q6 -2 5 -7zM328 691q4 -4 -1 -9l-117 -111q-3 -3 -5 -3h-12q-2 0 -5 3l-73 108q-4 6 0 10l5 5q5 5 10 0
l77 -79l109 83q3 3 8 -1z" />
    <glyph glyph-name="rcommaaccent" unicode="&#x157;" horiz-adv-x="289" 
d="M309 468q-2 -6 -8 -6q-5 1 -11 1h-11q-35 0 -68 -25t-61 -64l-64 -365q-2 -9 -9 -9h-22q-7 0 -5 9l82 464q2 9 8 9h21q9 0 7 -9l-11 -59q29 42 67 60t70 18h7t9 -1q6 -2 5 -7zM94 -71q0 -14 -6 -30t-13 -28q-19 -34 -52 -60q-3 -3 -5 -3q-3 0 -3 2l-3 4q-1 1 -1 2
q0 2 1.5 3t2.5 3q12 10 22.5 24t13.5 32q1 2 1 7q0 16 -8 25.5t-8 20.5q0 13 9.5 21t21.5 8q11 0 19 -8.5t8 -22.5z" />
    <glyph glyph-name="sacute" unicode="&#x15b;" horiz-adv-x="375" 
d="M347 446q-3 -7 -11 -4q-19 9 -44.5 15.5t-46.5 6.5q-24 0 -46.5 -6.5t-40 -19t-28.5 -32t-11 -45.5q0 -27 15 -43.5t37 -29.5t48.5 -24t48.5 -26t37 -36.5t15 -54.5q0 -38 -16 -67.5t-42.5 -49t-60 -29.5t-67.5 -10q-32 0 -62 9t-47 18q-6 3 -2 11l8 15q3 5 9 2
q23 -12 50 -19.5t50 -7.5q27 0 53 8t46.5 24t33 38t12.5 51t-15 47t-37.5 31.5t-49 24.5t-49 25.5t-37.5 34t-15 50.5q0 33 14.5 59t37.5 44t53 27t60 9q26 0 52 -5t51 -18q4 -2 4 -4t-2 -6zM348 666q0 -5 -7 -9l-160 -86q-2 -1 -4 -1q-3 0 -4 3l-4 8l-1 3q0 3 3 5l149 105
q5 4 9 4t7 -5l10 -20q2 -4 2 -7z" />
    <glyph glyph-name="scircumflex" unicode="&#x15d;" horiz-adv-x="375" 
d="M347 446q-3 -7 -11 -4q-19 9 -44.5 15.5t-46.5 6.5q-24 0 -46.5 -6.5t-40 -19t-28.5 -32t-11 -45.5q0 -27 15 -43.5t37 -29.5t48.5 -24t48.5 -26t37 -36.5t15 -54.5q0 -38 -16 -67.5t-42.5 -49t-60 -29.5t-67.5 -10q-32 0 -62 9t-47 18q-6 3 -2 11l8 15q3 5 9 2
q23 -12 50 -19.5t50 -7.5q27 0 53 8t46.5 24t33 38t12.5 51t-15 47t-37.5 31.5t-49 24.5t-49 25.5t-37.5 34t-15 50.5q0 33 14.5 59t37.5 44t53 27t60 9q26 0 52 -5t51 -18q4 -2 4 -4t-2 -6zM354 572q-4 -5 -10 0l-77 79l-108 -83q-5 -3 -8 1l-5 6q-4 3 2 9l116 111q2 1 3 2
t3 1h12q1 0 4 -3l73 -108q4 -7 0 -10z" />
    <glyph glyph-name="scaron" unicode="&#x161;" horiz-adv-x="375" 
d="M347 446q-3 -7 -11 -4q-19 9 -44.5 15.5t-46.5 6.5q-24 0 -46.5 -6.5t-40 -19t-28.5 -32t-11 -45.5q0 -27 15 -43.5t37 -29.5t48.5 -24t48.5 -26t37 -36.5t15 -54.5q0 -38 -16 -67.5t-42.5 -49t-60 -29.5t-67.5 -10q-32 0 -62 9t-47 18q-6 3 -2 11l8 15q3 5 9 2
q23 -12 50 -19.5t50 -7.5q27 0 53 8t46.5 24t33 38t12.5 51t-15 47t-37.5 31.5t-49 24.5t-49 25.5t-37.5 34t-15 50.5q0 33 14.5 59t37.5 44t53 27t60 9q26 0 52 -5t51 -18q4 -2 4 -4t-2 -6zM374 691q4 -4 -1 -9l-117 -111q-3 -3 -5 -3h-12q-2 0 -5 3l-73 108q-4 6 0 10l5 5
q5 5 10 0l77 -79l109 83q3 3 8 -1z" />
    <glyph glyph-name="scedilla" unicode="&#x15f;" horiz-adv-x="375" 
d="M224 -105q0 -20 -8.5 -36t-22 -27.5t-31.5 -17.5t-37 -6q-9 0 -20.5 1.5t-22.5 5.5l-7.5 3t-0.5 6l4 9q1 2 4 2t5 -1q11 -3 20 -4t19 -1q28 0 48 16t20 45q0 23 -18.5 30.5t-43.5 7.5h-10q-15 0 -12 12l14 51q-29 2 -56 10.5t-43 16.5q-6 3 -2 11l8 15q3 5 9 2
q23 -12 50 -19.5t50 -7.5q27 0 53 8t46.5 24t33 38t12.5 51t-15 47t-37.5 31.5t-49 24.5t-49 25.5t-37.5 34t-15 50.5q0 33 14.5 59t37.5 44t53 27t60 9q26 0 52 -5t51 -18q4 -2 4 -4t-2 -6l-5 -13q-3 -7 -11 -4q-19 9 -44.5 15.5t-46.5 6.5q-24 0 -46.5 -6.5t-40 -19
t-28.5 -32t-11 -45.5q0 -27 15 -43.5t37 -29.5t48.5 -24t48.5 -26t37 -36.5t15 -54.5q0 -37 -15 -65t-39 -47.5t-55.5 -30.5t-64.5 -12l-9 -44h12q31 0 53 -12t22 -41z" />
    <glyph glyph-name="scommaaccent" unicode="&#x219;" horiz-adv-x="375" 
d="M347 446q-3 -7 -11 -4q-19 9 -44.5 15.5t-46.5 6.5q-24 0 -46.5 -6.5t-40 -19t-28.5 -32t-11 -45.5q0 -27 15 -43.5t37 -29.5t48.5 -24t48.5 -26t37 -36.5t15 -54.5q0 -38 -16 -67.5t-42.5 -49t-60 -29.5t-67.5 -10q-32 0 -62 9t-47 18q-6 3 -2 11l8 15q3 5 9 2
q23 -12 50 -19.5t50 -7.5q27 0 53 8t46.5 24t33 38t12.5 51t-15 47t-37.5 31.5t-49 24.5t-49 25.5t-37.5 34t-15 50.5q0 33 14.5 59t37.5 44t53 27t60 9q26 0 52 -5t51 -18q4 -2 4 -4t-2 -6zM168 -71q0 -14 -6 -30t-13 -28q-19 -34 -52 -60q-3 -3 -5 -3q-3 0 -3 2l-3 4
q-1 1 -1 2q0 2 1.5 3t2.5 3q12 10 22.5 24t13.5 32q1 2 1 7q0 16 -8 25.5t-8 20.5q0 13 9.5 21t21.5 8q11 0 19 -8.5t8 -22.5z" />
    <glyph glyph-name="germandbls" unicode="&#xdf;" horiz-adv-x="537" 
d="M483 589q0 -33 -11 -65.5t-30.5 -60t-46.5 -48t-60 -28.5v-1q31 -4 55 -17.5t40.5 -33.5t25.5 -46t9 -55q0 -50 -18 -94t-50 -77t-75.5 -52t-93.5 -19h-8h-23t-17 1q-9 1 -8 7l3 15q1 6 10 6t17 -0.5t18 -0.5q45 0 83 17t65.5 46t43 67.5t15.5 82.5q0 36 -13.5 61.5
t-35 42t-48 24t-52.5 7.5h-32q-9 0 -8 7l2 11q2 7 8 7h14q39 0 72.5 16.5t58 43.5t38.5 62t14 73q0 54 -33 77t-84 23q-62 0 -109 -42.5t-61 -122.5l-23 -135l-84 -473q-2 -10 -9 -10h-21q-7 0 -6 10l84 473l22 126q18 102 74.5 152.5t137.5 50.5q66 0 108 -32.5t42 -95.5z
" />
    <glyph glyph-name="tcaron" unicode="&#x165;" horiz-adv-x="301" 
d="M302 463q-1 -8 -8 -8h-122l-51 -289q-5 -29 -8 -48.5t-3 -33.5q0 -36 19 -51t55 -15q15 0 30.5 3t26.5 6q2 0 2.5 0.5t1.5 0.5q3 0 3.5 -1.5t1.5 -3.5v-13q0 -5 -6 -7q-14 -5 -34 -8.5t-39 -3.5q-31 0 -53 9.5t-31 23.5q-14 21 -14 54q0 17 3.5 41t7.5 46l52 290h-61
q-8 0 -7 7l2 14q1 6 9 6h62l22 127q1 8 9 9l21 3q9 1 7 -8l-23 -131h122q6 0 5 -6zM343 659q0 -14 -6 -30t-13 -28q-19 -34 -52 -60q-3 -3 -5 -3q-3 0 -3 2l-3 4q-1 1 -1 2q0 2 1.5 3t2.5 3q12 10 22.5 24t13.5 32q1 2 1 7q0 16 -8 25.5t-8 20.5q0 13 9.5 21t21.5 8
q11 0 19 -8.5t8 -22.5z" />
    <glyph glyph-name="tcommaaccent" unicode="&#x163;" horiz-adv-x="301" 
d="M302 463q-1 -8 -8 -8h-122l-51 -289q-5 -29 -8 -48.5t-3 -33.5q0 -36 19 -51t55 -15q15 0 30.5 3t26.5 6q2 0 2.5 0.5t1.5 0.5q3 0 3.5 -1.5t1.5 -3.5v-13q0 -5 -6 -7q-14 -5 -34 -8.5t-39 -3.5q-31 0 -53 9.5t-31 23.5q-14 21 -14 54q0 17 3.5 41t7.5 46l52 290h-61
q-8 0 -7 7l2 14q1 6 9 6h62l22 127q1 8 9 9l21 3q9 1 7 -8l-23 -131h122q6 0 5 -6zM173 -71q0 -14 -6 -30t-13 -28q-19 -34 -52 -60q-3 -3 -5 -3q-3 0 -3 2l-3 4q-1 1 -1 2q0 2 1.5 3t2.5 3q12 10 22.5 24t13.5 32q1 2 1 7q0 16 -8 25.5t-8 20.5q0 13 9.5 21t21.5 8
q11 0 19 -8.5t8 -22.5z" />
    <glyph glyph-name="uni021B" unicode="&#x21b;" horiz-adv-x="301" 
d="M302 463q-1 -8 -8 -8h-122l-51 -289q-5 -29 -8 -48.5t-3 -33.5q0 -36 19 -51t55 -15q15 0 30.5 3t26.5 6q2 0 2.5 0.5t1.5 0.5q3 0 3.5 -1.5t1.5 -3.5v-13q0 -5 -6 -7q-14 -5 -34 -8.5t-39 -3.5q-31 0 -53 9.5t-31 23.5q-14 21 -14 54q0 17 3.5 41t7.5 46l52 290h-61
q-8 0 -7 7l2 14q1 6 9 6h62l22 127q1 8 9 9l21 3q9 1 7 -8l-23 -131h122q6 0 5 -6zM173 -71q0 -14 -6 -30t-13 -28q-19 -34 -52 -60q-3 -3 -5 -3q-3 0 -3 2l-3 4q-1 1 -1 2q0 2 1.5 3t2.5 3q12 10 22.5 24t13.5 32q1 2 1 7q0 16 -8 25.5t-8 20.5q0 13 9.5 21t21.5 8
q11 0 19 -8.5t8 -22.5z" />
    <glyph glyph-name="tbar" unicode="&#x167;" horiz-adv-x="301" 
d="M302 463q-1 -8 -8 -8h-122l-32 -179h121q10 0 9 -12l-1 -5q-2 -8 -5 -10t-8 -2h-121l-14 -81q-5 -29 -8 -48.5t-3 -33.5q0 -36 19 -51t55 -15q15 0 30.5 3t26.5 6q2 0 2.5 0.5t1.5 0.5q3 0 3.5 -1.5t1.5 -3.5v-13q0 -5 -6 -7q-14 -5 -34 -8.5t-39 -3.5q-31 0 -53 9.5
t-31 23.5q-14 21 -14 54q0 17 3.5 41t7.5 46l14 82h-46q-10 0 -9 10l2 11q2 8 12 8h46l33 179h-61q-8 0 -7 7l2 14q1 6 9 6h62l22 127q1 8 9 9l21 3q9 1 7 -8l-23 -131h122q6 0 5 -6z" />
    <glyph glyph-name="ugrave" unicode="&#xf9;" horiz-adv-x="515" 
d="M386 9q-2 -9 -8 -9h-23q-4 0 -5 3t0 6l9 54q-31 -28 -76 -50.5t-98 -22.5q-61 0 -91.5 31.5t-30.5 89.5q0 25 6 55l54 308q1 8 7 8h23q8 0 6 -8l-53 -298q-6 -35 -6 -65q0 -48 25.5 -69.5t73.5 -21.5q44 0 88 23.5t79 55.5l66 373q2 10 9 10h21q8 0 6 -9zM383 586
q0 -3 -1 -4l-7 -9q-2 -3 -6 -3q-2 0 -3 1l-130 86q-4 3 -4 7t3 7l19 22q5 5 9 5q2 0 8 -4l111 -105q1 -1 1 -3z" />
    <glyph glyph-name="uacute" unicode="&#xfa;" horiz-adv-x="515" 
d="M386 9q-2 -9 -8 -9h-23q-4 0 -5 3t0 6l9 54q-31 -28 -76 -50.5t-98 -22.5q-61 0 -91.5 31.5t-30.5 89.5q0 25 6 55l54 308q1 8 7 8h23q8 0 6 -8l-53 -298q-6 -35 -6 -65q0 -48 25.5 -69.5t73.5 -21.5q44 0 88 23.5t79 55.5l66 373q2 10 9 10h21q8 0 6 -9zM428 666
q0 -5 -7 -9l-160 -86q-2 -1 -4 -1q-3 0 -4 3l-4 8l-1 3q0 3 3 5l149 105q5 4 9 4t7 -5l10 -20q2 -4 2 -7z" />
    <glyph glyph-name="ucircumflex" unicode="&#xfb;" horiz-adv-x="515" 
d="M386 9q-2 -9 -8 -9h-23q-4 0 -5 3t0 6l9 54q-31 -28 -76 -50.5t-98 -22.5q-61 0 -91.5 31.5t-30.5 89.5q0 25 6 55l54 308q1 8 7 8h23q8 0 6 -8l-53 -298q-6 -35 -6 -65q0 -48 25.5 -69.5t73.5 -21.5q44 0 88 23.5t79 55.5l66 373q2 10 9 10h21q8 0 6 -9zM409 572
q-4 -5 -10 0l-77 79l-108 -83q-5 -3 -8 1l-5 6q-4 3 2 9l116 111q2 1 3 2t3 1h12q1 0 4 -3l73 -108q4 -7 0 -10z" />
    <glyph glyph-name="utilde" unicode="&#x169;" horiz-adv-x="515" 
d="M386 9q-2 -9 -8 -9h-23q-4 0 -5 3t0 6l9 54q-31 -28 -76 -50.5t-98 -22.5q-61 0 -91.5 31.5t-30.5 89.5q0 25 6 55l54 308q1 8 7 8h23q8 0 6 -8l-53 -298q-6 -35 -6 -65q0 -48 25.5 -69.5t73.5 -21.5q44 0 88 23.5t79 55.5l66 373q2 10 9 10h21q8 0 6 -9zM465 646
q4 -3 2 -7t-5 -6q-11 -8 -24 -17t-27 -16.5t-28 -12.5t-26 -5q-13 0 -23.5 7.5t-21 17t-22 17t-26.5 7.5q-11 0 -33.5 -11.5t-38.5 -22.5q-5 -3 -7.5 -3t-5.5 6l-5 11q-3 6 1.5 10.5t9.5 7.5q20 14 45.5 24t43.5 10q15 0 27 -7.5t23 -16.5t22.5 -16.5t24.5 -7.5q6 0 16 5
t21.5 11.5t21.5 13t16 10.5q4 3 6 2t5 -4z" />
    <glyph glyph-name="udieresis" unicode="&#xfc;" horiz-adv-x="515" 
d="M386 9q-2 -9 -8 -9h-23q-4 0 -5 3t0 6l9 54q-31 -28 -76 -50.5t-98 -22.5q-61 0 -91.5 31.5t-30.5 89.5q0 25 6 55l54 308q1 8 7 8h23q8 0 6 -8l-53 -298q-6 -35 -6 -65q0 -48 25.5 -69.5t73.5 -21.5q44 0 88 23.5t79 55.5l66 373q2 10 9 10h21q8 0 6 -9zM429 632
q0 -16 -11.5 -29t-28.5 -13q-12 0 -20.5 8t-8.5 21q0 17 12 28t29 11q12 0 20 -6.5t8 -19.5zM276 632q0 -16 -11.5 -29t-28.5 -13q-12 0 -20.5 8t-8.5 21q0 17 12 28t29 11q12 0 20 -6.5t8 -19.5z" />
    <glyph glyph-name="umacron" unicode="&#x16b;" horiz-adv-x="515" 
d="M386 9q-2 -9 -8 -9h-23q-4 0 -5 3t0 6l9 54q-31 -28 -76 -50.5t-98 -22.5q-61 0 -91.5 31.5t-30.5 89.5q0 25 6 55l54 308q1 8 7 8h23q8 0 6 -8l-53 -298q-6 -35 -6 -65q0 -48 25.5 -69.5t73.5 -21.5q44 0 88 23.5t79 55.5l66 373q2 10 9 10h21q8 0 6 -9zM426 621
q-2 -8 -4.5 -10t-8.5 -2h-200q-7 0 -9.5 1.5t-0.5 10.5l2 11q2 8 4.5 9.5t9.5 1.5h202q5 0 7 -1.5t0 -9.5z" />
    <glyph glyph-name="ubreve" unicode="&#x16d;" horiz-adv-x="515" 
d="M386 9q-2 -9 -8 -9h-23q-4 0 -5 3t0 6l9 54q-31 -28 -76 -50.5t-98 -22.5q-61 0 -91.5 31.5t-30.5 89.5q0 25 6 55l54 308q1 8 7 8h23q8 0 6 -8l-53 -298q-6 -35 -6 -65q0 -48 25.5 -69.5t73.5 -21.5q44 0 88 23.5t79 55.5l66 373q2 10 9 10h21q8 0 6 -9zM426 677
q-13 -41 -48 -68.5t-77 -27.5q-44 0 -67.5 26.5t-23.5 69.5q0 11 7 11h17q7 0 8 -8q6 -31 22.5 -49.5t42.5 -18.5q27 0 49.5 18t39.5 50q5 8 10 8h16q7 0 7 -5z" />
    <glyph glyph-name="uring" unicode="&#x16f;" horiz-adv-x="515" 
d="M386 9q-2 -9 -8 -9h-23q-4 0 -5 3t0 6l9 54q-31 -28 -76 -50.5t-98 -22.5q-61 0 -91.5 31.5t-30.5 89.5q0 25 6 55l54 308q1 8 7 8h23q8 0 6 -8l-53 -298q-6 -35 -6 -65q0 -48 25.5 -69.5t73.5 -21.5q44 0 88 23.5t79 55.5l66 373q2 10 9 10h21q8 0 6 -9zM403 665
q0 -19 -8.5 -37t-22 -31.5t-32 -21.5t-37.5 -8q-30 0 -50.5 20t-20.5 50q0 19 8.5 37t23 31.5t32.5 21.5t37 8q30 0 50 -19.5t20 -50.5zM369 661q0 18 -12 29t-30 11q-23 0 -42 -17.5t-19 -41.5q0 -19 13 -30t31 -11q23 0 41 18t18 42z" />
    <glyph glyph-name="uhungarumlaut" unicode="&#x171;" horiz-adv-x="515" 
d="M386 9q-2 -9 -8 -9h-23q-4 0 -5 3t0 6l9 54q-31 -28 -76 -50.5t-98 -22.5q-61 0 -91.5 31.5t-30.5 89.5q0 25 6 55l54 308q1 8 7 8h23q8 0 6 -8l-53 -298q-6 -35 -6 -65q0 -48 25.5 -69.5t73.5 -21.5q44 0 88 23.5t79 55.5l66 373q2 10 9 10h21q8 0 6 -9zM537 671
q3 -9 -6 -14l-160 -86q-6 -4 -9 2l-4 9q-2 3 3 7l149 105q5 3 8.5 4t6.5 -5zM337 671q3 -9 -6 -14l-160 -86q-6 -4 -9 2l-4 9q-2 3 3 7l149 105q5 3 8.5 4t6.5 -5z" />
    <glyph glyph-name="uogonek" unicode="&#x173;" horiz-adv-x="515" 
d="M386 9q-1 -6 -8 -9q-14 -6 -23.5 -13.5t-18.5 -16.5q-20 -20 -34 -46t-14 -52t17 -36.5t38 -10.5q8 0 22.5 2t26.5 5q2 1 6 1.5t4 -3.5l-1 -9q0 -7 -6 -9q-15 -6 -32.5 -8.5t-34.5 -2.5q-38 0 -56 20.5t-18 44.5q0 20 8.5 39.5t22 37t30 32t33.5 25.5l11 63
q-31 -28 -76 -50.5t-98 -22.5q-61 0 -91.5 31.5t-30.5 89.5q0 25 6 55l54 308q1 8 7 8h23q8 0 6 -8l-53 -298q-6 -35 -6 -65q0 -48 25.5 -69.5t73.5 -21.5q44 0 88 23.5t79 55.5l66 373q2 10 9 10h21q8 0 6 -9z" />
    <glyph glyph-name="wgrave" unicode="&#x1e81;" horiz-adv-x="663" 
d="M446 4q-1 -4 -7 -4h-23q-6 0 -7 4l-46 427l-198 -427q-1 -4 -7 -4h-21q-5 0 -6 1t-2 3l-51 469q-2 9 7 9h18q10 0 10 -8l43 -431l198 432q2 4 4.5 5.5t8.5 1.5h15q7 0 7 -7l47 -431l197 431q4 7 14 7h17q5 0 4.5 -3t-2.5 -6zM424 586q0 -3 -1 -4l-7 -9q-2 -3 -6 -3
q-2 0 -3 1l-130 86q-4 3 -4 7t3 7l19 22q5 5 9 5q2 0 8 -4l111 -105q1 -1 1 -3z" />
    <glyph glyph-name="wacute" unicode="&#x1e83;" horiz-adv-x="663" 
d="M446 4q-1 -4 -7 -4h-23q-6 0 -7 4l-46 427l-198 -427q-1 -4 -7 -4h-21q-5 0 -6 1t-2 3l-51 469q-2 9 7 9h18q10 0 10 -8l43 -431l198 432q2 4 4.5 5.5t8.5 1.5h15q7 0 7 -7l47 -431l197 431q4 7 14 7h17q5 0 4.5 -3t-2.5 -6zM530 666q0 -5 -7 -9l-160 -86q-2 -1 -4 -1
q-3 0 -4 3l-4 8l-1 3q0 3 3 5l149 105q5 4 9 4t7 -5l10 -20q2 -4 2 -7z" />
    <glyph glyph-name="wcircumflex" unicode="&#x175;" horiz-adv-x="663" 
d="M446 4q-1 -4 -7 -4h-23q-6 0 -7 4l-46 427l-198 -427q-1 -4 -7 -4h-21q-5 0 -6 1t-2 3l-51 469q-2 9 7 9h18q10 0 10 -8l43 -431l198 432q2 4 4.5 5.5t8.5 1.5h15q7 0 7 -7l47 -431l197 431q4 7 14 7h17q5 0 4.5 -3t-2.5 -6zM483 572q-4 -5 -10 0l-77 79l-108 -83
q-5 -3 -8 1l-5 6q-4 3 2 9l116 111q2 1 3 2t3 1h12q1 0 4 -3l73 -108q4 -7 0 -10z" />
    <glyph glyph-name="wdieresis" unicode="&#x1e85;" horiz-adv-x="663" 
d="M446 4q-1 -4 -7 -4h-23q-6 0 -7 4l-46 427l-198 -427q-1 -4 -7 -4h-21q-5 0 -6 1t-2 3l-51 469q-2 9 7 9h18q10 0 10 -8l43 -431l198 432q2 4 4.5 5.5t8.5 1.5h15q7 0 7 -7l47 -431l197 431q4 7 14 7h17q5 0 4.5 -3t-2.5 -6zM506 632q0 -16 -11.5 -29t-28.5 -13
q-12 0 -20.5 8t-8.5 21q0 17 12 28t29 11q12 0 20 -6.5t8 -19.5zM353 632q0 -16 -11.5 -29t-28.5 -13q-12 0 -20.5 8t-8.5 21q0 17 12 28t29 11q12 0 20 -6.5t8 -19.5z" />
    <glyph glyph-name="ygrave" unicode="&#x1ef3;" horiz-adv-x="437" 
d="M174 -59q-23 -45 -45.5 -75.5t-46.5 -49.5t-51.5 -27.5t-61.5 -8.5q-12 0 -27 3q-8 1 -5 10l5 15q1 7 11 5q7 -1 14 -1.5t13 -0.5q42 0 76.5 21t60.5 69l47 84l-85 487q-2 10 7 10h20q7 0 8.5 -2t2.5 -7l73 -440l225 440q5 9 15 9h18q9 0 4 -9zM374 586q0 -3 -1 -4l-7 -9
q-2 -3 -6 -3q-2 0 -3 1l-130 86q-4 3 -4 7t3 7l19 22q5 5 9 5q2 0 8 -4l111 -105q1 -1 1 -3z" />
    <glyph glyph-name="yacute" unicode="&#xfd;" horiz-adv-x="437" 
d="M174 -59q-23 -45 -45.5 -75.5t-46.5 -49.5t-51.5 -27.5t-61.5 -8.5q-12 0 -27 3q-8 1 -5 10l5 15q1 7 11 5q7 -1 14 -1.5t13 -0.5q42 0 76.5 21t60.5 69l47 84l-85 487q-2 10 7 10h20q7 0 8.5 -2t2.5 -7l73 -440l225 440q5 9 15 9h18q9 0 4 -9zM379 666q0 -5 -7 -9
l-160 -86q-2 -1 -4 -1q-3 0 -4 3l-4 8l-1 3q0 3 3 5l149 105q5 4 9 4t7 -5l10 -20q2 -4 2 -7z" />
    <glyph glyph-name="ycircumflex" unicode="&#x177;" horiz-adv-x="437" 
d="M174 -59q-23 -45 -45.5 -75.5t-46.5 -49.5t-51.5 -27.5t-61.5 -8.5q-12 0 -27 3q-8 1 -5 10l5 15q1 7 11 5q7 -1 14 -1.5t13 -0.5q42 0 76.5 21t60.5 69l47 84l-85 487q-2 10 7 10h20q7 0 8.5 -2t2.5 -7l73 -440l225 440q5 9 15 9h18q9 0 4 -9zM380 572q-4 -5 -10 0
l-77 79l-108 -83q-5 -3 -8 1l-5 6q-4 3 2 9l116 111q2 1 3 2t3 1h12q1 0 4 -3l73 -108q4 -7 0 -10z" />
    <glyph glyph-name="ydieresis" unicode="&#xff;" horiz-adv-x="437" 
d="M174 -59q-23 -45 -45.5 -75.5t-46.5 -49.5t-51.5 -27.5t-61.5 -8.5q-12 0 -27 3q-8 1 -5 10l5 15q1 7 11 5q7 -1 14 -1.5t13 -0.5q42 0 76.5 21t60.5 69l47 84l-85 487q-2 10 7 10h20q7 0 8.5 -2t2.5 -7l73 -440l225 440q5 9 15 9h18q9 0 4 -9zM382 632q0 -16 -11.5 -29
t-28.5 -13q-12 0 -20.5 8t-8.5 21q0 17 12 28t29 11q12 0 20 -6.5t8 -19.5zM229 632q0 -16 -11.5 -29t-28.5 -13q-12 0 -20.5 8t-8.5 21q0 17 12 28t29 11q12 0 20 -6.5t8 -19.5z" />
    <glyph glyph-name="zacute" unicode="&#x17a;" horiz-adv-x="386" 
d="M389 466l-2.5 -5t-6.5 -10l-328 -424h257q6 0 5 -7l-2 -14q-1 -6 -9 -6h-286q-8 0 -7 7l2 9q1 6 3 9t7 11l324 419h-230q-8 0 -7 8l3 13q1 6 9 6h265q5 0 5 -5zM373 666q0 -5 -7 -9l-160 -86q-2 -1 -4 -1q-3 0 -4 3l-4 8l-1 3q0 3 3 5l149 105q5 4 9 4t7 -5l10 -20
q2 -4 2 -7z" />
    <glyph glyph-name="zcaron" unicode="&#x17e;" horiz-adv-x="386" 
d="M389 466l-2.5 -5t-6.5 -10l-328 -424h257q6 0 5 -7l-2 -14q-1 -6 -9 -6h-286q-8 0 -7 7l2 9q1 6 3 9t7 11l324 419h-230q-8 0 -7 8l3 13q1 6 9 6h265q5 0 5 -5zM380 691q4 -4 -1 -9l-117 -111q-3 -3 -5 -3h-12q-2 0 -5 3l-73 108q-4 6 0 10l5 5q5 5 10 0l77 -79l109 83
q3 3 8 -1z" />
    <glyph glyph-name="zdotaccent" unicode="&#x17c;" horiz-adv-x="386" 
d="M389 466l-2.5 -5t-6.5 -10l-328 -424h257q6 0 5 -7l-2 -14q-1 -6 -9 -6h-286q-8 0 -7 7l2 9q1 6 3 9t7 11l324 419h-230q-8 0 -7 8l3 13q1 6 9 6h265q5 0 5 -5zM303 650q0 -17 -13 -31.5t-31 -14.5q-13 0 -22 8.5t-9 22.5q0 19 13 31t32 12q13 0 21.5 -7t8.5 -21z" />
    <glyph glyph-name="apple" unicode="&#xf8ff;" horiz-adv-x="606" 
d="M238 202v65h196v66h-196v195h261v-65h-196v-65h196v-196h-261zM173 594v-529h73v-65h-138v659h391v-65h-326z" />
    <glyph glyph-name="published" horiz-adv-x="815" 
d="M759 350q-13 -72 -51.5 -136t-94.5 -111.5t-124.5 -75t-140.5 -27.5q-65 0 -119 22t-93 61t-60.5 91.5t-21.5 114.5q0 15 1 30t4 31q13 72 51.5 136t94.5 111.5t125 75t141 27.5q64 0 118 -22t93 -61t60.5 -92t21.5 -114q0 -15 -1 -30t-4 -31zM730 350q2 14 3.5 28
t1.5 28q0 56 -20 104.5t-55.5 84t-85 56t-108.5 20.5q-66 0 -129 -25.5t-114.5 -69t-87 -102t-47.5 -124.5q-2 -14 -3.5 -27.5t-1.5 -27.5q0 -57 20 -105.5t56 -84t85.5 -56t108.5 -20.5q66 0 129 25.5t114 69t86.5 102t47.5 124.5zM558 432q-4 -21 -15 -43t-30.5 -39
t-49 -28t-69.5 -11h-48l-29 -169q-2 -5 -5 -5h-20q-5 0 -3 5l70 402q1 6 7 6h81q114 0 114 -88q0 -14 -3 -30zM531 432q2 7 2 13v12q0 40 -25 56t-72 16h-51l-35 -197h50q54 0 88 25.5t43 74.5z" />
	k="29" />
  </font>
</defs>
</svg>
